<svg width="77" height="46" viewBox="0 0 77 46" fill="none" xmlns="http://www.w3.org/2000/svg">
<path d="M8.27755 13.9259C9.59347 11.991 10.8882 10.2138 12.1616 8.59432C13.4563 6.95383 14.6873 5.5447 15.8547 4.36691C17.022 3.18912 18.0939 2.27423 19.0702 1.62224C20.0465 0.970253 20.8955 0.644259 21.6171 0.644259C21.8931 0.644259 22.1902 0.749418 22.5086 0.959737C22.8482 1.17006 23.1559 1.44347 23.4318 1.77998C23.729 2.11649 23.9731 2.48455 24.1641 2.88416C24.3551 3.26273 24.4506 3.63079 24.4506 3.98833C23.1347 4.40897 21.84 4.96632 20.5665 5.66037C19.3143 6.33339 18.1045 7.12209 16.9371 8.02646C15.791 8.9098 14.6873 9.8983 13.6261 10.992C12.5861 12.0856 11.6416 13.2529 10.7927 14.4938C11.1322 15.3561 11.5461 16.2815 12.0343 17.27C12.5437 18.2375 13.0955 19.1839 13.6898 20.1093C14.2841 21.0137 14.9208 21.8549 15.6 22.6331C16.2792 23.4113 16.969 24.0318 17.6694 24.4945C17.5633 24.7258 17.3829 24.9466 17.1282 25.157C16.8735 25.3673 16.5975 25.5566 16.3004 25.7248C16.0033 25.9141 15.6849 26.0613 15.3453 26.1665C15.0269 26.2717 14.7298 26.3242 14.4539 26.3242C13.902 26.3242 13.3927 26.0613 12.9257 25.5355C12.4588 25.0308 11.9812 24.2631 11.4931 23.2325C11.0261 22.1809 10.5273 20.8875 9.99673 19.3521C9.48735 17.7958 8.91429 15.987 8.27755 13.9259ZM3.4702 26.482C2.66367 26.2927 1.9951 25.9562 1.46449 25.4724C0.933878 25.0097 0.445714 24.4208 0 23.7058C0.19102 23.3062 0.413878 22.7804 0.668572 22.1284C0.94449 21.4764 1.27347 20.6772 1.65551 19.7307C2.03755 18.7633 2.49388 17.617 3.02449 16.292C3.5551 14.946 4.17061 13.3791 4.87102 11.5914C5.31674 10.4556 5.67755 9.4987 5.95347 8.72052C6.25061 7.94233 6.49469 7.18519 6.68571 6.44907C6.89796 5.69192 7.09959 4.86116 7.29061 3.95679C7.48163 3.05241 7.70449 1.90617 7.95918 0.518066C8.85061 0.686322 9.65714 1.07541 10.3788 1.68534C11.1216 2.29526 11.7584 3.03138 12.289 3.89369C12.0555 4.18814 11.7796 4.64032 11.4612 5.25025C11.1641 5.83914 10.8245 6.55423 10.4424 7.3955C10.0604 8.23678 9.63592 9.1727 9.16898 10.2033C8.70204 11.2338 8.21388 12.3275 7.70449 13.4842C6.55837 16.0081 5.65633 18.3216 4.99837 20.4248C4.34041 22.5069 3.83102 24.526 3.4702 26.482Z" fill="#222222"/>
<path d="M19.1759 23.2956C19.282 22.6857 19.4624 21.8865 19.7171 20.898C19.9931 19.8885 20.3114 18.8264 20.6722 17.7117C21.0331 16.5759 21.4151 15.4402 21.8184 14.3045C22.2216 13.1688 22.6143 12.1487 22.9963 11.2443C23.2722 10.5924 23.5163 10.0876 23.7286 9.73005C23.9408 9.35147 24.1743 9.03599 24.429 8.78361C24.7261 8.82568 25.0339 8.89929 25.3522 9.00445C25.6706 9.10961 25.9784 9.2358 26.2755 9.38302C26.5726 9.53024 26.838 9.68798 27.0714 9.85624C27.3049 10.0035 27.4853 10.1507 27.6126 10.2979C27.0396 10.9709 26.5302 11.7386 26.0845 12.6009C25.66 13.4632 25.2249 14.5674 24.7792 15.9134C25.9253 14.9039 26.9335 13.9364 27.8037 13.011C28.6951 12.0856 29.5229 11.0551 30.2869 9.91933C30.4143 9.81417 30.6371 9.76159 30.9555 9.76159C31.2526 9.76159 31.5392 9.81417 31.8151 9.91933C32.091 10.0035 32.282 10.1297 32.3882 10.2979C32.0061 11.3074 31.8151 12.3065 31.8151 13.295C31.8151 14.2204 31.9531 14.9144 32.229 15.3771C32.2077 15.5033 32.0592 15.7452 31.7833 16.1027C31.5286 16.4603 31.242 16.7968 30.9237 17.1123C30.3506 16.8178 29.8412 16.4182 29.3955 15.9134C28.9498 15.3876 28.6208 14.8198 28.4086 14.2098C27.411 14.9039 26.562 15.5874 25.8616 16.2605C25.1612 16.9124 24.5563 17.6486 24.0469 18.4688C23.5588 19.268 23.1343 20.1934 22.7735 21.245C22.4339 22.2966 22.1049 23.548 21.7865 24.9992C21.5955 24.9782 21.362 24.9046 21.0861 24.7784C20.8314 24.6732 20.5661 24.5365 20.2902 24.3683C20.0355 24.2 19.802 24.0212 19.5898 23.8319C19.3775 23.6427 19.2396 23.4639 19.1759 23.2956Z" fill="#222222"/>
<path d="M42.5861 10.8658C42.5012 12.1697 42.2677 13.295 41.8857 14.2414C41.5037 15.1668 40.9518 15.987 40.2302 16.7021C39.5298 17.3962 38.6702 18.0271 37.6514 18.595C36.6326 19.1629 35.4441 19.7097 34.0857 20.2355C34.0857 20.3617 34.0751 20.4984 34.0539 20.6456C34.0539 20.7718 34.0539 20.9085 34.0539 21.0557C34.0539 21.3292 34.0751 21.6131 34.1175 21.9075C34.16 22.202 34.2343 22.4754 34.3404 22.7278C34.4465 22.9802 34.5951 23.1905 34.7861 23.3587C34.9771 23.506 35.2212 23.5796 35.5184 23.5796C36.0914 23.5796 36.6539 23.4534 37.2057 23.201C37.7575 22.9486 38.2775 22.6436 38.7657 22.2861C39.2751 21.9075 39.742 21.5079 40.1665 21.0873C40.6122 20.6456 41.0049 20.246 41.3445 19.8885C41.5567 20.0778 41.7371 20.2565 41.8857 20.4248C40.9306 21.6867 39.88 22.7383 38.7339 23.5796C37.609 24.3998 36.5371 24.9256 35.5184 25.157C34.0539 24.9887 32.9077 24.4629 32.08 23.5796C31.2735 22.6752 30.8702 21.592 30.8702 20.3301C30.8702 19.4678 30.9869 18.595 31.2204 17.7117C31.4751 16.8073 31.8147 15.945 32.2392 15.1247C32.6849 14.2835 33.1943 13.4948 33.7673 12.7586C34.3616 12.0225 34.9877 11.3811 35.6457 10.8342C36.3249 10.2874 37.0147 9.85624 37.7151 9.54076C38.4367 9.22528 39.1477 9.06754 39.8482 9.06754C40.8245 9.19373 41.7371 9.79314 42.5861 10.8658ZM40.3894 11.9069C39.8163 11.991 39.222 12.2223 38.6065 12.6009C37.991 12.9795 37.4073 13.4842 36.8555 14.1152C36.3249 14.7462 35.8367 15.4823 35.391 16.3236C34.9453 17.1648 34.5951 18.0692 34.3404 19.0367C36.0384 18.1954 37.4498 17.1648 38.5747 15.945C39.6996 14.7041 40.3045 13.3581 40.3894 11.9069Z" fill="#222222"/>
<path d="M53.4519 11.1813C53.6641 11.1813 53.9082 11.2233 54.1841 11.3074C54.4813 11.3705 54.7466 11.4652 54.98 11.5914C55.2135 11.6965 55.4045 11.8122 55.5531 11.9384C55.7229 12.0646 55.8078 12.1803 55.8078 12.2854C55.3833 13.1688 54.9907 14.0626 54.6298 14.967C54.269 15.8503 53.9613 16.7021 53.7066 17.5224C53.4519 18.3426 53.2503 19.1103 53.1017 19.8254C52.9743 20.5405 52.9107 21.1609 52.9107 21.6867C52.9107 22.2756 52.9743 22.7698 53.1017 23.1694C53.229 23.548 53.4413 23.8214 53.7384 23.9897C53.4837 24.1579 53.1547 24.2946 52.7515 24.3998C52.3482 24.505 51.9874 24.5575 51.669 24.5575C50.5229 24.5575 49.9498 23.7794 49.9498 22.223C49.9498 21.0242 50.3531 19.3837 51.1596 17.3015C50.7352 18.269 50.247 19.1839 49.6952 20.0462C49.1433 20.8875 48.5809 21.6341 48.0078 22.2861C47.4347 22.9381 46.8511 23.4744 46.2568 23.895C45.6837 24.2946 45.1531 24.5365 44.6649 24.6206C43.8796 24.5786 43.2429 24.2105 42.7547 23.5165C42.2666 22.8014 42.0225 21.897 42.0225 20.8034C42.0225 19.6256 42.2772 18.3847 42.7866 17.0807C43.296 15.7767 43.9433 14.5674 44.7286 13.4527C45.5352 12.338 46.4054 11.4126 47.3392 10.6765C48.2731 9.91933 49.1752 9.51973 50.0454 9.47766C50.2576 9.54076 50.4911 9.66695 50.7458 9.85624C51.0217 10.0455 51.2764 10.2664 51.5098 10.5187C51.7645 10.7711 51.9768 11.034 52.1466 11.3074C52.3164 11.5598 52.4119 11.7807 52.4331 11.9699C51.5841 12.0961 50.7033 12.5063 49.7907 13.2003C48.8992 13.8944 48.0821 14.7356 47.3392 15.7241C46.6176 16.6916 46.0233 17.7327 45.5564 18.8474C45.0894 19.9621 44.856 21.0032 44.856 21.9706C44.856 22.3702 45.0045 22.6226 45.3017 22.7278C45.9172 22.6016 46.6282 22.0863 47.4347 21.1819C48.2413 20.2565 49.2176 18.8369 50.3637 16.923C50.576 16.5444 50.8094 16.1238 51.0641 15.661C51.34 15.1983 51.616 14.7146 51.8919 14.2098C52.1678 13.7051 52.4331 13.2003 52.6878 12.6955C52.9637 12.1698 53.2184 11.665 53.4519 11.1813Z" fill="#222222"/>
<path d="M57.1808 11.8438C57.0746 11.7176 56.9791 11.4547 56.8942 11.0551C56.8093 10.6344 56.7669 10.2769 56.7669 9.98243C57.3187 10.0245 57.8493 10.0666 58.3587 10.1086C58.8681 10.1297 59.3351 10.1507 59.7595 10.1717C60.0779 9.54076 60.4175 8.92032 60.7783 8.31039C61.1604 7.67943 61.5212 7.11157 61.8608 6.60681C62.2216 6.08101 62.5506 5.63934 62.8477 5.2818C63.1661 4.92425 63.4102 4.6929 63.5799 4.58774C63.7922 4.58774 64.0575 4.62981 64.3759 4.71393C64.7155 4.77703 65.055 4.87168 65.3946 4.99787C65.7342 5.10303 66.042 5.2187 66.3179 5.34489C66.5938 5.47108 66.7849 5.59727 66.891 5.72347C66.2542 6.52268 65.7024 7.26931 65.2355 7.96337C64.7897 8.63639 64.3016 9.41457 63.771 10.2979C64.1955 10.2979 64.6199 10.2874 65.0444 10.2664C65.4902 10.2453 65.9359 10.2138 66.3816 10.1717C66.4877 10.2769 66.5726 10.4136 66.6363 10.5818C66.7 10.7291 66.7318 10.8868 66.7318 11.0551C65.6918 11.4336 64.4289 11.644 62.9432 11.686C62.4126 12.6955 61.9351 13.7051 61.5106 14.7146C61.1073 15.7031 60.7571 16.6601 60.4599 17.5855C60.184 18.5109 59.9612 19.3837 59.7914 20.2039C59.6428 21.0242 59.5685 21.7603 59.5685 22.4123C59.5685 23.3377 59.9187 23.853 60.6191 23.9581C61.2559 23.874 61.8608 23.7163 62.4338 23.4849C63.0069 23.2536 63.5163 22.9591 63.962 22.6016C64.0893 22.7909 64.1636 22.9486 64.1848 23.0748C64.0575 23.2641 63.8346 23.4849 63.5163 23.7373C63.2191 23.9897 62.8902 24.2316 62.5293 24.4629C62.1685 24.7153 61.8183 24.9256 61.4787 25.0939C61.1391 25.2621 60.8844 25.3568 60.7146 25.3778C60.184 25.3568 59.6534 25.2411 59.1228 25.0308C58.5922 24.8204 58.104 24.5576 57.6583 24.2421C57.2338 23.9266 56.8836 23.5796 56.6077 23.201C56.3318 22.8014 56.1938 22.4123 56.1938 22.0337C56.1938 21.529 56.2575 20.898 56.3848 20.1408C56.5334 19.3627 56.7351 18.5214 56.9897 17.617C57.2444 16.7126 57.5416 15.7662 57.8812 14.7777C58.2208 13.7892 58.5922 12.8112 58.9955 11.8438H57.1808Z" fill="#222222"/>
<path d="M76.3007 10.8658C76.2158 12.1697 75.9823 13.295 75.6003 14.2414C75.2183 15.1668 74.6664 15.987 73.9448 16.7021C73.2444 17.3962 72.3848 18.0271 71.366 18.595C70.3472 19.1629 69.1587 19.7097 67.8003 20.2355C67.8003 20.3617 67.7897 20.4984 67.7685 20.6456C67.7685 20.7718 67.7685 20.9085 67.7685 21.0557C67.7685 21.3292 67.7897 21.6131 67.8321 21.9075C67.8746 22.202 67.9489 22.4754 68.055 22.7278C68.1611 22.9802 68.3097 23.1905 68.5007 23.3587C68.6917 23.506 68.9358 23.5796 69.233 23.5796C69.806 23.5796 70.3685 23.4534 70.9203 23.201C71.4721 22.9486 71.9921 22.6436 72.4803 22.2861C72.9897 21.9075 73.4566 21.5079 73.8811 21.0873C74.3268 20.6456 74.7195 20.246 75.0591 19.8885C75.2713 20.0778 75.4517 20.2565 75.6003 20.4248C74.6452 21.6867 73.5946 22.7383 72.4485 23.5796C71.3236 24.3998 70.2517 24.9256 69.233 25.157C67.7685 24.9887 66.6223 24.4629 65.7946 23.5796C64.9881 22.6752 64.5848 21.592 64.5848 20.3301C64.5848 19.4678 64.7015 18.595 64.935 17.7117C65.1897 16.8073 65.5293 15.945 65.9538 15.1247C66.3995 14.2835 66.9089 13.4948 67.4819 12.7586C68.0762 12.0225 68.7023 11.3811 69.3603 10.8342C70.0395 10.2874 70.7293 9.85624 71.4297 9.54076C72.1513 9.22528 72.8624 9.06754 73.5628 9.06754C74.5391 9.19373 75.4517 9.79314 76.3007 10.8658ZM74.104 11.9069C73.5309 11.991 72.9366 12.2223 72.3211 12.6009C71.7056 12.9795 71.1219 13.4842 70.5701 14.1152C70.0395 14.7462 69.5513 15.4823 69.1056 16.3236C68.6599 17.1648 68.3097 18.0692 68.055 19.0367C69.753 18.1954 71.1644 17.1648 72.2893 15.945C73.4142 14.7041 74.0191 13.3581 74.104 11.9069Z" fill="#222222"/>
<path d="M0 42.4819C0 35.8545 5.37258 30.4819 12 30.4819H76.3007V33.4819C76.3007 40.1094 70.9281 45.4819 64.3007 45.4819H0V42.4819Z" fill="#F74055"/>
<path d="M26.8304 41.2819C26.6637 41.3086 26.4804 41.3386 26.2804 41.3719C26.0804 41.4053 25.9004 41.4353 25.7404 41.4619C25.7671 41.2419 25.7937 41.0253 25.8204 40.8119C25.8404 40.6253 25.8571 40.4386 25.8704 40.2519C25.8904 40.0653 25.9071 39.9053 25.9204 39.7719H25.0504L24.6504 41.2119C24.5037 41.2319 24.3304 41.2553 24.1304 41.2819C23.9304 41.3019 23.7437 41.3219 23.5704 41.3419C23.3571 41.3686 23.1471 41.3953 22.9404 41.4219C23.2071 40.5353 23.4704 39.6619 23.7304 38.8019C23.8371 38.4419 23.9471 38.0653 24.0604 37.6719C24.1804 37.2786 24.2971 36.8886 24.4104 36.5019C24.5304 36.1086 24.6437 35.7319 24.7504 35.3719C24.8571 35.0119 24.9504 34.6819 25.0304 34.3819C25.4837 34.3486 25.9437 34.3086 26.4104 34.2619C26.8837 34.2153 27.3437 34.1519 27.7904 34.0719C27.7704 34.2853 27.7471 34.5519 27.7204 34.8719C27.7004 35.1853 27.6804 35.5286 27.6604 35.9019C27.6404 36.2753 27.6204 36.6653 27.6004 37.0719C27.5804 37.4786 27.5604 37.8786 27.5404 38.2719C27.5071 39.1919 27.4704 40.1686 27.4304 41.2019C27.2304 41.2353 27.0304 41.2619 26.8304 41.2819ZM25.2904 38.7719C25.3171 38.7719 25.3637 38.7719 25.4304 38.7719C25.5037 38.7653 25.5771 38.7619 25.6504 38.7619C25.7304 38.7553 25.8037 38.7519 25.8704 38.7519C25.9371 38.7453 25.9837 38.7386 26.0104 38.7319C26.0104 38.6919 26.0137 38.6253 26.0204 38.5319C26.0337 38.4319 26.0437 38.3219 26.0504 38.2019C26.0637 38.0753 26.0771 37.9386 26.0904 37.7919C26.1037 37.6453 26.1171 37.5019 26.1304 37.3619C26.1571 37.0219 26.1904 36.6553 26.2304 36.2619L26.2904 35.3919L26.1404 35.4019L25.9104 36.2619L25.2904 38.7719ZM32.6366 41.1619C32.4299 41.1619 32.2099 41.1686 31.9766 41.1819C31.7499 41.1953 31.5199 41.2153 31.2866 41.2419C31.0532 41.2686 30.8232 41.3053 30.5966 41.3519C30.3766 41.3919 30.1766 41.4419 29.9966 41.5019C30.0366 41.2019 30.0832 40.8686 30.1366 40.5019C30.1899 40.1353 30.2499 39.7553 30.3166 39.3619C30.3899 38.9686 30.4599 38.5719 30.5266 38.1719C30.5999 37.7719 30.6732 37.3886 30.7466 37.0219C30.9132 36.1486 31.0899 35.2586 31.2766 34.3519L33.0266 34.1219C32.8466 34.8953 32.6732 35.6486 32.5066 36.3819C32.4332 36.6953 32.3599 37.0219 32.2866 37.3619C32.2132 37.6953 32.1432 38.0219 32.0766 38.3419C32.0099 38.6619 31.9499 38.9719 31.8966 39.2719C31.8432 39.5719 31.7999 39.8386 31.7666 40.0719C31.9332 40.0586 32.1099 40.0519 32.2966 40.0519C32.4899 40.0453 32.6599 40.0419 32.8066 40.0419C32.8132 40.1686 32.8232 40.2953 32.8366 40.4219C32.8499 40.5419 32.8632 40.6519 32.8766 40.7519C32.8966 40.8519 32.9099 40.9419 32.9166 41.0219C32.9299 41.0953 32.9399 41.1453 32.9466 41.1719C32.8932 41.1719 32.8399 41.1719 32.7866 41.1719C32.7399 41.1653 32.6899 41.1619 32.6366 41.1619ZM35.2641 41.4919C35.4641 40.5919 35.6541 39.7119 35.8341 38.8519C35.9075 38.4919 35.9841 38.1119 36.0641 37.7119C36.1441 37.3119 36.2208 36.9186 36.2941 36.5319C36.3675 36.1453 36.4375 35.7719 36.5041 35.4119C36.5708 35.0519 36.6275 34.7219 36.6741 34.4219C36.8675 34.3619 37.0575 34.3119 37.2441 34.2719C37.4308 34.2253 37.6208 34.1853 37.8141 34.1519C38.0141 34.1186 38.2008 34.1019 38.3741 34.1019C38.6741 34.1019 38.9241 34.1519 39.1241 34.2519C39.3308 34.3519 39.4975 34.4886 39.6241 34.6619C39.7508 34.8286 39.8408 35.0253 39.8941 35.2519C39.9475 35.4786 39.9741 35.7219 39.9741 35.9819C39.9741 36.3553 39.9041 36.7153 39.7641 37.0619C39.6308 37.4086 39.4475 37.7186 39.2141 37.9919C38.9875 38.2586 38.7241 38.4719 38.4241 38.6319C38.1308 38.7919 37.8241 38.8719 37.5041 38.8719H37.3941C37.3408 39.0986 37.2908 39.3453 37.2441 39.6119C37.1975 39.8786 37.1575 40.1253 37.1241 40.3519C37.0775 40.6186 37.0341 40.8853 36.9941 41.1519L35.2641 41.4919ZM38.0541 35.3119C37.9808 35.7519 37.9075 36.1686 37.8341 36.5619C37.7608 36.9553 37.6808 37.3753 37.5941 37.8219C37.7008 37.7953 37.8108 37.7353 37.9241 37.6419C38.0441 37.5419 38.1541 37.4153 38.2541 37.2619C38.3541 37.1019 38.4341 36.9186 38.4941 36.7119C38.5541 36.5053 38.5841 36.2886 38.5841 36.0619C38.5841 35.8153 38.5275 35.6286 38.4141 35.5019C38.3075 35.3753 38.1875 35.3119 38.0541 35.3119ZM41.5732 41.5019C41.7465 40.5819 41.9165 39.6786 42.0832 38.7919C42.1432 38.4186 42.2099 38.0319 42.2832 37.6319C42.3565 37.2253 42.4265 36.8253 42.4932 36.4319C42.5599 36.0386 42.6232 35.6586 42.6832 35.2919C42.7432 34.9186 42.7965 34.5786 42.8432 34.2719L44.4632 34.1619C44.3499 34.6286 44.2365 35.1153 44.1232 35.6219C44.0165 36.1286 43.9165 36.6219 43.8232 37.1019L44.8132 36.9919C44.9065 36.5186 44.9899 36.0619 45.0632 35.6219C45.1365 35.1753 45.2332 34.7153 45.3532 34.2419C45.5065 34.2153 45.6765 34.1953 45.8632 34.1819C46.0499 34.1619 46.2232 34.1453 46.3832 34.1319C46.5432 34.1186 46.6765 34.1086 46.7832 34.1019C46.8965 34.0886 46.9532 34.0819 46.9532 34.0819C46.8599 34.3819 46.7699 34.7119 46.6832 35.0719C46.6032 35.4253 46.5232 35.7953 46.4432 36.1819C46.3632 36.5619 46.2865 36.9486 46.2132 37.3419C46.1399 37.7353 46.0732 38.1086 46.0132 38.4619C45.8665 39.3086 45.7299 40.1753 45.6032 41.0619L44.0432 41.2419C44.1299 40.8419 44.2065 40.4519 44.2732 40.0719C44.3399 39.7519 44.4065 39.4186 44.4732 39.0719C44.5465 38.7253 44.6032 38.4286 44.6432 38.1819L43.6732 38.2719C43.6265 38.5253 43.5699 38.8186 43.5032 39.1519C43.4432 39.4853 43.3865 39.8019 43.3332 40.1019C43.2599 40.4619 43.1865 40.8219 43.1132 41.1819L41.5732 41.5019ZM51.987 41.2819C51.8204 41.3086 51.637 41.3386 51.437 41.3719C51.237 41.4053 51.057 41.4353 50.897 41.4619C50.9237 41.2419 50.9504 41.0253 50.977 40.8119C50.997 40.6253 51.0137 40.4386 51.027 40.2519C51.047 40.0653 51.0637 39.9053 51.077 39.7719H50.207L49.807 41.2119C49.6604 41.2319 49.487 41.2553 49.287 41.2819C49.087 41.3019 48.9004 41.3219 48.727 41.3419C48.5137 41.3686 48.3037 41.3953 48.097 41.4219C48.3637 40.5353 48.627 39.6619 48.887 38.8019C48.9937 38.4419 49.1037 38.0653 49.217 37.6719C49.337 37.2786 49.4537 36.8886 49.567 36.5019C49.687 36.1086 49.8004 35.7319 49.907 35.3719C50.0137 35.0119 50.107 34.6819 50.187 34.3819C50.6404 34.3486 51.1004 34.3086 51.567 34.2619C52.0404 34.2153 52.5004 34.1519 52.947 34.0719C52.927 34.2853 52.9037 34.5519 52.877 34.8719C52.857 35.1853 52.837 35.5286 52.817 35.9019C52.797 36.2753 52.777 36.6653 52.757 37.0719C52.737 37.4786 52.717 37.8786 52.697 38.2719C52.6637 39.1919 52.627 40.1686 52.587 41.2019C52.387 41.2353 52.187 41.2619 51.987 41.2819ZM50.447 38.7719C50.4737 38.7719 50.5204 38.7719 50.587 38.7719C50.6604 38.7653 50.7337 38.7619 50.807 38.7619C50.887 38.7553 50.9604 38.7519 51.027 38.7519C51.0937 38.7453 51.1404 38.7386 51.167 38.7319C51.167 38.6919 51.1704 38.6253 51.177 38.5319C51.1904 38.4319 51.2004 38.3219 51.207 38.2019C51.2204 38.0753 51.2337 37.9386 51.247 37.7919C51.2604 37.6453 51.2737 37.5019 51.287 37.3619C51.3137 37.0219 51.347 36.6553 51.387 36.2619L51.447 35.3919L51.297 35.4019L51.067 36.2619L50.447 38.7719Z" fill="white"/>
</svg>
