<svg width="77" height="46" viewBox="0 0 77 46" fill="none" xmlns="http://www.w3.org/2000/svg">
<path d="M8.27755 13.8898C9.59347 11.9548 10.8882 10.1776 12.1616 8.55819C13.4563 6.9177 14.6873 5.50856 15.8547 4.33078C17.022 3.15299 18.0939 2.2381 19.0702 1.58611C20.0465 0.934121 20.8955 0.608126 21.6171 0.608126C21.8931 0.608126 22.1902 0.713285 22.5086 0.923604C22.8482 1.13392 23.1559 1.40734 23.4318 1.74385C23.729 2.08036 23.9731 2.44842 24.1641 2.84802C24.3551 3.2266 24.4506 3.59466 24.4506 3.9522C23.1347 4.37284 21.84 4.93018 20.5665 5.62424C19.3143 6.29726 18.1045 7.08596 16.9371 7.99033C15.791 8.87367 14.6873 9.86217 13.6261 10.9558C12.5861 12.0495 11.6416 13.2168 10.7927 14.4576C11.1322 15.32 11.5461 16.2454 12.0343 17.2339C12.5437 18.2013 13.0955 19.1478 13.6898 20.0732C14.2841 20.9775 14.9208 21.8188 15.6 22.597C16.2792 23.3752 16.969 23.9956 17.6694 24.4583C17.5633 24.6897 17.3829 24.9105 17.1282 25.1208C16.8735 25.3311 16.5975 25.5204 16.3004 25.6887C16.0033 25.878 15.6849 26.0252 15.3453 26.1304C15.0269 26.2355 14.7298 26.2881 14.4539 26.2881C13.902 26.2881 13.3927 26.0252 12.9257 25.4994C12.4588 24.9946 11.9812 24.227 11.4931 23.1964C11.0261 22.1448 10.5273 20.8513 9.99673 19.316C9.48735 17.7597 8.91429 15.9509 8.27755 13.8898ZM3.4702 26.4458C2.66367 26.2566 1.9951 25.92 1.46449 25.4363C0.933878 24.9736 0.445714 24.3847 0 23.6696C0.19102 23.27 0.413878 22.7442 0.668572 22.0922C0.94449 21.4402 1.27347 20.641 1.65551 19.6946C2.03755 18.7271 2.49388 17.5809 3.02449 16.2559C3.5551 14.9098 4.17061 13.343 4.87102 11.5552C5.31674 10.4195 5.67755 9.46256 5.95347 8.68438C6.25061 7.9062 6.49469 7.14905 6.68571 6.41294C6.89796 5.65579 7.09959 4.82503 7.29061 3.92065C7.48163 3.01628 7.70449 1.87004 7.95918 0.481934C8.85061 0.650189 9.65714 1.03928 10.3788 1.64921C11.1216 2.25913 11.7584 2.99525 12.289 3.85756C12.0555 4.152 11.7796 4.60419 11.4612 5.21412C11.1641 5.80301 10.8245 6.51809 10.4424 7.35937C10.0604 8.20065 9.63592 9.13657 9.16898 10.1671C8.70204 11.1977 8.21388 12.2914 7.70449 13.4481C6.55837 15.9719 5.65633 18.2855 4.99837 20.3886C4.34041 22.4708 3.83102 24.4899 3.4702 26.4458Z" fill="white"/>
<path d="M19.1759 23.2595C19.282 22.6496 19.4624 21.8504 19.7171 20.8619C19.9931 19.8523 20.3114 18.7902 20.6722 17.6755C21.0331 16.5398 21.4151 15.4041 21.8184 14.2684C22.2216 13.1326 22.6143 12.1126 22.9963 11.2082C23.2722 10.5562 23.5163 10.0515 23.7286 9.69392C23.9408 9.31534 24.1743 8.99986 24.429 8.74748C24.7261 8.78954 25.0339 8.86315 25.3522 8.96831C25.6706 9.07347 25.9784 9.19966 26.2755 9.34689C26.5726 9.49411 26.838 9.65185 27.0714 9.82011C27.3049 9.96733 27.4853 10.1146 27.6126 10.2618C27.0396 10.9348 26.5302 11.7025 26.0845 12.5648C25.66 13.4271 25.2249 14.5313 24.7792 15.8773C25.9253 14.8678 26.9335 13.9003 27.8037 12.9749C28.6951 12.0495 29.5229 11.0189 30.2869 9.8832C30.4143 9.77804 30.6371 9.72546 30.9555 9.72546C31.2526 9.72546 31.5392 9.77804 31.8151 9.8832C32.091 9.96733 32.282 10.0935 32.3882 10.2618C32.0061 11.2713 31.8151 12.2703 31.8151 13.2588C31.8151 14.1842 31.9531 14.8783 32.229 15.341C32.2077 15.4672 32.0592 15.709 31.7833 16.0666C31.5286 16.4241 31.242 16.7606 30.9237 17.0761C30.3506 16.7817 29.8412 16.3821 29.3955 15.8773C28.9498 15.3515 28.6208 14.7836 28.4086 14.1737C27.411 14.8678 26.562 15.5513 25.8616 16.2243C25.1612 16.8763 24.5563 17.6124 24.0469 18.4327C23.5588 19.2319 23.1343 20.1573 22.7735 21.2089C22.4339 22.2605 22.1049 23.5119 21.7865 24.9631C21.5955 24.9421 21.362 24.8684 21.0861 24.7423C20.8314 24.6371 20.5661 24.5004 20.2902 24.3321C20.0355 24.1639 19.802 23.9851 19.5898 23.7958C19.3775 23.6065 19.2396 23.4278 19.1759 23.2595Z" fill="white"/>
<path d="M42.5861 10.8296C42.5012 12.1336 42.2677 13.2588 41.8857 14.2053C41.5037 15.1307 40.9518 15.9509 40.2302 16.666C39.5298 17.36 38.6702 17.991 37.6514 18.5589C36.6326 19.1267 35.4441 19.6736 34.0857 20.1994C34.0857 20.3255 34.0751 20.4623 34.0539 20.6095C34.0539 20.7357 34.0539 20.8724 34.0539 21.0196C34.0539 21.293 34.0751 21.5769 34.1175 21.8714C34.16 22.1658 34.2343 22.4393 34.3404 22.6916C34.4465 22.944 34.5951 23.1543 34.7861 23.3226C34.9771 23.4698 35.2212 23.5434 35.5184 23.5434C36.0914 23.5434 36.6539 23.4172 37.2057 23.1649C37.7575 22.9125 38.2775 22.6075 38.7657 22.25C39.2751 21.8714 39.742 21.4718 40.1665 21.0512C40.6122 20.6095 41.0049 20.2099 41.3445 19.8523C41.5567 20.0416 41.7371 20.2204 41.8857 20.3886C40.9306 21.6506 39.88 22.7022 38.7339 23.5434C37.609 24.3637 36.5371 24.8895 35.5184 25.1208C34.0539 24.9526 32.9077 24.4268 32.08 23.5434C31.2735 22.6391 30.8702 21.5559 30.8702 20.294C30.8702 19.4317 30.9869 18.5589 31.2204 17.6755C31.4751 16.7712 31.8147 15.9088 32.2392 15.0886C32.6849 14.2473 33.1943 13.4586 33.7673 12.7225C34.3616 11.9864 34.9877 11.3449 35.6457 10.7981C36.3249 10.2513 37.0147 9.82011 37.7151 9.50463C38.4367 9.18915 39.1477 9.03141 39.8482 9.03141C40.8245 9.1576 41.7371 9.75701 42.5861 10.8296ZM40.3894 11.8707C39.8163 11.9548 39.222 12.1862 38.6065 12.5648C37.991 12.9433 37.4073 13.4481 36.8555 14.0791C36.3249 14.71 35.8367 15.4461 35.391 16.2874C34.9453 17.1287 34.5951 18.0331 34.3404 19.0005C36.0384 18.1593 37.4498 17.1287 38.5747 15.9088C39.6996 14.668 40.3045 13.3219 40.3894 11.8707Z" fill="white"/>
<path d="M53.4519 11.1451C53.6641 11.1451 53.9082 11.1872 54.1841 11.2713C54.4813 11.3344 54.7466 11.429 54.98 11.5552C55.2135 11.6604 55.4045 11.7761 55.5531 11.9023C55.7229 12.0285 55.8078 12.1441 55.8078 12.2493C55.3833 13.1326 54.9907 14.0265 54.6298 14.9309C54.269 15.8142 53.9613 16.666 53.7066 17.4862C53.4519 18.3065 53.2503 19.0742 53.1017 19.7892C52.9743 20.5043 52.9107 21.1248 52.9107 21.6506C52.9107 22.2395 52.9743 22.7337 53.1017 23.1333C53.229 23.5119 53.4413 23.7853 53.7384 23.9536C53.4837 24.1218 53.1547 24.2585 52.7515 24.3637C52.3482 24.4688 51.9874 24.5214 51.669 24.5214C50.5229 24.5214 49.9498 23.7432 49.9498 22.1869C49.9498 20.9881 50.3531 19.3476 51.1596 17.2654C50.7352 18.2329 50.247 19.1478 49.6952 20.0101C49.1433 20.8513 48.5809 21.598 48.0078 22.25C47.4347 22.902 46.8511 23.4383 46.2568 23.8589C45.6837 24.2585 45.1531 24.5004 44.6649 24.5845C43.8796 24.5424 43.2429 24.1744 42.7547 23.4803C42.2666 22.7653 42.0225 21.8609 42.0225 20.7672C42.0225 19.5894 42.2772 18.3485 42.7866 17.0446C43.296 15.7406 43.9433 14.5313 44.7286 13.4166C45.5352 12.3019 46.4054 11.3765 47.3392 10.6404C48.2731 9.8832 49.1752 9.48359 50.0454 9.44153C50.2576 9.50463 50.4911 9.63082 50.7458 9.82011C51.0217 10.0094 51.2764 10.2302 51.5098 10.4826C51.7645 10.735 51.9768 10.9979 52.1466 11.2713C52.3164 11.5237 52.4119 11.7445 52.4331 11.9338C51.5841 12.06 50.7033 12.4701 49.7907 13.1642C48.8992 13.8582 48.0821 14.6995 47.3392 15.688C46.6176 16.6555 46.0233 17.6966 45.5564 18.8112C45.0894 19.9259 44.856 20.967 44.856 21.9345C44.856 22.3341 45.0045 22.5865 45.3017 22.6916C45.9172 22.5654 46.6282 22.0502 47.4347 21.1458C48.2413 20.2204 49.2176 18.8007 50.3637 16.8868C50.576 16.5083 50.8094 16.0876 51.0641 15.6249C51.34 15.1622 51.616 14.6785 51.8919 14.1737C52.1678 13.6689 52.4331 13.1642 52.6878 12.6594C52.9637 12.1336 53.2184 11.6289 53.4519 11.1451Z" fill="white"/>
<path d="M57.1808 11.8076C57.0746 11.6814 56.9791 11.4185 56.8942 11.0189C56.8093 10.5983 56.7669 10.2407 56.7669 9.9463C57.3187 9.98836 57.8493 10.0304 58.3587 10.0725C58.8681 10.0935 59.3351 10.1146 59.7595 10.1356C60.0779 9.50463 60.4175 8.88419 60.7783 8.27426C61.1604 7.6433 61.5212 7.07544 61.8608 6.57067C62.2216 6.04488 62.5506 5.60321 62.8477 5.24566C63.1661 4.88812 63.4102 4.65677 63.5799 4.55161C63.7922 4.55161 64.0575 4.59367 64.3759 4.6778C64.7155 4.7409 65.055 4.83554 65.3946 4.96173C65.7342 5.06689 66.042 5.18257 66.3179 5.30876C66.5938 5.43495 66.7849 5.56114 66.891 5.68733C66.2542 6.48655 65.7024 7.23318 65.2355 7.92723C64.7897 8.60025 64.3016 9.37844 63.771 10.2618C64.1955 10.2618 64.6199 10.2513 65.0444 10.2302C65.4902 10.2092 65.9359 10.1776 66.3816 10.1356C66.4877 10.2407 66.5726 10.3775 66.6363 10.5457C66.7 10.6929 66.7318 10.8507 66.7318 11.0189C65.6918 11.3975 64.4289 11.6078 62.9432 11.6499C62.4126 12.6594 61.9351 13.6689 61.5106 14.6785C61.1073 15.667 60.7571 16.6239 60.4599 17.5493C60.184 18.4747 59.9612 19.3476 59.7914 20.1678C59.6428 20.9881 59.5685 21.7242 59.5685 22.3762C59.5685 23.3016 59.9187 23.8168 60.6191 23.922C61.2559 23.8379 61.8608 23.6801 62.4338 23.4488C63.0069 23.2174 63.5163 22.923 63.962 22.5654C64.0893 22.7547 64.1636 22.9125 64.1848 23.0387C64.0575 23.228 63.8346 23.4488 63.5163 23.7012C63.2191 23.9536 62.8902 24.1954 62.5293 24.4268C62.1685 24.6792 61.8183 24.8895 61.4787 25.0577C61.1391 25.226 60.8844 25.3206 60.7146 25.3417C60.184 25.3206 59.6534 25.205 59.1228 24.9946C58.5922 24.7843 58.104 24.5214 57.6583 24.2059C57.2338 23.8905 56.8836 23.5434 56.6077 23.1649C56.3318 22.7653 56.1938 22.3762 56.1938 21.9976C56.1938 21.4928 56.2575 20.8619 56.3848 20.1047C56.5334 19.3265 56.7351 18.4853 56.9897 17.5809C57.2444 16.6765 57.5416 15.7301 57.8812 14.7416C58.2208 13.7531 58.5922 12.7751 58.9955 11.8076H57.1808Z" fill="white"/>
<path d="M76.3007 10.8296C76.2158 12.1336 75.9823 13.2588 75.6003 14.2053C75.2183 15.1307 74.6664 15.9509 73.9448 16.666C73.2444 17.36 72.3848 17.991 71.366 18.5589C70.3472 19.1267 69.1587 19.6736 67.8003 20.1994C67.8003 20.3255 67.7897 20.4623 67.7685 20.6095C67.7685 20.7357 67.7685 20.8724 67.7685 21.0196C67.7685 21.293 67.7897 21.5769 67.8321 21.8714C67.8746 22.1658 67.9489 22.4393 68.055 22.6916C68.1611 22.944 68.3097 23.1543 68.5007 23.3226C68.6917 23.4698 68.9358 23.5434 69.233 23.5434C69.806 23.5434 70.3685 23.4172 70.9203 23.1649C71.4721 22.9125 71.9921 22.6075 72.4803 22.25C72.9897 21.8714 73.4566 21.4718 73.8811 21.0512C74.3268 20.6095 74.7195 20.2099 75.0591 19.8523C75.2713 20.0416 75.4517 20.2204 75.6003 20.3886C74.6452 21.6506 73.5946 22.7022 72.4485 23.5434C71.3236 24.3637 70.2517 24.8895 69.233 25.1208C67.7685 24.9526 66.6223 24.4268 65.7946 23.5434C64.9881 22.6391 64.5848 21.5559 64.5848 20.294C64.5848 19.4317 64.7015 18.5589 64.935 17.6755C65.1897 16.7712 65.5293 15.9088 65.9538 15.0886C66.3995 14.2473 66.9089 13.4586 67.4819 12.7225C68.0762 11.9864 68.7023 11.3449 69.3603 10.7981C70.0395 10.2513 70.7293 9.82011 71.4297 9.50463C72.1513 9.18915 72.8624 9.03141 73.5628 9.03141C74.5391 9.1576 75.4517 9.75701 76.3007 10.8296ZM74.104 11.8707C73.5309 11.9548 72.9366 12.1862 72.3211 12.5648C71.7056 12.9433 71.1219 13.4481 70.5701 14.0791C70.0395 14.71 69.5513 15.4461 69.1056 16.2874C68.6599 17.1287 68.3097 18.0331 68.055 19.0005C69.753 18.1593 71.1644 17.1287 72.2893 15.9088C73.4142 14.668 74.0191 13.3219 74.104 11.8707Z" fill="white"/>
<path d="M0 42.4458C0 35.8184 5.37258 30.4458 12 30.4458H76.3007V33.4458C76.3007 40.0732 70.9281 45.4458 64.3007 45.4458H0V42.4458Z" fill="#F74055"/>
<path d="M26.8304 41.2458C26.6637 41.2725 26.4804 41.3025 26.2804 41.3358C26.0804 41.3691 25.9004 41.3991 25.7404 41.4258C25.7671 41.2058 25.7937 40.9891 25.8204 40.7758C25.8404 40.5891 25.8571 40.4025 25.8704 40.2158C25.8904 40.0291 25.9071 39.8691 25.9204 39.7358H25.0504L24.6504 41.1758C24.5037 41.1958 24.3304 41.2191 24.1304 41.2458C23.9304 41.2658 23.7437 41.2858 23.5704 41.3058C23.3571 41.3325 23.1471 41.3591 22.9404 41.3858C23.2071 40.4991 23.4704 39.6258 23.7304 38.7658C23.8371 38.4058 23.9471 38.0291 24.0604 37.6358C24.1804 37.2425 24.2971 36.8525 24.4104 36.4658C24.5304 36.0725 24.6437 35.6958 24.7504 35.3358C24.8571 34.9758 24.9504 34.6458 25.0304 34.3458C25.4837 34.3125 25.9437 34.2725 26.4104 34.2258C26.8837 34.1791 27.3437 34.1158 27.7904 34.0358C27.7704 34.2491 27.7471 34.5158 27.7204 34.8358C27.7004 35.1491 27.6804 35.4925 27.6604 35.8658C27.6404 36.2391 27.6204 36.6291 27.6004 37.0358C27.5804 37.4425 27.5604 37.8425 27.5404 38.2358C27.5071 39.1558 27.4704 40.1325 27.4304 41.1658C27.2304 41.1991 27.0304 41.2258 26.8304 41.2458ZM25.2904 38.7358C25.3171 38.7358 25.3637 38.7358 25.4304 38.7358C25.5037 38.7291 25.5771 38.7258 25.6504 38.7258C25.7304 38.7191 25.8037 38.7158 25.8704 38.7158C25.9371 38.7091 25.9837 38.7025 26.0104 38.6958C26.0104 38.6558 26.0137 38.5891 26.0204 38.4958C26.0337 38.3958 26.0437 38.2858 26.0504 38.1658C26.0637 38.0391 26.0771 37.9025 26.0904 37.7558C26.1037 37.6091 26.1171 37.4658 26.1304 37.3258C26.1571 36.9858 26.1904 36.6191 26.2304 36.2258L26.2904 35.3558L26.1404 35.3658L25.9104 36.2258L25.2904 38.7358ZM32.6366 41.1258C32.4299 41.1258 32.2099 41.1325 31.9766 41.1458C31.7499 41.1591 31.5199 41.1791 31.2866 41.2058C31.0532 41.2325 30.8232 41.2691 30.5966 41.3158C30.3766 41.3558 30.1766 41.4058 29.9966 41.4658C30.0366 41.1658 30.0832 40.8325 30.1366 40.4658C30.1899 40.0991 30.2499 39.7191 30.3166 39.3258C30.3899 38.9325 30.4599 38.5358 30.5266 38.1358C30.5999 37.7358 30.6732 37.3525 30.7466 36.9858C30.9132 36.1125 31.0899 35.2225 31.2766 34.3158L33.0266 34.0858C32.8466 34.8591 32.6732 35.6125 32.5066 36.3458C32.4332 36.6591 32.3599 36.9858 32.2866 37.3258C32.2132 37.6591 32.1432 37.9858 32.0766 38.3058C32.0099 38.6258 31.9499 38.9358 31.8966 39.2358C31.8432 39.5358 31.7999 39.8025 31.7666 40.0358C31.9332 40.0225 32.1099 40.0158 32.2966 40.0158C32.4899 40.0091 32.6599 40.0058 32.8066 40.0058C32.8132 40.1325 32.8232 40.2591 32.8366 40.3858C32.8499 40.5058 32.8632 40.6158 32.8766 40.7158C32.8966 40.8158 32.9099 40.9058 32.9166 40.9858C32.9299 41.0591 32.9399 41.1091 32.9466 41.1358C32.8932 41.1358 32.8399 41.1358 32.7866 41.1358C32.7399 41.1291 32.6899 41.1258 32.6366 41.1258ZM35.2641 41.4558C35.4641 40.5558 35.6541 39.6758 35.8341 38.8158C35.9075 38.4558 35.9841 38.0758 36.0641 37.6758C36.1441 37.2758 36.2208 36.8825 36.2941 36.4958C36.3675 36.1091 36.4375 35.7358 36.5041 35.3758C36.5708 35.0158 36.6275 34.6858 36.6741 34.3858C36.8675 34.3258 37.0575 34.2758 37.2441 34.2358C37.4308 34.1891 37.6208 34.1491 37.8141 34.1158C38.0141 34.0825 38.2008 34.0658 38.3741 34.0658C38.6741 34.0658 38.9241 34.1158 39.1241 34.2158C39.3308 34.3158 39.4975 34.4525 39.6241 34.6258C39.7508 34.7925 39.8408 34.9891 39.8941 35.2158C39.9475 35.4425 39.9741 35.6858 39.9741 35.9458C39.9741 36.3191 39.9041 36.6791 39.7641 37.0258C39.6308 37.3725 39.4475 37.6825 39.2141 37.9558C38.9875 38.2225 38.7241 38.4358 38.4241 38.5958C38.1308 38.7558 37.8241 38.8358 37.5041 38.8358H37.3941C37.3408 39.0625 37.2908 39.3091 37.2441 39.5758C37.1975 39.8425 37.1575 40.0891 37.1241 40.3158C37.0775 40.5825 37.0341 40.8491 36.9941 41.1158L35.2641 41.4558ZM38.0541 35.2758C37.9808 35.7158 37.9075 36.1325 37.8341 36.5258C37.7608 36.9191 37.6808 37.3391 37.5941 37.7858C37.7008 37.7591 37.8108 37.6991 37.9241 37.6058C38.0441 37.5058 38.1541 37.3791 38.2541 37.2258C38.3541 37.0658 38.4341 36.8825 38.4941 36.6758C38.5541 36.4691 38.5841 36.2525 38.5841 36.0258C38.5841 35.7791 38.5275 35.5925 38.4141 35.4658C38.3075 35.3391 38.1875 35.2758 38.0541 35.2758ZM41.5732 41.4658C41.7465 40.5458 41.9165 39.6425 42.0832 38.7558C42.1432 38.3825 42.2099 37.9958 42.2832 37.5958C42.3565 37.1891 42.4265 36.7891 42.4932 36.3958C42.5599 36.0025 42.6232 35.6225 42.6832 35.2558C42.7432 34.8825 42.7965 34.5425 42.8432 34.2358L44.4632 34.1258C44.3499 34.5925 44.2365 35.0791 44.1232 35.5858C44.0165 36.0925 43.9165 36.5858 43.8232 37.0658L44.8132 36.9558C44.9065 36.4825 44.9899 36.0258 45.0632 35.5858C45.1365 35.1391 45.2332 34.6791 45.3532 34.2058C45.5065 34.1791 45.6765 34.1591 45.8632 34.1458C46.0499 34.1258 46.2232 34.1091 46.3832 34.0958C46.5432 34.0825 46.6765 34.0725 46.7832 34.0658C46.8965 34.0525 46.9532 34.0458 46.9532 34.0458C46.8599 34.3458 46.7699 34.6758 46.6832 35.0358C46.6032 35.3891 46.5232 35.7591 46.4432 36.1458C46.3632 36.5258 46.2865 36.9125 46.2132 37.3058C46.1399 37.6991 46.0732 38.0725 46.0132 38.4258C45.8665 39.2725 45.7299 40.1391 45.6032 41.0258L44.0432 41.2058C44.1299 40.8058 44.2065 40.4158 44.2732 40.0358C44.3399 39.7158 44.4065 39.3825 44.4732 39.0358C44.5465 38.6891 44.6032 38.3925 44.6432 38.1458L43.6732 38.2358C43.6265 38.4891 43.5699 38.7825 43.5032 39.1158C43.4432 39.4491 43.3865 39.7658 43.3332 40.0658C43.2599 40.4258 43.1865 40.7858 43.1132 41.1458L41.5732 41.4658ZM51.987 41.2458C51.8204 41.2725 51.637 41.3025 51.437 41.3358C51.237 41.3691 51.057 41.3991 50.897 41.4258C50.9237 41.2058 50.9504 40.9891 50.977 40.7758C50.997 40.5891 51.0137 40.4025 51.027 40.2158C51.047 40.0291 51.0637 39.8691 51.077 39.7358H50.207L49.807 41.1758C49.6604 41.1958 49.487 41.2191 49.287 41.2458C49.087 41.2658 48.9004 41.2858 48.727 41.3058C48.5137 41.3325 48.3037 41.3591 48.097 41.3858C48.3637 40.4991 48.627 39.6258 48.887 38.7658C48.9937 38.4058 49.1037 38.0291 49.217 37.6358C49.337 37.2425 49.4537 36.8525 49.567 36.4658C49.687 36.0725 49.8004 35.6958 49.907 35.3358C50.0137 34.9758 50.107 34.6458 50.187 34.3458C50.6404 34.3125 51.1004 34.2725 51.567 34.2258C52.0404 34.1791 52.5004 34.1158 52.947 34.0358C52.927 34.2491 52.9037 34.5158 52.877 34.8358C52.857 35.1491 52.837 35.4925 52.817 35.8658C52.797 36.2391 52.777 36.6291 52.757 37.0358C52.737 37.4425 52.717 37.8425 52.697 38.2358C52.6637 39.1558 52.627 40.1325 52.587 41.1658C52.387 41.1991 52.187 41.2258 51.987 41.2458ZM50.447 38.7358C50.4737 38.7358 50.5204 38.7358 50.587 38.7358C50.6604 38.7291 50.7337 38.7258 50.807 38.7258C50.887 38.7191 50.9604 38.7158 51.027 38.7158C51.0937 38.7091 51.1404 38.7025 51.167 38.6958C51.167 38.6558 51.1704 38.5891 51.177 38.4958C51.1904 38.3958 51.2004 38.2858 51.207 38.1658C51.2204 38.0391 51.2337 37.9025 51.247 37.7558C51.2604 37.6091 51.2737 37.4658 51.287 37.3258C51.3137 36.9858 51.347 36.6191 51.387 36.2258L51.447 35.3558L51.297 35.3658L51.067 36.2258L50.447 38.7358Z" fill="white"/>
</svg>
