<svg width="77" height="46" viewBox="0 0 77 46" fill="none" xmlns="http://www.w3.org/2000/svg">
<path d="M8.27755 13.9259C9.59347 11.991 10.8882 10.2138 12.1616 8.59432C13.4563 6.95383 14.6873 5.5447 15.8547 4.36691C17.022 3.18912 18.0939 2.27423 19.0702 1.62224C20.0465 0.970253 20.8955 0.644259 21.6171 0.644259C21.8931 0.644259 22.1902 0.749418 22.5086 0.959737C22.8482 1.17006 23.1559 1.44347 23.4318 1.77998C23.729 2.11649 23.9731 2.48455 24.1641 2.88416C24.3551 3.26273 24.4506 3.63079 24.4506 3.98833C23.1347 4.40897 21.84 4.96632 20.5665 5.66037C19.3143 6.33339 18.1045 7.12209 16.9371 8.02646C15.791 8.9098 14.6873 9.8983 13.6261 10.992C12.5861 12.0856 11.6416 13.2529 10.7927 14.4938C11.1322 15.3561 11.5461 16.2815 12.0343 17.27C12.5437 18.2375 13.0955 19.1839 13.6898 20.1093C14.2841 21.0137 14.9208 21.8549 15.6 22.6331C16.2792 23.4113 16.969 24.0318 17.6694 24.4945C17.5633 24.7258 17.3829 24.9466 17.1282 25.157C16.8735 25.3673 16.5975 25.5566 16.3004 25.7248C16.0033 25.9141 15.6849 26.0613 15.3453 26.1665C15.0269 26.2717 14.7298 26.3242 14.4539 26.3242C13.902 26.3242 13.3927 26.0613 12.9257 25.5355C12.4588 25.0308 11.9812 24.2631 11.4931 23.2325C11.0261 22.1809 10.5273 20.8875 9.99673 19.3521C9.48735 17.7958 8.91429 15.987 8.27755 13.9259ZM3.4702 26.482C2.66367 26.2927 1.9951 25.9562 1.46449 25.4724C0.933878 25.0097 0.445714 24.4208 0 23.7058C0.19102 23.3062 0.413878 22.7804 0.668572 22.1284C0.94449 21.4764 1.27347 20.6772 1.65551 19.7307C2.03755 18.7633 2.49388 17.617 3.02449 16.292C3.5551 14.946 4.17061 13.3791 4.87102 11.5914C5.31674 10.4556 5.67755 9.4987 5.95347 8.72052C6.25061 7.94233 6.49469 7.18519 6.68571 6.44907C6.89796 5.69192 7.09959 4.86116 7.29061 3.95679C7.48163 3.05241 7.70449 1.90617 7.95918 0.518066C8.85061 0.686322 9.65714 1.07541 10.3788 1.68534C11.1216 2.29526 11.7584 3.03138 12.289 3.89369C12.0555 4.18814 11.7796 4.64032 11.4612 5.25025C11.1641 5.83914 10.8245 6.55423 10.4424 7.3955C10.0604 8.23678 9.63592 9.1727 9.16898 10.2033C8.70204 11.2338 8.21388 12.3275 7.70449 13.4842C6.55837 16.0081 5.65633 18.3216 4.99837 20.4248C4.34041 22.5069 3.83102 24.526 3.4702 26.482Z" fill="#222222"/>
<path d="M19.1759 23.2956C19.282 22.6857 19.4624 21.8865 19.7171 20.898C19.9931 19.8885 20.3114 18.8264 20.6722 17.7117C21.0331 16.5759 21.4151 15.4402 21.8184 14.3045C22.2216 13.1688 22.6143 12.1487 22.9963 11.2443C23.2722 10.5924 23.5163 10.0876 23.7286 9.73005C23.9408 9.35147 24.1743 9.03599 24.429 8.78361C24.7261 8.82568 25.0339 8.89929 25.3522 9.00445C25.6706 9.10961 25.9784 9.2358 26.2755 9.38302C26.5726 9.53024 26.838 9.68798 27.0714 9.85624C27.3049 10.0035 27.4853 10.1507 27.6126 10.2979C27.0396 10.9709 26.5302 11.7386 26.0845 12.6009C25.66 13.4632 25.2249 14.5674 24.7792 15.9134C25.9253 14.9039 26.9335 13.9364 27.8037 13.011C28.6951 12.0856 29.5229 11.0551 30.2869 9.91933C30.4143 9.81417 30.6371 9.76159 30.9555 9.76159C31.2526 9.76159 31.5392 9.81417 31.8151 9.91933C32.091 10.0035 32.282 10.1297 32.3882 10.2979C32.0061 11.3074 31.8151 12.3065 31.8151 13.295C31.8151 14.2204 31.9531 14.9144 32.229 15.3771C32.2077 15.5033 32.0592 15.7452 31.7833 16.1027C31.5286 16.4603 31.242 16.7968 30.9237 17.1123C30.3506 16.8178 29.8412 16.4182 29.3955 15.9134C28.9498 15.3876 28.6208 14.8198 28.4086 14.2098C27.411 14.9039 26.562 15.5874 25.8616 16.2605C25.1612 16.9124 24.5563 17.6486 24.0469 18.4688C23.5588 19.268 23.1343 20.1934 22.7735 21.245C22.4339 22.2966 22.1049 23.548 21.7865 24.9992C21.5955 24.9782 21.362 24.9046 21.0861 24.7784C20.8314 24.6732 20.5661 24.5365 20.2902 24.3683C20.0355 24.2 19.802 24.0212 19.5898 23.8319C19.3775 23.6427 19.2396 23.4639 19.1759 23.2956Z" fill="#222222"/>
<path d="M42.5861 10.8658C42.5012 12.1697 42.2677 13.295 41.8857 14.2414C41.5037 15.1668 40.9518 15.987 40.2302 16.7021C39.5298 17.3962 38.6702 18.0271 37.6514 18.595C36.6326 19.1629 35.4441 19.7097 34.0857 20.2355C34.0857 20.3617 34.0751 20.4984 34.0539 20.6456C34.0539 20.7718 34.0539 20.9085 34.0539 21.0557C34.0539 21.3292 34.0751 21.6131 34.1175 21.9075C34.16 22.202 34.2343 22.4754 34.3404 22.7278C34.4465 22.9802 34.5951 23.1905 34.7861 23.3587C34.9771 23.506 35.2212 23.5796 35.5184 23.5796C36.0914 23.5796 36.6539 23.4534 37.2057 23.201C37.7575 22.9486 38.2775 22.6436 38.7657 22.2861C39.2751 21.9075 39.742 21.5079 40.1665 21.0873C40.6122 20.6456 41.0049 20.246 41.3445 19.8885C41.5567 20.0778 41.7371 20.2565 41.8857 20.4248C40.9306 21.6867 39.88 22.7383 38.7339 23.5796C37.609 24.3998 36.5371 24.9256 35.5184 25.157C34.0539 24.9887 32.9077 24.4629 32.08 23.5796C31.2735 22.6752 30.8702 21.592 30.8702 20.3301C30.8702 19.4678 30.9869 18.595 31.2204 17.7117C31.4751 16.8073 31.8147 15.945 32.2392 15.1247C32.6849 14.2835 33.1943 13.4948 33.7673 12.7586C34.3616 12.0225 34.9877 11.3811 35.6457 10.8342C36.3249 10.2874 37.0147 9.85624 37.7151 9.54076C38.4367 9.22528 39.1477 9.06754 39.8482 9.06754C40.8245 9.19373 41.7371 9.79314 42.5861 10.8658ZM40.3894 11.9069C39.8163 11.991 39.222 12.2223 38.6065 12.6009C37.991 12.9795 37.4073 13.4842 36.8555 14.1152C36.3249 14.7462 35.8367 15.4823 35.391 16.3236C34.9453 17.1648 34.5951 18.0692 34.3404 19.0367C36.0384 18.1954 37.4498 17.1648 38.5747 15.945C39.6996 14.7041 40.3045 13.3581 40.3894 11.9069Z" fill="#222222"/>
<path d="M53.4519 11.1813C53.6641 11.1813 53.9082 11.2233 54.1841 11.3074C54.4813 11.3705 54.7466 11.4652 54.98 11.5914C55.2135 11.6965 55.4045 11.8122 55.5531 11.9384C55.7229 12.0646 55.8078 12.1803 55.8078 12.2854C55.3833 13.1688 54.9907 14.0626 54.6298 14.967C54.269 15.8503 53.9613 16.7021 53.7066 17.5224C53.4519 18.3426 53.2503 19.1103 53.1017 19.8254C52.9743 20.5405 52.9107 21.1609 52.9107 21.6867C52.9107 22.2756 52.9743 22.7698 53.1017 23.1694C53.229 23.548 53.4413 23.8214 53.7384 23.9897C53.4837 24.1579 53.1547 24.2946 52.7515 24.3998C52.3482 24.505 51.9874 24.5575 51.669 24.5575C50.5229 24.5575 49.9498 23.7794 49.9498 22.223C49.9498 21.0242 50.3531 19.3837 51.1596 17.3015C50.7352 18.269 50.247 19.1839 49.6952 20.0462C49.1433 20.8875 48.5809 21.6341 48.0078 22.2861C47.4347 22.9381 46.8511 23.4744 46.2568 23.895C45.6837 24.2946 45.1531 24.5365 44.6649 24.6206C43.8796 24.5786 43.2429 24.2105 42.7547 23.5165C42.2666 22.8014 42.0225 21.897 42.0225 20.8034C42.0225 19.6256 42.2772 18.3847 42.7866 17.0807C43.296 15.7767 43.9433 14.5674 44.7286 13.4527C45.5352 12.338 46.4054 11.4126 47.3392 10.6765C48.2731 9.91933 49.1752 9.51973 50.0454 9.47766C50.2576 9.54076 50.4911 9.66695 50.7458 9.85624C51.0217 10.0455 51.2764 10.2664 51.5098 10.5187C51.7645 10.7711 51.9768 11.034 52.1466 11.3074C52.3164 11.5598 52.4119 11.7807 52.4331 11.9699C51.5841 12.0961 50.7033 12.5063 49.7907 13.2003C48.8992 13.8944 48.0821 14.7356 47.3392 15.7241C46.6176 16.6916 46.0233 17.7327 45.5564 18.8474C45.0894 19.9621 44.856 21.0032 44.856 21.9706C44.856 22.3702 45.0045 22.6226 45.3017 22.7278C45.9172 22.6016 46.6282 22.0863 47.4347 21.1819C48.2413 20.2565 49.2176 18.8369 50.3637 16.923C50.576 16.5444 50.8094 16.1238 51.0641 15.661C51.34 15.1983 51.616 14.7146 51.8919 14.2098C52.1678 13.7051 52.4331 13.2003 52.6878 12.6955C52.9637 12.1698 53.2184 11.665 53.4519 11.1813Z" fill="#222222"/>
<path d="M57.1808 11.8438C57.0746 11.7176 56.9791 11.4547 56.8942 11.0551C56.8093 10.6344 56.7669 10.2769 56.7669 9.98243C57.3187 10.0245 57.8493 10.0666 58.3587 10.1086C58.8681 10.1297 59.3351 10.1507 59.7595 10.1717C60.0779 9.54076 60.4175 8.92032 60.7783 8.31039C61.1604 7.67943 61.5212 7.11157 61.8608 6.60681C62.2216 6.08101 62.5506 5.63934 62.8477 5.2818C63.1661 4.92425 63.4102 4.6929 63.5799 4.58774C63.7922 4.58774 64.0575 4.62981 64.3759 4.71393C64.7155 4.77703 65.055 4.87168 65.3946 4.99787C65.7342 5.10303 66.042 5.2187 66.3179 5.34489C66.5938 5.47108 66.7849 5.59727 66.891 5.72347C66.2542 6.52268 65.7024 7.26931 65.2355 7.96337C64.7897 8.63639 64.3016 9.41457 63.771 10.2979C64.1955 10.2979 64.6199 10.2874 65.0444 10.2664C65.4902 10.2453 65.9359 10.2138 66.3816 10.1717C66.4877 10.2769 66.5726 10.4136 66.6363 10.5818C66.7 10.7291 66.7318 10.8868 66.7318 11.0551C65.6918 11.4336 64.4289 11.644 62.9432 11.686C62.4126 12.6955 61.9351 13.7051 61.5106 14.7146C61.1073 15.7031 60.7571 16.6601 60.4599 17.5855C60.184 18.5109 59.9612 19.3837 59.7914 20.2039C59.6428 21.0242 59.5685 21.7603 59.5685 22.4123C59.5685 23.3377 59.9187 23.853 60.6191 23.9581C61.2559 23.874 61.8608 23.7163 62.4338 23.4849C63.0069 23.2536 63.5163 22.9591 63.962 22.6016C64.0893 22.7909 64.1636 22.9486 64.1848 23.0748C64.0575 23.2641 63.8346 23.4849 63.5163 23.7373C63.2191 23.9897 62.8902 24.2316 62.5293 24.4629C62.1685 24.7153 61.8183 24.9256 61.4787 25.0939C61.1391 25.2621 60.8844 25.3568 60.7146 25.3778C60.184 25.3568 59.6534 25.2411 59.1228 25.0308C58.5922 24.8204 58.104 24.5576 57.6583 24.2421C57.2338 23.9266 56.8836 23.5796 56.6077 23.201C56.3318 22.8014 56.1938 22.4123 56.1938 22.0337C56.1938 21.529 56.2575 20.898 56.3848 20.1408C56.5334 19.3627 56.7351 18.5214 56.9897 17.617C57.2444 16.7126 57.5416 15.7662 57.8812 14.7777C58.2208 13.7892 58.5922 12.8112 58.9955 11.8438H57.1808Z" fill="#222222"/>
<path d="M76.3007 10.8658C76.2158 12.1697 75.9823 13.295 75.6003 14.2414C75.2183 15.1668 74.6664 15.987 73.9448 16.7021C73.2444 17.3962 72.3848 18.0271 71.366 18.595C70.3472 19.1629 69.1587 19.7097 67.8003 20.2355C67.8003 20.3617 67.7897 20.4984 67.7685 20.6456C67.7685 20.7718 67.7685 20.9085 67.7685 21.0557C67.7685 21.3292 67.7897 21.6131 67.8321 21.9075C67.8746 22.202 67.9489 22.4754 68.055 22.7278C68.1611 22.9802 68.3097 23.1905 68.5007 23.3587C68.6917 23.506 68.9358 23.5796 69.233 23.5796C69.806 23.5796 70.3685 23.4534 70.9203 23.201C71.4721 22.9486 71.9921 22.6436 72.4803 22.2861C72.9897 21.9075 73.4566 21.5079 73.8811 21.0873C74.3268 20.6456 74.7195 20.246 75.0591 19.8885C75.2713 20.0778 75.4517 20.2565 75.6003 20.4248C74.6452 21.6867 73.5946 22.7383 72.4485 23.5796C71.3236 24.3998 70.2517 24.9256 69.233 25.157C67.7685 24.9887 66.6223 24.4629 65.7946 23.5796C64.9881 22.6752 64.5848 21.592 64.5848 20.3301C64.5848 19.4678 64.7015 18.595 64.935 17.7117C65.1897 16.8073 65.5293 15.945 65.9538 15.1247C66.3995 14.2835 66.9089 13.4948 67.4819 12.7586C68.0762 12.0225 68.7023 11.3811 69.3603 10.8342C70.0395 10.2874 70.7293 9.85624 71.4297 9.54076C72.1513 9.22528 72.8624 9.06754 73.5628 9.06754C74.5391 9.19373 75.4517 9.79314 76.3007 10.8658ZM74.104 11.9069C73.5309 11.991 72.9366 12.2223 72.3211 12.6009C71.7056 12.9795 71.1219 13.4842 70.5701 14.1152C70.0395 14.7462 69.5513 15.4823 69.1056 16.3236C68.6599 17.1648 68.3097 18.0692 68.055 19.0367C69.753 18.1954 71.1644 17.1648 72.2893 15.945C73.4142 14.7041 74.0191 13.3581 74.104 11.9069Z" fill="#222222"/>
<path d="M0 42.4819C0 35.8545 5.37258 30.4819 12 30.4819H76.3007V33.4819C76.3007 40.1094 70.9281 45.4819 64.3007 45.4819H0V42.4819Z" fill="#FF7A00"/>
<path d="M31.1704 38.9719C31.1704 39.2453 31.1137 39.4986 31.0004 39.7319C30.8871 39.9653 30.7337 40.1786 30.5404 40.3719C30.3471 40.5586 30.1204 40.7253 29.8604 40.8719C29.6071 41.0119 29.3371 41.1319 29.0504 41.2319C28.7704 41.3253 28.4804 41.3986 28.1804 41.4519C27.8871 41.4986 27.6037 41.5219 27.3304 41.5219C27.0837 41.5219 26.8537 41.5019 26.6404 41.4619C26.9604 40.2953 27.2137 39.1219 27.4004 37.9419C27.5937 36.7553 27.7771 35.5619 27.9504 34.3619C28.2971 34.2886 28.6571 34.2253 29.0304 34.1719C29.4037 34.1119 29.7904 34.0819 30.1904 34.0819C30.3571 34.0819 30.5337 34.1019 30.7204 34.1419C30.9071 34.1819 31.0771 34.2553 31.2304 34.3619C31.3837 34.4686 31.5104 34.6086 31.6104 34.7819C31.7171 34.9553 31.7704 35.1753 31.7704 35.4419C31.7704 35.6953 31.7271 35.9319 31.6404 36.1519C31.5604 36.3719 31.4537 36.5719 31.3204 36.7519C31.1937 36.9319 31.0471 37.0886 30.8804 37.2219C30.7137 37.3486 30.5437 37.4453 30.3704 37.5119C30.4571 37.5586 30.5471 37.6253 30.6404 37.7119C30.7337 37.7986 30.8204 37.9019 30.9004 38.0219C30.9804 38.1353 31.0437 38.2719 31.0904 38.4319C31.1437 38.5919 31.1704 38.7719 31.1704 38.9719ZM28.8804 37.9319C28.8537 38.0919 28.8271 38.2353 28.8004 38.3619C28.7804 38.4819 28.7604 38.5986 28.7404 38.7119C28.7204 38.8253 28.6971 38.9453 28.6704 39.0719C28.6504 39.1919 28.6271 39.3353 28.6004 39.5019C28.7271 39.4886 28.8704 39.4653 29.0304 39.4319C29.1904 39.3986 29.3437 39.3486 29.4904 39.2819C29.6371 39.2086 29.7604 39.1153 29.8604 39.0019C29.9604 38.8819 30.0104 38.7386 30.0104 38.5719C30.0104 38.4519 29.9771 38.3519 29.9104 38.2719C29.8504 38.1919 29.7704 38.1253 29.6704 38.0719C29.5771 38.0186 29.4737 37.9819 29.3604 37.9619C29.2471 37.9353 29.1404 37.9219 29.0404 37.9219C29.0071 37.9219 28.9771 37.9219 28.9504 37.9219C28.9304 37.9219 28.9071 37.9253 28.8804 37.9319ZM29.3304 35.5119C29.3171 35.5853 29.3004 35.6719 29.2804 35.7719C29.2671 35.8719 29.2504 35.9786 29.2304 36.0919C29.2104 36.1986 29.1871 36.3053 29.1604 36.4119C29.1404 36.5186 29.1237 36.6119 29.1104 36.6919C29.2571 36.6653 29.4037 36.6286 29.5504 36.5819C29.6971 36.5353 29.8271 36.4853 29.9404 36.4319C30.0604 36.3719 30.1537 36.3086 30.2204 36.2419C30.2937 36.1753 30.3304 36.1019 30.3304 36.0219C30.3304 35.9219 30.3004 35.8419 30.2404 35.7819C30.1804 35.7153 30.1004 35.6619 30.0004 35.6219C29.9071 35.5819 29.8071 35.5553 29.7004 35.5419C29.6004 35.5219 29.5104 35.5119 29.4304 35.5119H29.3304ZM33.4077 41.4919L34.7177 34.3819L37.8777 34.1119C37.8311 34.2586 37.7911 34.4086 37.7577 34.5619C37.7244 34.6886 37.6911 34.8219 37.6577 34.9619C37.6311 35.0953 37.6077 35.2153 37.5877 35.3219C37.5211 35.3286 37.4244 35.3353 37.2977 35.3419C37.1777 35.3419 37.0477 35.3453 36.9077 35.3519C36.7677 35.3519 36.6244 35.3519 36.4777 35.3519C36.3377 35.3519 36.2144 35.3519 36.1077 35.3519L35.7577 37.1419C35.9644 37.1286 36.1577 37.1186 36.3377 37.1119C36.4844 37.1053 36.6344 37.1019 36.7877 37.1019C36.9411 37.1019 37.0544 37.0986 37.1277 37.0919C37.1011 37.2786 37.0744 37.4619 37.0477 37.6419C37.0277 37.8219 37.0011 38.0053 36.9677 38.1919C36.9011 38.1986 36.7911 38.2053 36.6377 38.2119C36.4911 38.2119 36.3411 38.2153 36.1877 38.2219C36.0144 38.2286 35.8244 38.2353 35.6177 38.2419L35.2777 40.0819L36.7377 39.8519L36.6377 40.9919L33.4077 41.4919ZM40.0359 41.4919C40.1893 40.7586 40.3359 40.0353 40.4759 39.3219C40.5359 39.0219 40.5959 38.7086 40.6559 38.3819C40.7159 38.0553 40.7726 37.7353 40.8259 37.4219C40.8859 37.1019 40.9359 36.7953 40.9759 36.5019C41.0226 36.2019 41.0626 35.9286 41.0959 35.6819C40.9426 35.6619 40.7859 35.6553 40.6259 35.6619C40.4726 35.6686 40.3193 35.6486 40.1659 35.6019C40.1726 35.4953 40.1759 35.3719 40.1759 35.2319C40.1759 35.0919 40.1793 34.9519 40.1859 34.8119C40.1926 34.6586 40.1993 34.4953 40.2059 34.3219C40.3793 34.3353 40.5526 34.3453 40.7259 34.3519C40.8993 34.3586 41.0726 34.3619 41.2459 34.3619C41.5859 34.3619 41.9126 34.3553 42.2259 34.3419C42.5459 34.3219 42.8393 34.3019 43.1059 34.2819C43.3793 34.2553 43.6459 34.2253 43.9059 34.1919L43.7959 34.7319C43.7626 34.8853 43.7293 35.0419 43.6959 35.2019C43.6693 35.3619 43.6426 35.4986 43.6159 35.6119C43.4693 35.6519 43.3193 35.6819 43.1659 35.7019C43.0193 35.7153 42.8726 35.7353 42.7259 35.7619C42.6793 35.9886 42.6293 36.2419 42.5759 36.5219C42.5226 36.7953 42.4693 37.0819 42.4159 37.3819C42.3693 37.6753 42.3226 37.9753 42.2759 38.2819C42.2293 38.5886 42.1826 38.8819 42.1359 39.1619C42.0293 39.8219 41.9293 40.5053 41.8359 41.2119L40.0359 41.4919ZM48.6241 41.2819C48.4575 41.3086 48.2741 41.3386 48.0741 41.3719C47.8741 41.4053 47.6941 41.4353 47.5341 41.4619C47.5608 41.2419 47.5875 41.0253 47.6141 40.8119C47.6341 40.6253 47.6508 40.4386 47.6641 40.2519C47.6841 40.0653 47.7008 39.9053 47.7141 39.7719H46.8441L46.4441 41.2119C46.2975 41.2319 46.1241 41.2553 45.9241 41.2819C45.7241 41.3019 45.5375 41.3219 45.3641 41.3419C45.1508 41.3686 44.9408 41.3953 44.7341 41.4219C45.0008 40.5353 45.2641 39.6619 45.5241 38.8019C45.6308 38.4419 45.7408 38.0653 45.8541 37.6719C45.9741 37.2786 46.0908 36.8886 46.2041 36.5019C46.3241 36.1086 46.4375 35.7319 46.5441 35.3719C46.6508 35.0119 46.7441 34.6819 46.8241 34.3819C47.2775 34.3486 47.7375 34.3086 48.2041 34.2619C48.6775 34.2153 49.1375 34.1519 49.5841 34.0719C49.5641 34.2853 49.5408 34.5519 49.5141 34.8719C49.4941 35.1853 49.4741 35.5286 49.4541 35.9019C49.4341 36.2753 49.4141 36.6653 49.3941 37.0719C49.3741 37.4786 49.3541 37.8786 49.3341 38.2719C49.3008 39.1919 49.2641 40.1686 49.2241 41.2019C49.0241 41.2353 48.8241 41.2619 48.6241 41.2819ZM47.0841 38.7719C47.1108 38.7719 47.1575 38.7719 47.2241 38.7719C47.2975 38.7653 47.3708 38.7619 47.4441 38.7619C47.5241 38.7553 47.5975 38.7519 47.6641 38.7519C47.7308 38.7453 47.7775 38.7386 47.8041 38.7319C47.8041 38.6919 47.8075 38.6253 47.8141 38.5319C47.8275 38.4319 47.8375 38.3219 47.8441 38.2019C47.8575 38.0753 47.8708 37.9386 47.8841 37.7919C47.8975 37.6453 47.9108 37.5019 47.9241 37.3619C47.9508 37.0219 47.9841 36.6553 48.0241 36.2619L48.0841 35.3919L47.9341 35.4019L47.7041 36.2619L47.0841 38.7719Z" fill="white"/>
</svg>
