<svg width="77" height="46" viewBox="0 0 77 46" fill="none" xmlns="http://www.w3.org/2000/svg">
<path d="M8.27755 13.8898C9.59347 11.9548 10.8882 10.1776 12.1616 8.55819C13.4563 6.9177 14.6873 5.50856 15.8547 4.33078C17.022 3.15299 18.0939 2.2381 19.0702 1.58611C20.0465 0.934121 20.8955 0.608126 21.6171 0.608126C21.8931 0.608126 22.1902 0.713285 22.5086 0.923604C22.8482 1.13392 23.1559 1.40734 23.4318 1.74385C23.729 2.08036 23.9731 2.44842 24.1641 2.84802C24.3551 3.2266 24.4506 3.59466 24.4506 3.9522C23.1347 4.37284 21.84 4.93018 20.5665 5.62424C19.3143 6.29726 18.1045 7.08596 16.9371 7.99033C15.791 8.87367 14.6873 9.86217 13.6261 10.9558C12.5861 12.0495 11.6416 13.2168 10.7927 14.4576C11.1322 15.32 11.5461 16.2454 12.0343 17.2339C12.5437 18.2013 13.0955 19.1478 13.6898 20.0732C14.2841 20.9775 14.9208 21.8188 15.6 22.597C16.2792 23.3752 16.969 23.9956 17.6694 24.4583C17.5633 24.6897 17.3829 24.9105 17.1282 25.1208C16.8735 25.3311 16.5975 25.5204 16.3004 25.6887C16.0033 25.878 15.6849 26.0252 15.3453 26.1304C15.0269 26.2355 14.7298 26.2881 14.4539 26.2881C13.902 26.2881 13.3927 26.0252 12.9257 25.4994C12.4588 24.9946 11.9812 24.227 11.4931 23.1964C11.0261 22.1448 10.5273 20.8513 9.99673 19.316C9.48735 17.7597 8.91429 15.9509 8.27755 13.8898ZM3.4702 26.4458C2.66367 26.2566 1.9951 25.92 1.46449 25.4363C0.933878 24.9736 0.445714 24.3847 0 23.6696C0.19102 23.27 0.413878 22.7442 0.668572 22.0922C0.94449 21.4402 1.27347 20.641 1.65551 19.6946C2.03755 18.7271 2.49388 17.5809 3.02449 16.2559C3.5551 14.9098 4.17061 13.343 4.87102 11.5552C5.31674 10.4195 5.67755 9.46256 5.95347 8.68438C6.25061 7.9062 6.49469 7.14905 6.68571 6.41294C6.89796 5.65579 7.09959 4.82503 7.29061 3.92065C7.48163 3.01628 7.70449 1.87004 7.95918 0.481934C8.85061 0.650189 9.65714 1.03928 10.3788 1.64921C11.1216 2.25913 11.7584 2.99525 12.289 3.85756C12.0555 4.152 11.7796 4.60419 11.4612 5.21412C11.1641 5.80301 10.8245 6.51809 10.4424 7.35937C10.0604 8.20065 9.63592 9.13657 9.16898 10.1671C8.70204 11.1977 8.21388 12.2914 7.70449 13.4481C6.55837 15.9719 5.65633 18.2855 4.99837 20.3886C4.34041 22.4708 3.83102 24.4899 3.4702 26.4458Z" fill="white"/>
<path d="M19.1759 23.2595C19.282 22.6496 19.4624 21.8504 19.7171 20.8619C19.9931 19.8523 20.3114 18.7902 20.6722 17.6755C21.0331 16.5398 21.4151 15.4041 21.8184 14.2684C22.2216 13.1326 22.6143 12.1126 22.9963 11.2082C23.2722 10.5562 23.5163 10.0515 23.7286 9.69392C23.9408 9.31534 24.1743 8.99986 24.429 8.74748C24.7261 8.78954 25.0339 8.86315 25.3522 8.96831C25.6706 9.07347 25.9784 9.19966 26.2755 9.34689C26.5726 9.49411 26.838 9.65185 27.0714 9.82011C27.3049 9.96733 27.4853 10.1146 27.6126 10.2618C27.0396 10.9348 26.5302 11.7025 26.0845 12.5648C25.66 13.4271 25.2249 14.5313 24.7792 15.8773C25.9253 14.8678 26.9335 13.9003 27.8037 12.9749C28.6951 12.0495 29.5229 11.0189 30.2869 9.8832C30.4143 9.77804 30.6371 9.72546 30.9555 9.72546C31.2526 9.72546 31.5392 9.77804 31.8151 9.8832C32.091 9.96733 32.282 10.0935 32.3882 10.2618C32.0061 11.2713 31.8151 12.2703 31.8151 13.2588C31.8151 14.1842 31.9531 14.8783 32.229 15.341C32.2077 15.4672 32.0592 15.709 31.7833 16.0666C31.5286 16.4241 31.242 16.7606 30.9237 17.0761C30.3506 16.7817 29.8412 16.3821 29.3955 15.8773C28.9498 15.3515 28.6208 14.7836 28.4086 14.1737C27.411 14.8678 26.562 15.5513 25.8616 16.2243C25.1612 16.8763 24.5563 17.6124 24.0469 18.4327C23.5588 19.2319 23.1343 20.1573 22.7735 21.2089C22.4339 22.2605 22.1049 23.5119 21.7865 24.9631C21.5955 24.9421 21.362 24.8684 21.0861 24.7423C20.8314 24.6371 20.5661 24.5004 20.2902 24.3321C20.0355 24.1639 19.802 23.9851 19.5898 23.7958C19.3775 23.6065 19.2396 23.4278 19.1759 23.2595Z" fill="white"/>
<path d="M42.5861 10.8296C42.5012 12.1336 42.2677 13.2588 41.8857 14.2053C41.5037 15.1307 40.9518 15.9509 40.2302 16.666C39.5298 17.36 38.6702 17.991 37.6514 18.5589C36.6326 19.1267 35.4441 19.6736 34.0857 20.1994C34.0857 20.3255 34.0751 20.4623 34.0539 20.6095C34.0539 20.7357 34.0539 20.8724 34.0539 21.0196C34.0539 21.293 34.0751 21.5769 34.1175 21.8714C34.16 22.1658 34.2343 22.4393 34.3404 22.6916C34.4465 22.944 34.5951 23.1543 34.7861 23.3226C34.9771 23.4698 35.2212 23.5434 35.5184 23.5434C36.0914 23.5434 36.6539 23.4172 37.2057 23.1649C37.7575 22.9125 38.2775 22.6075 38.7657 22.25C39.2751 21.8714 39.742 21.4718 40.1665 21.0512C40.6122 20.6095 41.0049 20.2099 41.3445 19.8523C41.5567 20.0416 41.7371 20.2204 41.8857 20.3886C40.9306 21.6506 39.88 22.7022 38.7339 23.5434C37.609 24.3637 36.5371 24.8895 35.5184 25.1208C34.0539 24.9526 32.9077 24.4268 32.08 23.5434C31.2735 22.6391 30.8702 21.5559 30.8702 20.294C30.8702 19.4317 30.9869 18.5589 31.2204 17.6755C31.4751 16.7712 31.8147 15.9088 32.2392 15.0886C32.6849 14.2473 33.1943 13.4586 33.7673 12.7225C34.3616 11.9864 34.9877 11.3449 35.6457 10.7981C36.3249 10.2513 37.0147 9.82011 37.7151 9.50463C38.4367 9.18915 39.1477 9.03141 39.8482 9.03141C40.8245 9.1576 41.7371 9.75701 42.5861 10.8296ZM40.3894 11.8707C39.8163 11.9548 39.222 12.1862 38.6065 12.5648C37.991 12.9433 37.4073 13.4481 36.8555 14.0791C36.3249 14.71 35.8367 15.4461 35.391 16.2874C34.9453 17.1287 34.5951 18.0331 34.3404 19.0005C36.0384 18.1593 37.4498 17.1287 38.5747 15.9088C39.6996 14.668 40.3045 13.3219 40.3894 11.8707Z" fill="white"/>
<path d="M53.4519 11.1451C53.6641 11.1451 53.9082 11.1872 54.1841 11.2713C54.4813 11.3344 54.7466 11.429 54.98 11.5552C55.2135 11.6604 55.4045 11.7761 55.5531 11.9023C55.7229 12.0285 55.8078 12.1441 55.8078 12.2493C55.3833 13.1326 54.9907 14.0265 54.6298 14.9309C54.269 15.8142 53.9613 16.666 53.7066 17.4862C53.4519 18.3065 53.2503 19.0742 53.1017 19.7892C52.9743 20.5043 52.9107 21.1248 52.9107 21.6506C52.9107 22.2395 52.9743 22.7337 53.1017 23.1333C53.229 23.5119 53.4413 23.7853 53.7384 23.9536C53.4837 24.1218 53.1547 24.2585 52.7515 24.3637C52.3482 24.4688 51.9874 24.5214 51.669 24.5214C50.5229 24.5214 49.9498 23.7432 49.9498 22.1869C49.9498 20.9881 50.3531 19.3476 51.1596 17.2654C50.7352 18.2329 50.247 19.1478 49.6952 20.0101C49.1433 20.8513 48.5809 21.598 48.0078 22.25C47.4347 22.902 46.8511 23.4383 46.2568 23.8589C45.6837 24.2585 45.1531 24.5004 44.6649 24.5845C43.8796 24.5424 43.2429 24.1744 42.7547 23.4803C42.2666 22.7653 42.0225 21.8609 42.0225 20.7672C42.0225 19.5894 42.2772 18.3485 42.7866 17.0446C43.296 15.7406 43.9433 14.5313 44.7286 13.4166C45.5352 12.3019 46.4054 11.3765 47.3392 10.6404C48.2731 9.8832 49.1752 9.48359 50.0454 9.44153C50.2576 9.50463 50.4911 9.63082 50.7458 9.82011C51.0217 10.0094 51.2764 10.2302 51.5098 10.4826C51.7645 10.735 51.9768 10.9979 52.1466 11.2713C52.3164 11.5237 52.4119 11.7445 52.4331 11.9338C51.5841 12.06 50.7033 12.4701 49.7907 13.1642C48.8992 13.8582 48.0821 14.6995 47.3392 15.688C46.6176 16.6555 46.0233 17.6966 45.5564 18.8112C45.0894 19.9259 44.856 20.967 44.856 21.9345C44.856 22.3341 45.0045 22.5865 45.3017 22.6916C45.9172 22.5654 46.6282 22.0502 47.4347 21.1458C48.2413 20.2204 49.2176 18.8007 50.3637 16.8868C50.576 16.5083 50.8094 16.0876 51.0641 15.6249C51.34 15.1622 51.616 14.6785 51.8919 14.1737C52.1678 13.6689 52.4331 13.1642 52.6878 12.6594C52.9637 12.1336 53.2184 11.6289 53.4519 11.1451Z" fill="white"/>
<path d="M57.1808 11.8076C57.0746 11.6814 56.9791 11.4185 56.8942 11.0189C56.8093 10.5983 56.7669 10.2407 56.7669 9.9463C57.3187 9.98836 57.8493 10.0304 58.3587 10.0725C58.8681 10.0935 59.3351 10.1146 59.7595 10.1356C60.0779 9.50463 60.4175 8.88419 60.7783 8.27426C61.1604 7.6433 61.5212 7.07544 61.8608 6.57067C62.2216 6.04488 62.5506 5.60321 62.8477 5.24566C63.1661 4.88812 63.4102 4.65677 63.5799 4.55161C63.7922 4.55161 64.0575 4.59367 64.3759 4.6778C64.7155 4.7409 65.055 4.83554 65.3946 4.96173C65.7342 5.06689 66.042 5.18257 66.3179 5.30876C66.5938 5.43495 66.7849 5.56114 66.891 5.68733C66.2542 6.48655 65.7024 7.23318 65.2355 7.92723C64.7897 8.60025 64.3016 9.37844 63.771 10.2618C64.1955 10.2618 64.6199 10.2513 65.0444 10.2302C65.4902 10.2092 65.9359 10.1776 66.3816 10.1356C66.4877 10.2407 66.5726 10.3775 66.6363 10.5457C66.7 10.6929 66.7318 10.8507 66.7318 11.0189C65.6918 11.3975 64.4289 11.6078 62.9432 11.6499C62.4126 12.6594 61.9351 13.6689 61.5106 14.6785C61.1073 15.667 60.7571 16.6239 60.4599 17.5493C60.184 18.4747 59.9612 19.3476 59.7914 20.1678C59.6428 20.9881 59.5685 21.7242 59.5685 22.3762C59.5685 23.3016 59.9187 23.8168 60.6191 23.922C61.2559 23.8379 61.8608 23.6801 62.4338 23.4488C63.0069 23.2174 63.5163 22.923 63.962 22.5654C64.0893 22.7547 64.1636 22.9125 64.1848 23.0387C64.0575 23.228 63.8346 23.4488 63.5163 23.7012C63.2191 23.9536 62.8902 24.1954 62.5293 24.4268C62.1685 24.6792 61.8183 24.8895 61.4787 25.0577C61.1391 25.226 60.8844 25.3206 60.7146 25.3417C60.184 25.3206 59.6534 25.205 59.1228 24.9946C58.5922 24.7843 58.104 24.5214 57.6583 24.2059C57.2338 23.8905 56.8836 23.5434 56.6077 23.1649C56.3318 22.7653 56.1938 22.3762 56.1938 21.9976C56.1938 21.4928 56.2575 20.8619 56.3848 20.1047C56.5334 19.3265 56.7351 18.4853 56.9897 17.5809C57.2444 16.6765 57.5416 15.7301 57.8812 14.7416C58.2208 13.7531 58.5922 12.7751 58.9955 11.8076H57.1808Z" fill="white"/>
<path d="M76.3007 10.8296C76.2158 12.1336 75.9823 13.2588 75.6003 14.2053C75.2183 15.1307 74.6664 15.9509 73.9448 16.666C73.2444 17.36 72.3848 17.991 71.366 18.5589C70.3472 19.1267 69.1587 19.6736 67.8003 20.1994C67.8003 20.3255 67.7897 20.4623 67.7685 20.6095C67.7685 20.7357 67.7685 20.8724 67.7685 21.0196C67.7685 21.293 67.7897 21.5769 67.8321 21.8714C67.8746 22.1658 67.9489 22.4393 68.055 22.6916C68.1611 22.944 68.3097 23.1543 68.5007 23.3226C68.6917 23.4698 68.9358 23.5434 69.233 23.5434C69.806 23.5434 70.3685 23.4172 70.9203 23.1649C71.4721 22.9125 71.9921 22.6075 72.4803 22.25C72.9897 21.8714 73.4566 21.4718 73.8811 21.0512C74.3268 20.6095 74.7195 20.2099 75.0591 19.8523C75.2713 20.0416 75.4517 20.2204 75.6003 20.3886C74.6452 21.6506 73.5946 22.7022 72.4485 23.5434C71.3236 24.3637 70.2517 24.8895 69.233 25.1208C67.7685 24.9526 66.6223 24.4268 65.7946 23.5434C64.9881 22.6391 64.5848 21.5559 64.5848 20.294C64.5848 19.4317 64.7015 18.5589 64.935 17.6755C65.1897 16.7712 65.5293 15.9088 65.9538 15.0886C66.3995 14.2473 66.9089 13.4586 67.4819 12.7225C68.0762 11.9864 68.7023 11.3449 69.3603 10.7981C70.0395 10.2513 70.7293 9.82011 71.4297 9.50463C72.1513 9.18915 72.8624 9.03141 73.5628 9.03141C74.5391 9.1576 75.4517 9.75701 76.3007 10.8296ZM74.104 11.8707C73.5309 11.9548 72.9366 12.1862 72.3211 12.5648C71.7056 12.9433 71.1219 13.4481 70.5701 14.0791C70.0395 14.71 69.5513 15.4461 69.1056 16.2874C68.6599 17.1287 68.3097 18.0331 68.055 19.0005C69.753 18.1593 71.1644 17.1287 72.2893 15.9088C73.4142 14.668 74.0191 13.3219 74.104 11.8707Z" fill="white"/>
<path d="M0 42.4458C0 35.8184 5.37258 30.4458 12 30.4458H76.3007V33.4458C76.3007 40.0732 70.9281 45.4458 64.3007 45.4458H0V42.4458Z" fill="#EC5929"/>
<path d="M31.1704 38.9358C31.1704 39.2091 31.1137 39.4625 31.0004 39.6958C30.8871 39.9291 30.7337 40.1425 30.5404 40.3358C30.3471 40.5225 30.1204 40.6891 29.8604 40.8358C29.6071 40.9758 29.3371 41.0958 29.0504 41.1958C28.7704 41.2891 28.4804 41.3625 28.1804 41.4158C27.8871 41.4625 27.6037 41.4858 27.3304 41.4858C27.0837 41.4858 26.8537 41.4658 26.6404 41.4258C26.9604 40.2591 27.2137 39.0858 27.4004 37.9058C27.5937 36.7191 27.7771 35.5258 27.9504 34.3258C28.2971 34.2525 28.6571 34.1891 29.0304 34.1358C29.4037 34.0758 29.7904 34.0458 30.1904 34.0458C30.3571 34.0458 30.5337 34.0658 30.7204 34.1058C30.9071 34.1458 31.0771 34.2191 31.2304 34.3258C31.3837 34.4325 31.5104 34.5725 31.6104 34.7458C31.7171 34.9191 31.7704 35.1391 31.7704 35.4058C31.7704 35.6591 31.7271 35.8958 31.6404 36.1158C31.5604 36.3358 31.4537 36.5358 31.3204 36.7158C31.1937 36.8958 31.0471 37.0525 30.8804 37.1858C30.7137 37.3125 30.5437 37.4091 30.3704 37.4758C30.4571 37.5225 30.5471 37.5891 30.6404 37.6758C30.7337 37.7625 30.8204 37.8658 30.9004 37.9858C30.9804 38.0991 31.0437 38.2358 31.0904 38.3958C31.1437 38.5558 31.1704 38.7358 31.1704 38.9358ZM28.8804 37.8958C28.8537 38.0558 28.8271 38.1991 28.8004 38.3258C28.7804 38.4458 28.7604 38.5625 28.7404 38.6758C28.7204 38.7891 28.6971 38.9091 28.6704 39.0358C28.6504 39.1558 28.6271 39.2991 28.6004 39.4658C28.7271 39.4525 28.8704 39.4291 29.0304 39.3958C29.1904 39.3625 29.3437 39.3125 29.4904 39.2458C29.6371 39.1725 29.7604 39.0791 29.8604 38.9658C29.9604 38.8458 30.0104 38.7025 30.0104 38.5358C30.0104 38.4158 29.9771 38.3158 29.9104 38.2358C29.8504 38.1558 29.7704 38.0891 29.6704 38.0358C29.5771 37.9825 29.4737 37.9458 29.3604 37.9258C29.2471 37.8991 29.1404 37.8858 29.0404 37.8858C29.0071 37.8858 28.9771 37.8858 28.9504 37.8858C28.9304 37.8858 28.9071 37.8891 28.8804 37.8958ZM29.3304 35.4758C29.3171 35.5491 29.3004 35.6358 29.2804 35.7358C29.2671 35.8358 29.2504 35.9425 29.2304 36.0558C29.2104 36.1625 29.1871 36.2691 29.1604 36.3758C29.1404 36.4825 29.1237 36.5758 29.1104 36.6558C29.2571 36.6291 29.4037 36.5925 29.5504 36.5458C29.6971 36.4991 29.8271 36.4491 29.9404 36.3958C30.0604 36.3358 30.1537 36.2725 30.2204 36.2058C30.2937 36.1391 30.3304 36.0658 30.3304 35.9858C30.3304 35.8858 30.3004 35.8058 30.2404 35.7458C30.1804 35.6791 30.1004 35.6258 30.0004 35.5858C29.9071 35.5458 29.8071 35.5191 29.7004 35.5058C29.6004 35.4858 29.5104 35.4758 29.4304 35.4758H29.3304ZM33.4077 41.4558L34.7177 34.3458L37.8777 34.0758C37.8311 34.2225 37.7911 34.3725 37.7577 34.5258C37.7244 34.6525 37.6911 34.7858 37.6577 34.9258C37.6311 35.0591 37.6077 35.1791 37.5877 35.2858C37.5211 35.2925 37.4244 35.2991 37.2977 35.3058C37.1777 35.3058 37.0477 35.3091 36.9077 35.3158C36.7677 35.3158 36.6244 35.3158 36.4777 35.3158C36.3377 35.3158 36.2144 35.3158 36.1077 35.3158L35.7577 37.1058C35.9644 37.0925 36.1577 37.0825 36.3377 37.0758C36.4844 37.0691 36.6344 37.0658 36.7877 37.0658C36.9411 37.0658 37.0544 37.0625 37.1277 37.0558C37.1011 37.2425 37.0744 37.4258 37.0477 37.6058C37.0277 37.7858 37.0011 37.9691 36.9677 38.1558C36.9011 38.1625 36.7911 38.1691 36.6377 38.1758C36.4911 38.1758 36.3411 38.1791 36.1877 38.1858C36.0144 38.1925 35.8244 38.1991 35.6177 38.2058L35.2777 40.0458L36.7377 39.8158L36.6377 40.9558L33.4077 41.4558ZM40.0359 41.4558C40.1893 40.7225 40.3359 39.9991 40.4759 39.2858C40.5359 38.9858 40.5959 38.6725 40.6559 38.3458C40.7159 38.0191 40.7726 37.6991 40.8259 37.3858C40.8859 37.0658 40.9359 36.7591 40.9759 36.4658C41.0226 36.1658 41.0626 35.8925 41.0959 35.6458C40.9426 35.6258 40.7859 35.6191 40.6259 35.6258C40.4726 35.6325 40.3193 35.6125 40.1659 35.5658C40.1726 35.4591 40.1759 35.3358 40.1759 35.1958C40.1759 35.0558 40.1793 34.9158 40.1859 34.7758C40.1926 34.6225 40.1993 34.4591 40.2059 34.2858C40.3793 34.2991 40.5526 34.3091 40.7259 34.3158C40.8993 34.3225 41.0726 34.3258 41.2459 34.3258C41.5859 34.3258 41.9126 34.3191 42.2259 34.3058C42.5459 34.2858 42.8393 34.2658 43.1059 34.2458C43.3793 34.2191 43.6459 34.1891 43.9059 34.1558L43.7959 34.6958C43.7626 34.8491 43.7293 35.0058 43.6959 35.1658C43.6693 35.3258 43.6426 35.4625 43.6159 35.5758C43.4693 35.6158 43.3193 35.6458 43.1659 35.6658C43.0193 35.6791 42.8726 35.6991 42.7259 35.7258C42.6793 35.9525 42.6293 36.2058 42.5759 36.4858C42.5226 36.7591 42.4693 37.0458 42.4159 37.3458C42.3693 37.6391 42.3226 37.9391 42.2759 38.2458C42.2293 38.5525 42.1826 38.8458 42.1359 39.1258C42.0293 39.7858 41.9293 40.4691 41.8359 41.1758L40.0359 41.4558ZM48.6241 41.2458C48.4575 41.2725 48.2741 41.3025 48.0741 41.3358C47.8741 41.3691 47.6941 41.3991 47.5341 41.4258C47.5608 41.2058 47.5875 40.9891 47.6141 40.7758C47.6341 40.5891 47.6508 40.4025 47.6641 40.2158C47.6841 40.0291 47.7008 39.8691 47.7141 39.7358H46.8441L46.4441 41.1758C46.2975 41.1958 46.1241 41.2191 45.9241 41.2458C45.7241 41.2658 45.5375 41.2858 45.3641 41.3058C45.1508 41.3325 44.9408 41.3591 44.7341 41.3858C45.0008 40.4991 45.2641 39.6258 45.5241 38.7658C45.6308 38.4058 45.7408 38.0291 45.8541 37.6358C45.9741 37.2425 46.0908 36.8525 46.2041 36.4658C46.3241 36.0725 46.4375 35.6958 46.5441 35.3358C46.6508 34.9758 46.7441 34.6458 46.8241 34.3458C47.2775 34.3125 47.7375 34.2725 48.2041 34.2258C48.6775 34.1791 49.1375 34.1158 49.5841 34.0358C49.5641 34.2491 49.5408 34.5158 49.5141 34.8358C49.4941 35.1491 49.4741 35.4925 49.4541 35.8658C49.4341 36.2391 49.4141 36.6291 49.3941 37.0358C49.3741 37.4425 49.3541 37.8425 49.3341 38.2358C49.3008 39.1558 49.2641 40.1325 49.2241 41.1658C49.0241 41.1991 48.8241 41.2258 48.6241 41.2458ZM47.0841 38.7358C47.1108 38.7358 47.1575 38.7358 47.2241 38.7358C47.2975 38.7291 47.3708 38.7258 47.4441 38.7258C47.5241 38.7191 47.5975 38.7158 47.6641 38.7158C47.7308 38.7091 47.7775 38.7025 47.8041 38.6958C47.8041 38.6558 47.8075 38.5891 47.8141 38.4958C47.8275 38.3958 47.8375 38.2858 47.8441 38.1658C47.8575 38.0391 47.8708 37.9025 47.8841 37.7558C47.8975 37.6091 47.9108 37.4658 47.9241 37.3258C47.9508 36.9858 47.9841 36.6191 48.0241 36.2258L48.0841 35.3558L47.9341 35.3658L47.7041 36.2258L47.0841 38.7358Z" fill="white"/>
</svg>
