<svg width="77" height="46" viewBox="0 0 77 46" fill="none" xmlns="http://www.w3.org/2000/svg">
<path d="M8.27755 13.9259C9.59347 11.991 10.8882 10.2138 12.1616 8.59432C13.4563 6.95383 14.6873 5.5447 15.8547 4.36691C17.022 3.18912 18.0939 2.27423 19.0702 1.62224C20.0465 0.970253 20.8955 0.644259 21.6171 0.644259C21.8931 0.644259 22.1902 0.749418 22.5086 0.959737C22.8482 1.17006 23.1559 1.44347 23.4318 1.77998C23.729 2.11649 23.9731 2.48455 24.1641 2.88416C24.3551 3.26273 24.4506 3.63079 24.4506 3.98833C23.1347 4.40897 21.84 4.96632 20.5665 5.66037C19.3143 6.33339 18.1045 7.12209 16.9371 8.02646C15.791 8.9098 14.6873 9.8983 13.6261 10.992C12.5861 12.0856 11.6416 13.2529 10.7927 14.4938C11.1322 15.3561 11.5461 16.2815 12.0343 17.27C12.5437 18.2375 13.0955 19.1839 13.6898 20.1093C14.2841 21.0137 14.9208 21.8549 15.6 22.6331C16.2792 23.4113 16.969 24.0318 17.6694 24.4945C17.5633 24.7258 17.3829 24.9466 17.1282 25.157C16.8735 25.3673 16.5976 25.5566 16.3004 25.7248C16.0033 25.9141 15.6849 26.0613 15.3453 26.1665C15.0269 26.2717 14.7298 26.3242 14.4539 26.3242C13.902 26.3242 13.3927 26.0613 12.9257 25.5355C12.4588 25.0308 11.9812 24.2631 11.4931 23.2325C11.0261 22.1809 10.5273 20.8875 9.99673 19.3522C9.48735 17.7958 8.91429 15.987 8.27755 13.9259ZM3.4702 26.482C2.66367 26.2927 1.9951 25.9562 1.46449 25.4724C0.933878 25.0097 0.445714 24.4208 0 23.7058C0.19102 23.3062 0.413878 22.7804 0.668572 22.1284C0.94449 21.4764 1.27347 20.6772 1.65551 19.7307C2.03755 18.7633 2.49388 17.617 3.02449 16.292C3.5551 14.946 4.17061 13.3791 4.87102 11.5914C5.31674 10.4556 5.67755 9.4987 5.95347 8.72052C6.25061 7.94233 6.49469 7.18519 6.68571 6.44907C6.89796 5.69192 7.09959 4.86116 7.29061 3.95679C7.48163 3.05241 7.70449 1.90617 7.95918 0.518066C8.85061 0.686322 9.65714 1.07541 10.3788 1.68534C11.1216 2.29526 11.7584 3.03138 12.289 3.89369C12.0555 4.18814 11.7796 4.64032 11.4612 5.25025C11.1641 5.83914 10.8245 6.55423 10.4424 7.3955C10.0604 8.23678 9.63592 9.1727 9.16898 10.2033C8.70204 11.2338 8.21388 12.3275 7.70449 13.4842C6.55837 16.0081 5.65633 18.3216 4.99837 20.4248C4.34041 22.5069 3.83102 24.526 3.4702 26.482Z" fill="#222222"/>
<path d="M19.1759 23.2956C19.282 22.6857 19.4624 21.8865 19.7171 20.898C19.9931 19.8885 20.3114 18.8264 20.6722 17.7117C21.0331 16.5759 21.4151 15.4402 21.8184 14.3045C22.2216 13.1688 22.6143 12.1487 22.9963 11.2443C23.2722 10.5924 23.5163 10.0876 23.7286 9.73005C23.9408 9.35147 24.1743 9.03599 24.429 8.78361C24.7261 8.82567 25.0339 8.89929 25.3522 9.00445C25.6706 9.10961 25.9784 9.2358 26.2755 9.38302C26.5726 9.53024 26.838 9.68798 27.0714 9.85624C27.3049 10.0035 27.4853 10.1507 27.6126 10.2979C27.0396 10.9709 26.5302 11.7386 26.0845 12.6009C25.66 13.4632 25.2249 14.5674 24.7792 15.9134C25.9253 14.9039 26.9335 13.9364 27.8037 13.011C28.6951 12.0856 29.5229 11.0551 30.2869 9.91933C30.4143 9.81417 30.6371 9.76159 30.9555 9.76159C31.2526 9.76159 31.5392 9.81417 31.8151 9.91933C32.091 10.0035 32.282 10.1297 32.3882 10.2979C32.0061 11.3074 31.8151 12.3065 31.8151 13.295C31.8151 14.2204 31.9531 14.9144 32.229 15.3771C32.2077 15.5033 32.0592 15.7452 31.7833 16.1027C31.5286 16.4603 31.242 16.7968 30.9237 17.1123C30.3506 16.8178 29.8412 16.4182 29.3955 15.9134C28.9498 15.3876 28.6208 14.8198 28.4086 14.2098C27.411 14.9039 26.562 15.5874 25.8616 16.2605C25.1612 16.9124 24.5563 17.6486 24.0469 18.4688C23.5588 19.268 23.1343 20.1934 22.7735 21.245C22.4339 22.2966 22.1049 23.548 21.7865 24.9992C21.5955 24.9782 21.362 24.9046 21.0861 24.7784C20.8314 24.6732 20.5661 24.5365 20.2902 24.3683C20.0355 24.2 19.802 24.0212 19.5898 23.8319C19.3775 23.6427 19.2396 23.4639 19.1759 23.2956Z" fill="#222222"/>
<path d="M42.5861 10.8658C42.5012 12.1697 42.2677 13.295 41.8857 14.2414C41.5037 15.1668 40.9518 15.987 40.2302 16.7021C39.5298 17.3962 38.6702 18.0271 37.6514 18.595C36.6326 19.1629 35.4441 19.7097 34.0857 20.2355C34.0857 20.3617 34.0751 20.4984 34.0539 20.6456C34.0539 20.7718 34.0539 20.9085 34.0539 21.0557C34.0539 21.3292 34.0751 21.6131 34.1175 21.9075C34.16 22.202 34.2343 22.4754 34.3404 22.7278C34.4465 22.9802 34.5951 23.1905 34.7861 23.3587C34.9771 23.506 35.2212 23.5796 35.5184 23.5796C36.0914 23.5796 36.6539 23.4534 37.2057 23.201C37.7575 22.9486 38.2775 22.6436 38.7657 22.2861C39.2751 21.9075 39.742 21.5079 40.1665 21.0873C40.6122 20.6456 41.0049 20.246 41.3445 19.8885C41.5567 20.0778 41.7371 20.2565 41.8857 20.4248C40.9306 21.6867 39.88 22.7383 38.7339 23.5796C37.609 24.3998 36.5371 24.9256 35.5184 25.157C34.0539 24.9887 32.9077 24.4629 32.08 23.5796C31.2735 22.6752 30.8702 21.592 30.8702 20.3301C30.8702 19.4678 30.9869 18.595 31.2204 17.7117C31.4751 16.8073 31.8147 15.945 32.2392 15.1247C32.6849 14.2835 33.1943 13.4948 33.7673 12.7586C34.3616 12.0225 34.9877 11.3811 35.6457 10.8342C36.3249 10.2874 37.0147 9.85624 37.7151 9.54076C38.4367 9.22528 39.1477 9.06754 39.8482 9.06754C40.8245 9.19373 41.7371 9.79314 42.5861 10.8658ZM40.3894 11.9069C39.8163 11.991 39.222 12.2223 38.6065 12.6009C37.991 12.9795 37.4073 13.4842 36.8555 14.1152C36.3249 14.7462 35.8367 15.4823 35.391 16.3236C34.9453 17.1648 34.5951 18.0692 34.3404 19.0367C36.0384 18.1954 37.4498 17.1648 38.5747 15.945C39.6996 14.7041 40.3045 13.3581 40.3894 11.9069Z" fill="#222222"/>
<path d="M53.4519 11.1813C53.6641 11.1813 53.9082 11.2233 54.1841 11.3074C54.4813 11.3705 54.7466 11.4652 54.98 11.5914C55.2135 11.6965 55.4045 11.8122 55.5531 11.9384C55.7229 12.0646 55.8078 12.1803 55.8078 12.2854C55.3833 13.1688 54.9907 14.0626 54.6298 14.967C54.269 15.8503 53.9613 16.7021 53.7066 17.5224C53.4519 18.3426 53.2503 19.1103 53.1017 19.8254C52.9743 20.5405 52.9107 21.1609 52.9107 21.6867C52.9107 22.2756 52.9743 22.7698 53.1017 23.1694C53.229 23.548 53.4413 23.8214 53.7384 23.9897C53.4837 24.1579 53.1547 24.2946 52.7515 24.3998C52.3482 24.505 51.9874 24.5575 51.669 24.5575C50.5229 24.5575 49.9498 23.7794 49.9498 22.223C49.9498 21.0242 50.3531 19.3837 51.1596 17.3015C50.7352 18.269 50.247 19.1839 49.6952 20.0462C49.1433 20.8875 48.5809 21.6341 48.0078 22.2861C47.4347 22.9381 46.8511 23.4744 46.2568 23.895C45.6837 24.2946 45.1531 24.5365 44.6649 24.6206C43.8796 24.5786 43.2429 24.2105 42.7547 23.5165C42.2666 22.8014 42.0225 21.897 42.0225 20.8034C42.0225 19.6256 42.2772 18.3847 42.7866 17.0807C43.296 15.7767 43.9433 14.5674 44.7286 13.4527C45.5352 12.338 46.4054 11.4126 47.3392 10.6765C48.2731 9.91933 49.1752 9.51973 50.0454 9.47766C50.2576 9.54076 50.4911 9.66695 50.7458 9.85624C51.0217 10.0455 51.2764 10.2664 51.5098 10.5187C51.7645 10.7711 51.9768 11.034 52.1466 11.3074C52.3164 11.5598 52.4119 11.7807 52.4331 11.9699C51.5841 12.0961 50.7033 12.5063 49.7907 13.2003C48.8992 13.8944 48.0821 14.7356 47.3392 15.7241C46.6176 16.6916 46.0233 17.7327 45.5564 18.8474C45.0894 19.9621 44.856 21.0032 44.856 21.9706C44.856 22.3702 45.0045 22.6226 45.3017 22.7278C45.9172 22.6016 46.6282 22.0863 47.4347 21.1819C48.2413 20.2565 49.2176 18.8369 50.3637 16.923C50.576 16.5444 50.8094 16.1238 51.0641 15.661C51.3401 15.1983 51.616 14.7146 51.8919 14.2098C52.1678 13.7051 52.4331 13.2003 52.6878 12.6955C52.9637 12.1698 53.2184 11.665 53.4519 11.1813Z" fill="#222222"/>
<path d="M57.1808 11.8438C57.0746 11.7176 56.9791 11.4547 56.8942 11.0551C56.8093 10.6344 56.7669 10.2769 56.7669 9.98243C57.3187 10.0245 57.8493 10.0666 58.3587 10.1086C58.8681 10.1297 59.3351 10.1507 59.7595 10.1717C60.0779 9.54076 60.4175 8.92032 60.7783 8.31039C61.1604 7.67943 61.5212 7.11157 61.8608 6.60681C62.2216 6.08101 62.5506 5.63934 62.8477 5.2818C63.1661 4.92425 63.4102 4.6929 63.5799 4.58774C63.7922 4.58774 64.0575 4.62981 64.3759 4.71394C64.7155 4.77703 65.055 4.87168 65.3946 4.99787C65.7342 5.10303 66.042 5.2187 66.3179 5.34489C66.5938 5.47108 66.7848 5.59728 66.891 5.72347C66.2542 6.52268 65.7024 7.26931 65.2355 7.96337C64.7897 8.63639 64.3016 9.41457 63.771 10.2979C64.1955 10.2979 64.6199 10.2874 65.0444 10.2664C65.4902 10.2453 65.9359 10.2138 66.3816 10.1717C66.4877 10.2769 66.5726 10.4136 66.6363 10.5818C66.7 10.7291 66.7318 10.8868 66.7318 11.0551C65.6918 11.4336 64.4289 11.644 62.9432 11.686C62.4126 12.6955 61.935 13.7051 61.5106 14.7146C61.1073 15.7031 60.7571 16.6601 60.4599 17.5855C60.184 18.5109 59.9612 19.3837 59.7914 20.2039C59.6428 21.0242 59.5685 21.7603 59.5685 22.4123C59.5685 23.3377 59.9187 23.853 60.6191 23.9581C61.2559 23.874 61.8608 23.7163 62.4338 23.4849C63.0069 23.2536 63.5163 22.9591 63.962 22.6016C64.0893 22.7909 64.1636 22.9486 64.1848 23.0748C64.0575 23.2641 63.8346 23.4849 63.5163 23.7373C63.2191 23.9897 62.8902 24.2316 62.5293 24.4629C62.1685 24.7153 61.8183 24.9256 61.4787 25.0939C61.1391 25.2621 60.8844 25.3568 60.7146 25.3778C60.184 25.3568 59.6534 25.2411 59.1228 25.0308C58.5922 24.8204 58.104 24.5576 57.6583 24.2421C57.2338 23.9266 56.8836 23.5796 56.6077 23.201C56.3318 22.8014 56.1938 22.4123 56.1938 22.0337C56.1938 21.529 56.2575 20.898 56.3848 20.1408C56.5334 19.3627 56.7351 18.5214 56.9897 17.617C57.2444 16.7126 57.5416 15.7662 57.8812 14.7777C58.2208 13.7892 58.5922 12.8112 58.9955 11.8438H57.1808Z" fill="#222222"/>
<path d="M76.3007 10.8658C76.2158 12.1697 75.9823 13.295 75.6003 14.2414C75.2183 15.1668 74.6664 15.987 73.9448 16.7021C73.2444 17.3962 72.3848 18.0271 71.366 18.595C70.3472 19.1629 69.1587 19.7097 67.8003 20.2355C67.8003 20.3617 67.7897 20.4984 67.7685 20.6456C67.7685 20.7718 67.7685 20.9085 67.7685 21.0557C67.7685 21.3292 67.7897 21.6131 67.8321 21.9075C67.8746 22.202 67.9489 22.4754 68.055 22.7278C68.1611 22.9802 68.3097 23.1905 68.5007 23.3587C68.6917 23.506 68.9358 23.5796 69.233 23.5796C69.806 23.5796 70.3685 23.4534 70.9203 23.201C71.4721 22.9486 71.9921 22.6436 72.4803 22.2861C72.9897 21.9075 73.4566 21.5079 73.8811 21.0873C74.3268 20.6456 74.7195 20.246 75.0591 19.8885C75.2713 20.0778 75.4517 20.2565 75.6003 20.4248C74.6452 21.6867 73.5946 22.7383 72.4485 23.5796C71.3236 24.3998 70.2517 24.9256 69.233 25.157C67.7685 24.9887 66.6223 24.4629 65.7946 23.5796C64.9881 22.6752 64.5848 21.592 64.5848 20.3301C64.5848 19.4678 64.7015 18.595 64.935 17.7117C65.1897 16.8073 65.5293 15.945 65.9538 15.1247C66.3995 14.2835 66.9089 13.4948 67.4819 12.7586C68.0762 12.0225 68.7023 11.3811 69.3603 10.8342C70.0395 10.2874 70.7293 9.85624 71.4297 9.54076C72.1513 9.22528 72.8623 9.06754 73.5628 9.06754C74.5391 9.19373 75.4517 9.79314 76.3007 10.8658ZM74.104 11.9069C73.5309 11.991 72.9366 12.2223 72.3211 12.6009C71.7056 12.9795 71.1219 13.4842 70.5701 14.1152C70.0395 14.7462 69.5513 15.4823 69.1056 16.3236C68.6599 17.1648 68.3097 18.0692 68.055 19.0367C69.753 18.1954 71.1644 17.1648 72.2893 15.945C73.4142 14.7041 74.0191 13.3581 74.104 11.9069Z" fill="#222222"/>
<path d="M0 42.4819C0 35.8545 5.37258 30.4819 12 30.4819H76.3007V33.4819C76.3007 40.1094 70.9281 45.4819 64.3007 45.4819H0V42.4819Z" fill="#006E46"/>
<path d="M18.5504 41.4919C18.7037 40.7586 18.8504 40.0353 18.9904 39.3219C19.0504 39.0219 19.1104 38.7086 19.1704 38.3819C19.2304 38.0553 19.2871 37.7353 19.3404 37.4219C19.4004 37.1019 19.4504 36.7953 19.4904 36.5019C19.5371 36.2019 19.5771 35.9286 19.6104 35.6819C19.4571 35.6619 19.3004 35.6553 19.1404 35.6619C18.9871 35.6686 18.8337 35.6486 18.6804 35.6019C18.6871 35.4953 18.6904 35.3719 18.6904 35.2319C18.6904 35.0919 18.6937 34.9519 18.7004 34.8119C18.7071 34.6586 18.7137 34.4953 18.7204 34.3219C18.8937 34.3353 19.0671 34.3453 19.2404 34.3519C19.4137 34.3586 19.5871 34.3619 19.7604 34.3619C20.1004 34.3619 20.4271 34.3553 20.7404 34.3419C21.0604 34.3219 21.3537 34.3019 21.6204 34.2819C21.8937 34.2553 22.1604 34.2253 22.4204 34.1919L22.3104 34.7319C22.2771 34.8853 22.2437 35.0419 22.2104 35.2019C22.1837 35.3619 22.1571 35.4986 22.1304 35.6119C21.9837 35.6519 21.8337 35.6819 21.6804 35.7019C21.5337 35.7153 21.3871 35.7353 21.2404 35.7619C21.1937 35.9886 21.1437 36.2419 21.0904 36.5219C21.0371 36.7953 20.9837 37.0819 20.9304 37.3819C20.8837 37.6753 20.8371 37.9753 20.7904 38.2819C20.7437 38.5886 20.6971 38.8819 20.6504 39.1619C20.5437 39.8219 20.4437 40.5053 20.3504 41.2119L18.5504 41.4919ZM23.7534 41.4919L25.0634 34.3819L28.2234 34.1119C28.1768 34.2586 28.1368 34.4086 28.1034 34.5619C28.0701 34.6886 28.0368 34.8219 28.0034 34.9619C27.9768 35.0953 27.9534 35.2153 27.9334 35.3219C27.8668 35.3286 27.7701 35.3353 27.6434 35.3419C27.5234 35.3419 27.3934 35.3453 27.2534 35.3519C27.1134 35.3519 26.9701 35.3519 26.8234 35.3519C26.6834 35.3519 26.5601 35.3519 26.4534 35.3519L26.1034 37.1419C26.3101 37.1286 26.5034 37.1186 26.6834 37.1119C26.8301 37.1053 26.9801 37.1019 27.1334 37.1019C27.2868 37.1019 27.4001 37.0986 27.4734 37.0919C27.4468 37.2786 27.4201 37.4619 27.3934 37.6419C27.3734 37.8219 27.3468 38.0053 27.3134 38.1919C27.2468 38.1986 27.1368 38.2053 26.9834 38.2119C26.8368 38.2119 26.6868 38.2153 26.5334 38.2219C26.3601 38.2286 26.1701 38.2353 25.9634 38.2419L25.6234 40.0819L27.0834 39.8519L26.9834 40.9919L23.7534 41.4919ZM33.9116 39.0119C33.9116 39.3853 33.8383 39.7253 33.6916 40.0319C33.5516 40.3319 33.3583 40.5919 33.1116 40.8119C32.8716 41.0319 32.585 41.2019 32.2516 41.3219C31.925 41.4419 31.5716 41.5019 31.1916 41.5019C30.925 41.5019 30.6583 41.4319 30.3916 41.2919C30.125 41.1453 29.8683 40.9153 29.6216 40.6019L30.3616 39.1519C30.4083 39.2386 30.4783 39.3286 30.5716 39.4219C30.665 39.5086 30.7683 39.5853 30.8816 39.6519C31.0016 39.7186 31.1183 39.7753 31.2316 39.8219C31.3516 39.8619 31.4583 39.8819 31.5516 39.8819C31.6316 39.8819 31.715 39.8686 31.8016 39.8419C31.8883 39.8153 31.9683 39.7753 32.0416 39.7219C32.115 39.6686 32.1716 39.6086 32.2116 39.5419C32.2583 39.4686 32.2816 39.3853 32.2816 39.2919C32.2816 39.1319 32.2283 38.9853 32.1216 38.8519C32.0216 38.7119 31.895 38.5819 31.7416 38.4619C31.5883 38.3353 31.4216 38.2086 31.2416 38.0819C31.0616 37.9553 30.895 37.8219 30.7416 37.6819C30.595 37.5419 30.4683 37.3853 30.3616 37.2119C30.255 37.0386 30.2016 36.8453 30.2016 36.6319C30.2016 36.2853 30.305 35.9619 30.5116 35.6619C30.7183 35.3619 30.975 35.1053 31.2816 34.8919C31.595 34.6719 31.935 34.4986 32.3016 34.3719C32.6683 34.2453 33.015 34.1819 33.3416 34.1819C33.5216 34.1819 33.6916 34.2053 33.8516 34.2519C34.0116 34.2919 34.1483 34.3619 34.2616 34.4619C34.3816 34.5553 34.475 34.6753 34.5416 34.8219C34.615 34.9686 34.6516 35.1519 34.6516 35.3719C34.6516 35.4653 34.6416 35.5586 34.6216 35.6519C34.6083 35.7453 34.595 35.8453 34.5816 35.9519L33.1316 36.3719C33.145 36.3186 33.155 36.2653 33.1616 36.2119C33.175 36.1586 33.1816 36.1053 33.1816 36.0519C33.1816 35.8519 33.145 35.7086 33.0716 35.6219C33.005 35.5286 32.915 35.4819 32.8016 35.4819C32.7483 35.4819 32.6816 35.5019 32.6016 35.5419C32.5283 35.5819 32.4516 35.6353 32.3716 35.7019C32.2983 35.7619 32.235 35.8353 32.1816 35.9219C32.1283 36.0086 32.1016 36.1019 32.1016 36.2019C32.1016 36.3619 32.145 36.4953 32.2316 36.6019C32.325 36.7086 32.4383 36.8086 32.5716 36.9019C32.705 36.9953 32.8483 37.0919 33.0016 37.1919C33.1616 37.2853 33.3083 37.4086 33.4416 37.5619C33.575 37.7153 33.685 37.9086 33.7716 38.1419C33.865 38.3686 33.9116 38.6586 33.9116 39.0119ZM37.0785 41.4919C37.2318 40.7586 37.3785 40.0353 37.5185 39.3219C37.5785 39.0219 37.6385 38.7086 37.6985 38.3819C37.7585 38.0553 37.8152 37.7353 37.8685 37.4219C37.9285 37.1019 37.9785 36.7953 38.0185 36.5019C38.0652 36.2019 38.1052 35.9286 38.1385 35.6819C37.9852 35.6619 37.8285 35.6553 37.6685 35.6619C37.5152 35.6686 37.3618 35.6486 37.2085 35.6019C37.2152 35.4953 37.2185 35.3719 37.2185 35.2319C37.2185 35.0919 37.2218 34.9519 37.2285 34.8119C37.2352 34.6586 37.2418 34.4953 37.2485 34.3219C37.4218 34.3353 37.5952 34.3453 37.7685 34.3519C37.9418 34.3586 38.1152 34.3619 38.2885 34.3619C38.6285 34.3619 38.9552 34.3553 39.2685 34.3419C39.5885 34.3219 39.8818 34.3019 40.1485 34.2819C40.4218 34.2553 40.6885 34.2253 40.9485 34.1919L40.8385 34.7319C40.8052 34.8853 40.7718 35.0419 40.7385 35.2019C40.7118 35.3619 40.6852 35.4986 40.6585 35.6119C40.5118 35.6519 40.3619 35.6819 40.2085 35.7019C40.0618 35.7153 39.9152 35.7353 39.7685 35.7619C39.7218 35.9886 39.6718 36.2419 39.6185 36.5219C39.5652 36.7953 39.5118 37.0819 39.4585 37.3819C39.4118 37.6753 39.3652 37.9753 39.3185 38.2819C39.2718 38.5886 39.2252 38.8819 39.1785 39.1619C39.0718 39.8219 38.9718 40.5053 38.8785 41.2119L37.0785 41.4919ZM42.2616 41.5319C42.4482 40.5919 42.6282 39.6753 42.8016 38.7819C42.8682 38.4086 42.9382 38.0186 43.0116 37.6119C43.0916 37.1986 43.1649 36.7953 43.2316 36.4019C43.2982 36.0019 43.3582 35.6186 43.4116 35.2519C43.4716 34.8786 43.5182 34.5386 43.5516 34.2319C43.7582 34.2186 43.9582 34.2053 44.1516 34.1919C44.3249 34.1786 44.5016 34.1686 44.6816 34.1619C44.8616 34.1486 45.0216 34.1353 45.1616 34.1219C45.2482 34.6353 45.3249 35.1253 45.3916 35.5919C45.4249 35.7919 45.4582 36.0019 45.4916 36.2219C45.5316 36.4353 45.5682 36.6419 45.6016 36.8419C45.6349 37.0419 45.6682 37.2353 45.7016 37.4219C45.7349 37.6019 45.7682 37.7619 45.8016 37.9019C45.8282 37.7619 45.8582 37.6019 45.8916 37.4219C45.9249 37.2353 45.9616 37.0419 46.0016 36.8419C46.0416 36.6353 46.0816 36.4253 46.1216 36.2119C46.1682 35.9986 46.2116 35.7919 46.2516 35.5919C46.3516 35.1253 46.4549 34.6386 46.5616 34.1319L47.7816 33.9819C47.5549 34.9819 47.3549 35.9286 47.1816 36.8219C47.1016 37.2086 47.0216 37.5986 46.9416 37.9919C46.8682 38.3853 46.7982 38.7653 46.7316 39.1319C46.6649 39.4986 46.6082 39.8386 46.5616 40.1519C46.5149 40.4586 46.4782 40.7186 46.4516 40.9319C46.4316 40.9319 46.3516 40.9486 46.2116 40.9819C46.0782 41.0086 45.9216 41.0419 45.7416 41.0819C45.5682 41.1219 45.3916 41.1653 45.2116 41.2119C45.0382 41.2519 44.9082 41.2853 44.8216 41.3119C44.7749 40.7719 44.7249 40.2586 44.6716 39.7719C44.6516 39.5653 44.6282 39.3519 44.6016 39.1319C44.5749 38.9119 44.5482 38.7019 44.5216 38.5019C44.5016 38.3019 44.4782 38.1153 44.4516 37.9419C44.4316 37.7619 44.4116 37.6119 44.3916 37.4919C44.3716 37.6119 44.3449 37.7586 44.3116 37.9319C44.2782 38.1053 44.2449 38.2919 44.2116 38.4919C44.1782 38.6853 44.1449 38.8886 44.1116 39.1019C44.0782 39.3086 44.0416 39.5119 44.0016 39.7119C43.9149 40.1853 43.8216 40.6786 43.7216 41.1919L42.2616 41.5319ZM49.2128 41.4919L50.5228 34.3819L53.6828 34.1119C53.6361 34.2586 53.5961 34.4086 53.5628 34.5619C53.5295 34.6886 53.4961 34.8219 53.4628 34.9619C53.4361 35.0953 53.4128 35.2153 53.3928 35.3219C53.3261 35.3286 53.2295 35.3353 53.1028 35.3419C52.9828 35.3419 52.8528 35.3453 52.7128 35.3519C52.5728 35.3519 52.4295 35.3519 52.2828 35.3519C52.1428 35.3519 52.0195 35.3519 51.9128 35.3519L51.5628 37.1419C51.7695 37.1286 51.9628 37.1186 52.1428 37.1119C52.2895 37.1053 52.4395 37.1019 52.5928 37.1019C52.7461 37.1019 52.8595 37.0986 52.9328 37.0919C52.9061 37.2786 52.8795 37.4619 52.8528 37.6419C52.8328 37.8219 52.8061 38.0053 52.7728 38.1919C52.7061 38.1986 52.5961 38.2053 52.4428 38.2119C52.2961 38.2119 52.1461 38.2153 51.9928 38.2219C51.8195 38.2286 51.6295 38.2353 51.4228 38.2419L51.0828 40.0819L52.5428 39.8519L52.4428 40.9919L49.2128 41.4919ZM55.841 41.4919C55.9944 40.7586 56.141 40.0353 56.281 39.3219C56.341 39.0219 56.401 38.7086 56.461 38.3819C56.521 38.0553 56.5777 37.7353 56.631 37.4219C56.691 37.1019 56.741 36.7953 56.781 36.5019C56.8277 36.2019 56.8677 35.9286 56.901 35.6819C56.7477 35.6619 56.591 35.6553 56.431 35.6619C56.2777 35.6686 56.1244 35.6486 55.971 35.6019C55.9777 35.4953 55.981 35.3719 55.981 35.2319C55.981 35.0919 55.9844 34.9519 55.991 34.8119C55.9977 34.6586 56.0044 34.4953 56.011 34.3219C56.1844 34.3353 56.3577 34.3453 56.531 34.3519C56.7044 34.3586 56.8777 34.3619 57.051 34.3619C57.391 34.3619 57.7177 34.3553 58.031 34.3419C58.351 34.3219 58.6444 34.3019 58.911 34.2819C59.1844 34.2553 59.451 34.2253 59.711 34.1919L59.601 34.7319C59.5677 34.8853 59.5344 35.0419 59.501 35.2019C59.4744 35.3619 59.4477 35.4986 59.421 35.6119C59.2744 35.6519 59.1244 35.6819 58.971 35.7019C58.8244 35.7153 58.6777 35.7353 58.531 35.7619C58.4844 35.9886 58.4344 36.2419 58.381 36.5219C58.3277 36.7953 58.2744 37.0819 58.221 37.3819C58.1744 37.6753 58.1277 37.9753 58.081 38.2819C58.0344 38.5886 57.9877 38.8819 57.941 39.1619C57.8344 39.8219 57.7344 40.5053 57.641 41.2119L55.841 41.4919Z" fill="white"/>
</svg>
