<svg width="77" height="45" viewBox="0 0 77 45" fill="none" xmlns="http://www.w3.org/2000/svg">
<path d="M8.27755 13.4078C9.59347 11.4729 10.8882 9.69572 12.1616 8.07626C13.4563 6.43577 14.6873 5.02663 15.8547 3.84884C17.022 2.67105 18.0939 1.75617 19.0702 1.10418C20.0465 0.452187 20.8955 0.126192 21.6171 0.126192C21.8931 0.126192 22.1902 0.231352 22.5086 0.441671C22.8482 0.65199 23.1559 0.925405 23.4318 1.26192C23.729 1.59843 23.9731 1.96648 24.1641 2.36609C24.3551 2.74467 24.4506 3.11272 24.4506 3.47027C23.1347 3.89091 21.84 4.44825 20.5665 5.1423C19.3143 5.81533 18.1045 6.60402 16.9371 7.5084C15.791 8.39174 14.6873 9.38024 13.6261 10.4739C12.5861 11.5676 11.6416 12.7348 10.7927 13.9757C11.1322 14.838 11.5461 15.7634 12.0343 16.7519C12.5437 17.7194 13.0955 18.6658 13.6898 19.5912C14.2841 20.4956 14.9208 21.3369 15.6 22.1151C16.2792 22.8932 16.969 23.5137 17.6694 23.9764C17.5633 24.2077 17.3829 24.4286 17.1282 24.6389C16.8735 24.8492 16.5975 25.0385 16.3004 25.2068C16.0033 25.396 15.6849 25.5433 15.3453 25.6484C15.0269 25.7536 14.7298 25.8062 14.4539 25.8062C13.902 25.8062 13.3927 25.5433 12.9257 25.0175C12.4588 24.5127 11.9812 23.745 11.4931 22.7145C11.0261 21.6629 10.5273 20.3694 9.99673 18.8341C9.48735 17.2777 8.91429 15.469 8.27755 13.4078ZM3.4702 25.9639C2.66367 25.7746 1.9951 25.4381 1.46449 24.9544C0.933878 24.4917 0.445714 23.9028 0 23.1877C0.19102 22.7881 0.413878 22.2623 0.668572 21.6103C0.94449 20.9583 1.27347 20.1591 1.65551 19.2127C2.03755 18.2452 2.49388 17.0989 3.02449 15.7739C3.5551 14.4279 4.17061 12.861 4.87102 11.0733C5.31674 9.93758 5.67755 8.98063 5.95347 8.20245C6.25061 7.42427 6.49469 6.66712 6.68571 5.931C6.89796 5.17385 7.09959 4.34309 7.29061 3.43872C7.48163 2.53435 7.70449 1.38811 7.95918 0C8.85061 0.168256 9.65714 0.557347 10.3788 1.16727C11.1216 1.7772 11.7584 2.51331 12.289 3.37562C12.0555 3.67007 11.7796 4.12226 11.4612 4.73218C11.1641 5.32108 10.8245 6.03616 10.4424 6.87744C10.0604 7.71871 9.63592 8.65463 9.16898 9.6852C8.70204 10.7158 8.21388 11.8094 7.70449 12.9662C6.55837 15.49 5.65633 17.8035 4.99837 19.9067C4.34041 21.9889 3.83102 24.0079 3.4702 25.9639Z" fill="white"/>
<path d="M19.1759 22.7776C19.282 22.1676 19.4624 21.3684 19.7171 20.3799C19.9931 19.3704 20.3114 18.3083 20.6722 17.1936C21.0331 16.0579 21.4151 14.9221 21.8184 13.7864C22.2216 12.6507 22.6143 11.6307 22.9963 10.7263C23.2722 10.0743 23.5163 9.56952 23.7286 9.21198C23.9408 8.83341 24.1743 8.51793 24.429 8.26554C24.7261 8.30761 25.0339 8.38122 25.3522 8.48638C25.6706 8.59154 25.9784 8.71773 26.2755 8.86495C26.5726 9.01218 26.838 9.16992 27.0714 9.33817C27.3049 9.4854 27.4853 9.63262 27.6126 9.77984C27.0396 10.4529 26.5302 11.2205 26.0845 12.0828C25.66 12.9451 25.2249 14.0493 24.7792 15.3954C25.9253 14.3858 26.9335 13.4184 27.8037 12.493C28.6951 11.5676 29.5229 10.537 30.2869 9.40127C30.4143 9.29611 30.6371 9.24353 30.9555 9.24353C31.2526 9.24353 31.5392 9.29611 31.8151 9.40127C32.091 9.48539 32.282 9.61159 32.3882 9.77984C32.0061 10.7894 31.8151 11.7884 31.8151 12.7769C31.8151 13.7023 31.9531 14.3963 32.229 14.8591C32.2077 14.9852 32.0592 15.2271 31.7833 15.5847C31.5286 15.9422 31.242 16.2787 30.9237 16.5942C30.3506 16.2997 29.8412 15.9001 29.3955 15.3954C28.9498 14.8696 28.6208 14.3017 28.4086 13.6918C27.411 14.3858 26.562 15.0694 25.8616 15.7424C25.1612 16.3944 24.5563 17.1305 24.0469 17.9507C23.5588 18.75 23.1343 19.6754 22.7735 20.727C22.4339 21.7786 22.1049 23.03 21.7865 24.4812C21.5955 24.4601 21.362 24.3865 21.0861 24.2603C20.8314 24.1552 20.5661 24.0185 20.2902 23.8502C20.0355 23.6819 19.802 23.5032 19.5898 23.3139C19.3775 23.1246 19.2396 22.9458 19.1759 22.7776Z" fill="white"/>
<path d="M42.5861 10.3477C42.5012 11.6517 42.2677 12.7769 41.8857 13.7233C41.5037 14.6487 40.9518 15.469 40.2302 16.1841C39.5298 16.8781 38.6702 17.5091 37.6514 18.0769C36.6326 18.6448 35.4441 19.1916 34.0857 19.7174C34.0857 19.8436 34.0751 19.9803 34.0539 20.1275C34.0539 20.2537 34.0539 20.3904 34.0539 20.5377C34.0539 20.8111 34.0751 21.095 34.1175 21.3895C34.16 21.6839 34.2343 21.9573 34.3404 22.2097C34.4465 22.4621 34.5951 22.6724 34.7861 22.8407C34.9771 22.9879 35.2212 23.0615 35.5184 23.0615C36.0914 23.0615 36.6539 22.9353 37.2057 22.6829C37.7575 22.4305 38.2775 22.1256 38.7657 21.768C39.2751 21.3895 39.742 20.9899 40.1665 20.5692C40.6122 20.1275 41.0049 19.7279 41.3445 19.3704C41.5567 19.5597 41.7371 19.7385 41.8857 19.9067C40.9306 21.1686 39.88 22.2202 38.7339 23.0615C37.609 23.8817 36.5371 24.4075 35.5184 24.6389C34.0539 24.4706 32.9077 23.9448 32.08 23.0615C31.2735 22.1571 30.8702 21.074 30.8702 19.8121C30.8702 18.9498 30.9869 18.0769 31.2204 17.1936C31.4751 16.2892 31.8147 15.4269 32.2392 14.6067C32.6849 13.7654 33.1943 12.9767 33.7673 12.2406C34.3616 11.5045 34.9877 10.863 35.6457 10.3162C36.3249 9.76933 37.0147 9.33817 37.7151 9.02269C38.4367 8.70721 39.1477 8.54948 39.8482 8.54948C40.8245 8.67567 41.7371 9.27508 42.5861 10.3477ZM40.3894 11.3888C39.8163 11.4729 39.222 11.7043 38.6065 12.0828C37.991 12.4614 37.4073 12.9662 36.8555 13.5971C36.3249 14.2281 35.8367 14.9642 35.391 15.8055C34.9453 16.6468 34.5951 17.5511 34.3404 18.5186C36.0384 17.6773 37.4498 16.6468 38.5747 15.4269C39.6996 14.186 40.3045 12.84 40.3894 11.3888Z" fill="white"/>
<path d="M53.4519 10.6632C53.6641 10.6632 53.9082 10.7052 54.1841 10.7894C54.4813 10.8525 54.7466 10.9471 54.98 11.0733C55.2135 11.1785 55.4045 11.2941 55.5531 11.4203C55.7229 11.5465 55.8078 11.6622 55.8078 11.7674C55.3833 12.6507 54.9907 13.5446 54.6298 14.4489C54.269 15.3323 53.9613 16.1841 53.7066 17.0043C53.4519 17.8246 53.2503 18.5922 53.1017 19.3073C52.9743 20.0224 52.9107 20.6428 52.9107 21.1686C52.9107 21.7575 52.9743 22.2518 53.1017 22.6514C53.229 23.03 53.4413 23.3034 53.7384 23.4716C53.4837 23.6399 53.1547 23.7766 52.7515 23.8817C52.3482 23.9869 51.9874 24.0395 51.669 24.0395C50.5229 24.0395 49.9498 23.2613 49.9498 21.7049C49.9498 20.5061 50.3531 18.8656 51.1596 16.7835C50.7352 17.7509 50.247 18.6658 49.6952 19.5281C49.1433 20.3694 48.5809 21.116 48.0078 21.768C47.4347 22.42 46.8511 22.9563 46.2568 23.377C45.6837 23.7766 45.1531 24.0185 44.6649 24.1026C43.8796 24.0605 43.2429 23.6925 42.7547 22.9984C42.2666 22.2833 42.0225 21.3789 42.0225 20.2853C42.0225 19.1075 42.2772 17.8666 42.7866 16.5626C43.296 15.2587 43.9433 14.0493 44.7286 12.9346C45.5352 11.8199 46.4054 10.8945 47.3392 10.1584C48.2731 9.40127 49.1752 9.00166 50.0454 8.9596C50.2576 9.02269 50.4911 9.14889 50.7458 9.33817C51.0217 9.52746 51.2764 9.7483 51.5098 10.0007C51.7645 10.2531 51.9768 10.516 52.1466 10.7894C52.3164 11.0418 52.4119 11.2626 52.4331 11.4519C51.5841 11.5781 50.7033 11.9882 49.7907 12.6822C48.8992 13.3763 48.0821 14.2176 47.3392 15.2061C46.6176 16.1735 46.0233 17.2146 45.5564 18.3293C45.0894 19.444 44.856 20.4851 44.856 21.4526C44.856 21.8522 45.0045 22.1045 45.3017 22.2097C45.9172 22.0835 46.6282 21.5682 47.4347 20.6639C48.2413 19.7385 49.2176 18.3188 50.3637 16.4049C50.576 16.0263 50.8094 15.6057 51.0641 15.143C51.34 14.6803 51.616 14.1965 51.8919 13.6918C52.1678 13.187 52.4331 12.6822 52.6878 12.1775C52.9637 11.6517 53.2184 11.1469 53.4519 10.6632Z" fill="white"/>
<path d="M57.1808 11.3257C57.0746 11.1995 56.9791 10.9366 56.8942 10.537C56.8093 10.1164 56.7669 9.75881 56.7669 9.46436C57.3187 9.50643 57.8493 9.54849 58.3587 9.59056C58.8681 9.61159 59.3351 9.63262 59.7595 9.65365C60.0779 9.02269 60.4175 8.40225 60.7783 7.79233C61.1604 7.16137 61.5212 6.59351 61.8608 6.08874C62.2216 5.56294 62.5506 5.12127 62.8477 4.76373C63.1661 4.40619 63.4102 4.17484 63.5799 4.06968C63.7922 4.06968 64.0575 4.11174 64.3759 4.19587C64.7155 4.25897 65.055 4.35361 65.3946 4.4798C65.7342 4.58496 66.042 4.70063 66.3179 4.82683C66.5938 4.95302 66.7849 5.07921 66.891 5.2054C66.2542 6.00461 65.7024 6.75125 65.2355 7.4453C64.7897 8.11832 64.3016 8.8965 63.771 9.77984C64.1955 9.77984 64.6199 9.76933 65.0444 9.74829C65.4902 9.72726 65.9359 9.69571 66.3816 9.65365C66.4877 9.75881 66.5726 9.89552 66.6363 10.0638C66.7 10.211 66.7318 10.3687 66.7318 10.537C65.6918 10.9156 64.4289 11.1259 62.9432 11.1679C62.4126 12.1775 61.9351 13.187 61.5106 14.1965C61.1073 15.185 60.7571 16.142 60.4599 17.0674C60.184 17.9928 59.9612 18.8656 59.7914 19.6859C59.6428 20.5061 59.5685 21.2422 59.5685 21.8942C59.5685 22.8196 59.9187 23.3349 60.6191 23.4401C61.2559 23.3559 61.8608 23.1982 62.4338 22.9669C63.0069 22.7355 63.5163 22.4411 63.962 22.0835C64.0893 22.2728 64.1636 22.4305 64.1848 22.5567C64.0575 22.746 63.8346 22.9669 63.5163 23.2192C63.2191 23.4716 62.8902 23.7135 62.5293 23.9448C62.1685 24.1972 61.8183 24.4075 61.4787 24.5758C61.1391 24.7441 60.8844 24.8387 60.7146 24.8597C60.184 24.8387 59.6534 24.723 59.1228 24.5127C58.5922 24.3024 58.104 24.0395 57.6583 23.724C57.2338 23.4085 56.8836 23.0615 56.6077 22.6829C56.3318 22.2833 56.1938 21.8942 56.1938 21.5157C56.1938 21.0109 56.2575 20.3799 56.3848 19.6228C56.5334 18.8446 56.7351 18.0033 56.9897 17.0989C57.2444 16.1946 57.5416 15.2481 57.8812 14.2596C58.2208 13.2711 58.5922 12.2932 58.9955 11.3257H57.1808Z" fill="white"/>
<path d="M76.3007 10.3477C76.2158 11.6517 75.9823 12.7769 75.6003 13.7233C75.2183 14.6487 74.6664 15.469 73.9448 16.1841C73.2444 16.8781 72.3848 17.5091 71.366 18.0769C70.3472 18.6448 69.1587 19.1916 67.8003 19.7174C67.8003 19.8436 67.7897 19.9803 67.7685 20.1275C67.7685 20.2537 67.7685 20.3904 67.7685 20.5377C67.7685 20.8111 67.7897 21.095 67.8321 21.3895C67.8746 21.6839 67.9489 21.9573 68.055 22.2097C68.1611 22.4621 68.3097 22.6724 68.5007 22.8407C68.6917 22.9879 68.9358 23.0615 69.233 23.0615C69.806 23.0615 70.3685 22.9353 70.9203 22.6829C71.4721 22.4305 71.9921 22.1256 72.4803 21.768C72.9897 21.3895 73.4566 20.9899 73.8811 20.5692C74.3268 20.1275 74.7195 19.7279 75.0591 19.3704C75.2713 19.5597 75.4517 19.7385 75.6003 19.9067C74.6452 21.1686 73.5946 22.2202 72.4485 23.0615C71.3236 23.8817 70.2517 24.4075 69.233 24.6389C67.7685 24.4706 66.6223 23.9448 65.7946 23.0615C64.9881 22.1571 64.5848 21.074 64.5848 19.8121C64.5848 18.9498 64.7015 18.0769 64.935 17.1936C65.1897 16.2892 65.5293 15.4269 65.9538 14.6067C66.3995 13.7654 66.9089 12.9767 67.4819 12.2406C68.0762 11.5045 68.7023 10.863 69.3603 10.3162C70.0395 9.76933 70.7293 9.33817 71.4297 9.02269C72.1513 8.70721 72.8624 8.54948 73.5628 8.54948C74.5391 8.67567 75.4517 9.27508 76.3007 10.3477ZM74.104 11.3888C73.5309 11.4729 72.9366 11.7043 72.3211 12.0828C71.7056 12.4614 71.1219 12.9662 70.5701 13.5971C70.0395 14.2281 69.5513 14.9642 69.1056 15.8055C68.6599 16.6468 68.3097 17.5511 68.055 18.5186C69.753 17.6773 71.1644 16.6468 72.2893 15.4269C73.4142 14.186 74.0191 12.84 74.104 11.3888Z" fill="white"/>
<path d="M0 41.9639C0 35.3365 5.37258 29.9639 12 29.9639H76.3007V32.9639C76.3007 39.5913 70.9281 44.9639 64.3007 44.9639H0V41.9639Z" fill="#006E46"/>
<path d="M18.5504 40.9739C18.7037 40.2405 18.8504 39.5172 18.9904 38.8039C19.0504 38.5039 19.1104 38.1905 19.1704 37.8639C19.2304 37.5372 19.2871 37.2172 19.3404 36.9039C19.4004 36.5839 19.4504 36.2772 19.4904 35.9839C19.5371 35.6839 19.5771 35.4105 19.6104 35.1639C19.4571 35.1439 19.3004 35.1372 19.1404 35.1439C18.9871 35.1505 18.8337 35.1305 18.6804 35.0839C18.6871 34.9772 18.6904 34.8539 18.6904 34.7139C18.6904 34.5739 18.6937 34.4339 18.7004 34.2939C18.7071 34.1405 18.7137 33.9772 18.7204 33.8039C18.8937 33.8172 19.0671 33.8272 19.2404 33.8339C19.4137 33.8405 19.5871 33.8439 19.7604 33.8439C20.1004 33.8439 20.4271 33.8372 20.7404 33.8239C21.0604 33.8039 21.3537 33.7839 21.6204 33.7639C21.8937 33.7372 22.1604 33.7072 22.4204 33.6739L22.3104 34.2139C22.2771 34.3672 22.2437 34.5239 22.2104 34.6839C22.1837 34.8439 22.1571 34.9805 22.1304 35.0939C21.9837 35.1339 21.8337 35.1639 21.6804 35.1839C21.5337 35.1972 21.3871 35.2172 21.2404 35.2439C21.1937 35.4705 21.1437 35.7239 21.0904 36.0039C21.0371 36.2772 20.9837 36.5639 20.9304 36.8639C20.8837 37.1572 20.8371 37.4572 20.7904 37.7639C20.7437 38.0705 20.6971 38.3639 20.6504 38.6439C20.5437 39.3039 20.4437 39.9872 20.3504 40.6939L18.5504 40.9739ZM23.7534 40.9739L25.0634 33.8639L28.2234 33.5939C28.1768 33.7405 28.1368 33.8905 28.1034 34.0439C28.0701 34.1705 28.0368 34.3039 28.0034 34.4439C27.9768 34.5772 27.9534 34.6972 27.9334 34.8039C27.8668 34.8105 27.7701 34.8172 27.6434 34.8239C27.5234 34.8239 27.3934 34.8272 27.2534 34.8339C27.1134 34.8339 26.9701 34.8339 26.8234 34.8339C26.6834 34.8339 26.5601 34.8339 26.4534 34.8339L26.1034 36.6239C26.3101 36.6105 26.5034 36.6005 26.6834 36.5939C26.8301 36.5872 26.9801 36.5839 27.1334 36.5839C27.2868 36.5839 27.4001 36.5805 27.4734 36.5739C27.4468 36.7605 27.4201 36.9439 27.3934 37.1239C27.3734 37.3039 27.3468 37.4872 27.3134 37.6739C27.2468 37.6805 27.1368 37.6872 26.9834 37.6939C26.8368 37.6939 26.6868 37.6972 26.5334 37.7039C26.3601 37.7105 26.1701 37.7172 25.9634 37.7239L25.6234 39.5639L27.0834 39.3339L26.9834 40.4739L23.7534 40.9739ZM33.9116 38.4939C33.9116 38.8672 33.8383 39.2072 33.6916 39.5139C33.5516 39.8139 33.3583 40.0739 33.1116 40.2939C32.8716 40.5139 32.585 40.6839 32.2516 40.8039C31.925 40.9239 31.5716 40.9839 31.1916 40.9839C30.925 40.9839 30.6583 40.9139 30.3916 40.7739C30.125 40.6272 29.8683 40.3972 29.6216 40.0839L30.3616 38.6339C30.4083 38.7205 30.4783 38.8105 30.5716 38.9039C30.665 38.9905 30.7683 39.0672 30.8816 39.1339C31.0016 39.2005 31.1183 39.2572 31.2316 39.3039C31.3516 39.3439 31.4583 39.3639 31.5516 39.3639C31.6316 39.3639 31.715 39.3505 31.8016 39.3239C31.8883 39.2972 31.9683 39.2572 32.0416 39.2039C32.115 39.1505 32.1716 39.0905 32.2116 39.0239C32.2583 38.9505 32.2816 38.8672 32.2816 38.7739C32.2816 38.6139 32.2283 38.4672 32.1216 38.3339C32.0216 38.1939 31.895 38.0639 31.7416 37.9439C31.5883 37.8172 31.4216 37.6905 31.2416 37.5639C31.0616 37.4372 30.895 37.3039 30.7416 37.1639C30.595 37.0239 30.4683 36.8672 30.3616 36.6939C30.255 36.5205 30.2016 36.3272 30.2016 36.1139C30.2016 35.7672 30.305 35.4439 30.5116 35.1439C30.7183 34.8439 30.975 34.5872 31.2816 34.3739C31.595 34.1539 31.935 33.9805 32.3016 33.8539C32.6683 33.7272 33.015 33.6639 33.3416 33.6639C33.5216 33.6639 33.6916 33.6872 33.8516 33.7339C34.0116 33.7739 34.1483 33.8439 34.2616 33.9439C34.3816 34.0372 34.475 34.1572 34.5416 34.3039C34.615 34.4505 34.6516 34.6339 34.6516 34.8539C34.6516 34.9472 34.6416 35.0405 34.6216 35.1339C34.6083 35.2272 34.595 35.3272 34.5816 35.4339L33.1316 35.8539C33.145 35.8005 33.155 35.7472 33.1616 35.6939C33.175 35.6405 33.1816 35.5872 33.1816 35.5339C33.1816 35.3339 33.145 35.1905 33.0716 35.1039C33.005 35.0105 32.915 34.9639 32.8016 34.9639C32.7483 34.9639 32.6816 34.9839 32.6016 35.0239C32.5283 35.0639 32.4516 35.1172 32.3716 35.1839C32.2983 35.2439 32.235 35.3172 32.1816 35.4039C32.1283 35.4905 32.1016 35.5839 32.1016 35.6839C32.1016 35.8439 32.145 35.9772 32.2316 36.0839C32.325 36.1905 32.4383 36.2905 32.5716 36.3839C32.705 36.4772 32.8483 36.5739 33.0016 36.6739C33.1616 36.7672 33.3083 36.8905 33.4416 37.0439C33.575 37.1972 33.685 37.3905 33.7716 37.6239C33.865 37.8505 33.9116 38.1405 33.9116 38.4939ZM37.0785 40.9739C37.2318 40.2405 37.3785 39.5172 37.5185 38.8039C37.5785 38.5039 37.6385 38.1905 37.6985 37.8639C37.7585 37.5372 37.8152 37.2172 37.8685 36.9039C37.9285 36.5839 37.9785 36.2772 38.0185 35.9839C38.0652 35.6839 38.1052 35.4105 38.1385 35.1639C37.9852 35.1439 37.8285 35.1372 37.6685 35.1439C37.5152 35.1505 37.3618 35.1305 37.2085 35.0839C37.2152 34.9772 37.2185 34.8539 37.2185 34.7139C37.2185 34.5739 37.2218 34.4339 37.2285 34.2939C37.2352 34.1405 37.2418 33.9772 37.2485 33.8039C37.4218 33.8172 37.5952 33.8272 37.7685 33.8339C37.9418 33.8405 38.1152 33.8439 38.2885 33.8439C38.6285 33.8439 38.9552 33.8372 39.2685 33.8239C39.5885 33.8039 39.8818 33.7839 40.1485 33.7639C40.4218 33.7372 40.6885 33.7072 40.9485 33.6739L40.8385 34.2139C40.8052 34.3672 40.7718 34.5239 40.7385 34.6839C40.7118 34.8439 40.6852 34.9805 40.6585 35.0939C40.5118 35.1339 40.3619 35.1639 40.2085 35.1839C40.0618 35.1972 39.9152 35.2172 39.7685 35.2439C39.7218 35.4705 39.6718 35.7239 39.6185 36.0039C39.5652 36.2772 39.5118 36.5639 39.4585 36.8639C39.4118 37.1572 39.3652 37.4572 39.3185 37.7639C39.2718 38.0705 39.2252 38.3639 39.1785 38.6439C39.0718 39.3039 38.9718 39.9872 38.8785 40.6939L37.0785 40.9739ZM42.2616 41.0139C42.4482 40.0739 42.6282 39.1572 42.8016 38.2639C42.8682 37.8905 42.9382 37.5005 43.0116 37.0939C43.0916 36.6805 43.1649 36.2772 43.2316 35.8839C43.2982 35.4839 43.3582 35.1005 43.4116 34.7339C43.4716 34.3605 43.5182 34.0205 43.5516 33.7139C43.7582 33.7005 43.9582 33.6872 44.1516 33.6739C44.3249 33.6605 44.5016 33.6505 44.6816 33.6439C44.8616 33.6305 45.0216 33.6172 45.1616 33.6039C45.2482 34.1172 45.3249 34.6072 45.3916 35.0739C45.4249 35.2739 45.4582 35.4839 45.4916 35.7039C45.5316 35.9172 45.5682 36.1239 45.6016 36.3239C45.6349 36.5239 45.6682 36.7172 45.7016 36.9039C45.7349 37.0839 45.7682 37.2439 45.8016 37.3839C45.8282 37.2439 45.8582 37.0839 45.8916 36.9039C45.9249 36.7172 45.9616 36.5239 46.0016 36.3239C46.0416 36.1172 46.0816 35.9072 46.1216 35.6939C46.1682 35.4805 46.2116 35.2739 46.2516 35.0739C46.3516 34.6072 46.4549 34.1205 46.5616 33.6139L47.7816 33.4639C47.5549 34.4639 47.3549 35.4105 47.1816 36.3039C47.1016 36.6905 47.0216 37.0805 46.9416 37.4739C46.8682 37.8672 46.7982 38.2472 46.7316 38.6139C46.6649 38.9805 46.6082 39.3205 46.5616 39.6339C46.5149 39.9405 46.4782 40.2005 46.4516 40.4139C46.4316 40.4139 46.3516 40.4305 46.2116 40.4639C46.0782 40.4905 45.9216 40.5239 45.7416 40.5639C45.5682 40.6039 45.3916 40.6472 45.2116 40.6939C45.0382 40.7339 44.9082 40.7672 44.8216 40.7939C44.7749 40.2539 44.7249 39.7405 44.6716 39.2539C44.6516 39.0472 44.6282 38.8339 44.6016 38.6139C44.5749 38.3939 44.5482 38.1839 44.5216 37.9839C44.5016 37.7839 44.4782 37.5972 44.4516 37.4239C44.4316 37.2439 44.4116 37.0939 44.3916 36.9739C44.3716 37.0939 44.3449 37.2405 44.3116 37.4139C44.2782 37.5872 44.2449 37.7739 44.2116 37.9739C44.1782 38.1672 44.1449 38.3705 44.1116 38.5839C44.0782 38.7905 44.0416 38.9939 44.0016 39.1939C43.9149 39.6672 43.8216 40.1605 43.7216 40.6739L42.2616 41.0139ZM49.2128 40.9739L50.5228 33.8639L53.6828 33.5939C53.6361 33.7405 53.5961 33.8905 53.5628 34.0439C53.5295 34.1705 53.4961 34.3039 53.4628 34.4439C53.4361 34.5772 53.4128 34.6972 53.3928 34.8039C53.3261 34.8105 53.2295 34.8172 53.1028 34.8239C52.9828 34.8239 52.8528 34.8272 52.7128 34.8339C52.5728 34.8339 52.4295 34.8339 52.2828 34.8339C52.1428 34.8339 52.0195 34.8339 51.9128 34.8339L51.5628 36.6239C51.7695 36.6105 51.9628 36.6005 52.1428 36.5939C52.2895 36.5872 52.4395 36.5839 52.5928 36.5839C52.7461 36.5839 52.8595 36.5805 52.9328 36.5739C52.9061 36.7605 52.8795 36.9439 52.8528 37.1239C52.8328 37.3039 52.8061 37.4872 52.7728 37.6739C52.7061 37.6805 52.5961 37.6872 52.4428 37.6939C52.2961 37.6939 52.1461 37.6972 51.9928 37.7039C51.8195 37.7105 51.6295 37.7172 51.4228 37.7239L51.0828 39.5639L52.5428 39.3339L52.4428 40.4739L49.2128 40.9739ZM55.841 40.9739C55.9944 40.2405 56.141 39.5172 56.281 38.8039C56.341 38.5039 56.401 38.1905 56.461 37.8639C56.521 37.5372 56.5777 37.2172 56.631 36.9039C56.691 36.5839 56.741 36.2772 56.781 35.9839C56.8277 35.6839 56.8677 35.4105 56.901 35.1639C56.7477 35.1439 56.591 35.1372 56.431 35.1439C56.2777 35.1505 56.1244 35.1305 55.971 35.0839C55.9777 34.9772 55.981 34.8539 55.981 34.7139C55.981 34.5739 55.9844 34.4339 55.991 34.2939C55.9977 34.1405 56.0044 33.9772 56.011 33.8039C56.1844 33.8172 56.3577 33.8272 56.531 33.8339C56.7044 33.8405 56.8777 33.8439 57.051 33.8439C57.391 33.8439 57.7177 33.8372 58.031 33.8239C58.351 33.8039 58.6444 33.7839 58.911 33.7639C59.1844 33.7372 59.451 33.7072 59.711 33.6739L59.601 34.2139C59.5677 34.3672 59.5344 34.5239 59.501 34.6839C59.4744 34.8439 59.4477 34.9805 59.421 35.0939C59.2744 35.1339 59.1244 35.1639 58.971 35.1839C58.8244 35.1972 58.6777 35.2172 58.531 35.2439C58.4844 35.4705 58.4344 35.7239 58.381 36.0039C58.3277 36.2772 58.2744 36.5639 58.221 36.8639C58.1744 37.1572 58.1277 37.4572 58.081 37.7639C58.0344 38.0705 57.9877 38.3639 57.941 38.6439C57.8344 39.3039 57.7344 39.9872 57.641 40.6939L55.841 40.9739Z" fill="white"/>
</svg>
