<svg width="100" height="48" viewBox="0 0 100 48" fill="none" xmlns="http://www.w3.org/2000/svg">
<path d="M11.5983 17.2955C13.2804 14.7995 14.9354 12.507 16.5632 10.418C18.2181 8.30184 19.7917 6.48412 21.2838 4.96483C22.776 3.44553 24.1461 2.26537 25.394 1.42434C26.642 0.5833 27.7272 0.162782 28.6497 0.162782C29.0024 0.162782 29.3822 0.298433 29.7891 0.569734C30.2232 0.841036 30.6166 1.19373 30.9693 1.62781C31.3491 2.06189 31.6611 2.53667 31.9053 3.05215C32.1495 3.54049 32.2715 4.01527 32.2715 4.47648C30.5895 5.01908 28.9345 5.73803 27.3067 6.63333C25.706 7.50149 24.1596 8.51888 22.6675 9.68548C21.2024 10.8249 19.7917 12.1001 18.4352 13.5108C17.1058 14.9216 15.8985 16.4273 14.8133 18.028C15.2474 19.1403 15.7764 20.3341 16.4004 21.6092C17.0515 22.8572 17.7569 24.078 18.5165 25.2718C19.2762 26.4384 20.0901 27.5236 20.9583 28.5274C21.8264 29.5312 22.7082 30.3315 23.6035 30.9284C23.4678 31.2268 23.2372 31.5117 22.9116 31.783C22.5861 32.0543 22.2334 32.2985 21.8536 32.5155C21.4737 32.7597 21.0668 32.9496 20.6327 33.0853C20.2257 33.2209 19.8459 33.2887 19.4932 33.2887C18.7878 33.2887 18.1367 32.9496 17.5399 32.2713C16.943 31.6202 16.3326 30.63 15.7086 29.3006C15.1117 27.9441 14.4741 26.2756 13.7959 24.2951C13.1448 22.2874 12.4123 19.9542 11.5983 17.2955ZM5.45336 33.4922C4.42242 33.248 3.56782 32.814 2.88956 32.19C2.21131 31.5931 1.58731 30.8335 1.01758 29.911C1.26175 29.3956 1.54662 28.7173 1.87218 27.8763C2.22487 27.0352 2.64539 26.0043 3.13373 24.7834C3.62208 23.5354 4.20537 22.0568 4.88363 20.3476C5.56188 18.6113 6.34866 16.5901 7.24395 14.284C7.81369 12.819 8.2749 11.5846 8.62759 10.5808C9.00742 9.57695 9.31941 8.60027 9.56358 7.65071C9.83489 6.67403 10.0926 5.60238 10.3368 4.43579C10.581 3.26919 10.8658 1.79059 11.1914 0C12.3309 0.217042 13.3618 0.718951 14.2842 1.50573C15.2338 2.2925 16.0477 3.24206 16.726 4.35439C16.4275 4.73422 16.0748 5.31752 15.6679 6.10429C15.2881 6.86394 14.854 7.78636 14.3656 8.87157C13.8773 9.95678 13.3347 11.1641 12.7378 12.4934C12.141 13.8228 11.517 15.2336 10.8658 16.7258C9.4008 19.9814 8.24777 22.9657 7.40673 25.6787C6.5657 28.3646 5.91458 30.9691 5.45336 33.4922Z" fill="white"/>
<path d="M25.5292 29.382C25.6648 28.5952 25.8954 27.5643 26.221 26.2891C26.5737 24.9869 26.9806 23.6168 27.4418 22.1789C27.9031 20.7139 28.3914 19.2489 28.9069 17.7838C29.4223 16.3188 29.9243 15.003 30.4126 13.8364C30.7653 12.9954 31.0773 12.3442 31.3486 11.883C31.6199 11.3947 31.9183 10.9877 32.2439 10.6622C32.6237 10.7164 33.0171 10.8114 33.424 10.947C33.831 11.0827 34.2244 11.2455 34.6042 11.4354C34.984 11.6253 35.3232 11.8288 35.6216 12.0458C35.92 12.2357 36.1506 12.4256 36.3134 12.6155C35.5809 13.4837 34.9298 14.474 34.36 15.5863C33.8174 16.6986 33.2613 18.123 32.6915 19.8593C34.1566 18.557 35.4452 17.3091 36.5576 16.1153C37.6971 14.9216 38.7551 13.5922 39.7318 12.1272C39.8946 11.9915 40.1795 11.9237 40.5864 11.9237C40.9662 11.9237 41.3325 11.9915 41.6852 12.1272C42.0379 12.2357 42.282 12.3985 42.4177 12.6155C41.9294 13.9178 41.6852 15.2065 41.6852 16.4816C41.6852 17.6753 41.8615 18.5706 42.2142 19.1675C42.1871 19.3303 41.9972 19.6422 41.6445 20.1035C41.3189 20.5647 40.9527 20.9988 40.5457 21.4057C39.8132 21.0259 39.1621 20.5104 38.5923 19.8593C38.0226 19.181 37.6021 18.4485 37.3308 17.6617C36.0557 18.557 34.9705 19.4388 34.0752 20.3069C33.1799 21.148 32.4067 22.0975 31.7555 23.1556C31.1315 24.1866 30.5889 25.3803 30.1277 26.7368C29.6936 28.0933 29.2731 29.7075 28.8662 31.5795C28.622 31.5524 28.3236 31.4574 27.9709 31.2947C27.6453 31.159 27.3062 30.9827 26.9535 30.7656C26.6279 30.5486 26.3295 30.318 26.0582 30.0738C25.7869 29.8296 25.6106 29.599 25.5292 29.382Z" fill="white"/>
<path d="M55.4532 13.348C55.3447 15.0301 55.0463 16.4816 54.5579 17.7024C54.0696 18.8962 53.3642 19.9542 52.4418 20.8767C51.5465 21.772 50.4477 22.5859 49.1455 23.3184C47.8432 24.0509 46.3239 24.7563 44.5876 25.4345C44.5876 25.5973 44.574 25.7737 44.5469 25.9636C44.5469 26.1264 44.5469 26.3027 44.5469 26.4926C44.5469 26.8453 44.574 27.2116 44.6283 27.5914C44.6825 27.9712 44.7775 28.3239 44.9131 28.6495C45.0488 28.975 45.2387 29.2463 45.4829 29.4634C45.7271 29.6533 46.039 29.7482 46.4189 29.7482C47.1514 29.7482 47.8703 29.5855 48.5757 29.2599C49.2811 28.9343 49.9458 28.5409 50.5698 28.0797C51.2209 27.5914 51.8178 27.0759 52.3604 26.5333C52.9301 25.9636 53.432 25.4481 53.8661 24.9869C54.1374 25.2311 54.368 25.4617 54.5579 25.6787C53.3371 27.3065 51.9941 28.663 50.5291 29.7482C49.0912 30.8063 47.7211 31.4846 46.4189 31.783C44.5469 31.566 43.0819 30.8877 42.0238 29.7482C40.9928 28.5816 40.4774 27.1844 40.4774 25.5566C40.4774 24.4443 40.6266 23.3184 40.925 22.1789C41.2506 21.0123 41.6847 19.9 42.2273 18.8419C42.797 17.7567 43.4481 16.7393 44.1806 15.7898C44.9403 14.8402 45.7406 14.0127 46.5817 13.3074C47.4498 12.602 48.3316 12.0458 49.2268 11.6388C50.1493 11.2319 51.0581 11.0284 51.9534 11.0284C53.2014 11.1912 54.368 11.9644 55.4532 13.348ZM52.6452 14.691C51.9127 14.7995 51.1531 15.0979 50.3663 15.5863C49.5795 16.0746 48.8335 16.7258 48.1281 17.5397C47.4498 18.3536 46.8258 19.3031 46.2561 20.3883C45.6864 21.4735 45.2387 22.6401 44.9131 23.8881C47.0836 22.8029 48.8877 21.4735 50.3256 19.9C51.7635 18.2993 52.5367 16.563 52.6452 14.691Z" fill="white"/>
<path d="M69.3424 13.755C69.6137 13.755 69.9257 13.8093 70.2784 13.9178C70.6582 13.9992 70.9973 14.1213 71.2958 14.284C71.5942 14.4197 71.8384 14.5689 72.0283 14.7317C72.2453 14.8945 72.3538 15.0437 72.3538 15.1793C71.8112 16.3188 71.3093 17.4718 70.8481 18.6384C70.3869 19.7779 69.9935 20.8767 69.668 21.9348C69.3424 22.9928 69.0846 23.9831 68.8947 24.9055C68.732 25.8279 68.6506 26.6283 68.6506 27.3065C68.6506 28.0662 68.732 28.7037 68.8947 29.2192C69.0575 29.7075 69.3288 30.0602 69.7086 30.2773C69.3831 30.4943 68.9626 30.6707 68.4471 30.8063C67.9316 30.942 67.4704 31.0098 67.0635 31.0098C65.5984 31.0098 64.8659 30.006 64.8659 27.9983C64.8659 26.4519 65.3814 24.3358 66.4123 21.6499C65.8697 22.8979 65.2457 24.078 64.5403 25.1904C63.835 26.2756 63.116 27.2387 62.3835 28.0797C61.651 28.9208 60.9049 29.6126 60.1453 30.1552C59.4127 30.6707 58.7345 30.9827 58.1105 31.0912C57.1067 31.0369 56.2928 30.5621 55.6688 29.6669C55.0448 28.7444 54.7328 27.5778 54.7328 26.1671C54.7328 24.6478 55.0583 23.0471 55.7095 21.365C56.3606 19.6829 57.1881 18.123 58.1919 16.6851C59.2228 15.2472 60.3352 14.0534 61.5289 13.1039C62.7226 12.1272 63.8757 11.6117 64.988 11.5575C65.2593 11.6388 65.5577 11.8016 65.8833 12.0458C66.236 12.29 66.5615 12.5748 66.86 12.9004C67.1855 13.226 67.4568 13.5651 67.6739 13.9178C67.8909 14.2433 68.013 14.5282 68.0401 14.7724C66.9549 14.9352 65.829 15.4642 64.6624 16.3595C63.523 17.2548 62.4785 18.34 61.5289 19.6151C60.6065 20.8631 59.8468 22.2061 59.25 23.6439C58.6531 25.0818 58.3547 26.4248 58.3547 27.6728C58.3547 28.1883 58.5446 28.5138 58.9244 28.6495C59.7112 28.4867 60.62 27.822 61.651 26.6554C62.6819 25.4617 63.9299 23.6304 65.395 21.1615C65.6663 20.6732 65.9647 20.1306 66.2902 19.5337C66.6429 18.9369 66.9956 18.3129 67.3483 17.6617C67.701 17.0106 68.0401 16.3595 68.3657 15.7084C68.7184 15.0301 69.044 14.379 69.3424 13.755Z" fill="white"/>
<path d="M74.1088 14.6096C73.9732 14.4468 73.8511 14.1077 73.7426 13.5922C73.634 13.0496 73.5798 12.5884 73.5798 12.2086C74.2852 12.2628 74.9634 12.3171 75.6145 12.3714C76.2657 12.3985 76.8625 12.4256 77.4051 12.4528C77.8121 11.6388 78.2462 10.8385 78.7074 10.0517C79.1957 9.23783 79.6569 8.50531 80.091 7.85419C80.5522 7.17593 80.9728 6.6062 81.3526 6.14499C81.7595 5.68377 82.0715 5.38534 82.2886 5.24969C82.5599 5.24969 82.899 5.30395 83.306 5.41247C83.74 5.49386 84.1741 5.61595 84.6082 5.77873C85.0423 5.91438 85.4357 6.0636 85.7884 6.22638C86.1411 6.38916 86.3852 6.55194 86.5209 6.71472C85.707 7.74567 85.0016 8.70879 84.4047 9.60408C83.835 10.4722 83.211 11.4761 82.5327 12.6155C83.0753 12.6155 83.618 12.602 84.1606 12.5748C84.7303 12.5477 85.3 12.507 85.8698 12.4528C86.0054 12.5884 86.1139 12.7648 86.1953 12.9818C86.2767 13.1717 86.3174 13.3752 86.3174 13.5922C84.988 14.0806 83.3738 14.3519 81.4747 14.4061C80.7964 15.7084 80.186 17.0106 79.6434 18.3129C79.1279 19.588 78.6803 20.8224 78.3004 22.0161C77.9477 23.2099 77.6629 24.3358 77.4458 25.3938C77.2559 26.4519 77.161 27.4015 77.161 28.2425C77.161 29.4362 77.6086 30.1009 78.5039 30.2366C79.3178 30.1281 80.091 29.9246 80.8235 29.6262C81.5561 29.3277 82.2072 28.9479 82.7769 28.4867C82.9397 28.7309 83.0347 28.9343 83.0618 29.0971C82.899 29.3413 82.6141 29.6262 82.2072 29.9517C81.8274 30.2773 81.4068 30.5893 80.9456 30.8877C80.4844 31.2133 80.0368 31.4846 79.6027 31.7016C79.1686 31.9187 78.843 32.0407 78.626 32.0679C77.9477 32.0407 77.2695 31.8915 76.5912 31.6202C75.913 31.3489 75.289 31.0098 74.7192 30.6028C74.1766 30.1959 73.729 29.7482 73.3763 29.2599C73.0236 28.7444 72.8473 28.2425 72.8473 27.7542C72.8473 27.103 72.9287 26.2891 73.0914 25.3125C73.2813 24.3086 73.5391 23.2234 73.8646 22.0568C74.1902 20.8902 74.57 19.6694 75.0041 18.3943C75.4382 17.1191 75.913 15.8576 76.4285 14.6096H74.1088Z" fill="white"/>
<path d="M98.5489 13.348C98.4403 15.0301 98.1419 16.4816 97.6536 17.7024C97.1652 18.8962 96.4598 19.9542 95.5374 20.8767C94.6421 21.772 93.5434 22.5859 92.2411 23.3184C90.9389 24.0509 89.4196 24.7563 87.6832 25.4345C87.6832 25.5973 87.6697 25.7737 87.6425 25.9636C87.6425 26.1264 87.6425 26.3027 87.6425 26.4926C87.6425 26.8453 87.6697 27.2116 87.7239 27.5914C87.7782 27.9712 87.8732 28.3239 88.0088 28.6495C88.1445 28.975 88.3344 29.2463 88.5785 29.4634C88.8227 29.6533 89.1347 29.7482 89.5145 29.7482C90.247 29.7482 90.966 29.5855 91.6714 29.2599C92.3768 28.9343 93.0414 28.5409 93.6654 28.0797C94.3166 27.5914 94.9134 27.0759 95.456 26.5333C96.0258 25.9636 96.5277 25.4481 96.9618 24.9869C97.2331 25.2311 97.4637 25.4617 97.6536 25.6787C96.4327 27.3065 95.0898 28.663 93.6247 29.7482C92.1868 30.8063 90.8168 31.4846 89.5145 31.783C87.6425 31.566 86.1775 30.8877 85.1194 29.7482C84.0885 28.5816 83.573 27.1844 83.573 25.5566C83.573 24.4443 83.7222 23.3184 84.0207 22.1789C84.3462 21.0123 84.7803 19.9 85.3229 18.8419C85.8926 17.7567 86.5438 16.7393 87.2763 15.7898C88.0359 14.8402 88.8363 14.0127 89.6773 13.3074C90.5455 12.602 91.4272 12.0458 92.3225 11.6388C93.2449 11.2319 94.1538 11.0284 95.0491 11.0284C96.2971 11.1912 97.4637 11.9644 98.5489 13.348ZM95.7409 14.691C95.0084 14.7995 94.2487 15.0979 93.462 15.5863C92.6752 16.0746 91.9291 16.7258 91.2237 17.5397C90.5455 18.3536 89.9215 19.3031 89.3517 20.3883C88.782 21.4735 88.3344 22.6401 88.0088 23.8881C90.1792 22.8029 91.9834 21.4735 93.4213 19.9C94.8592 18.2993 95.6324 16.563 95.7409 14.691Z" fill="white"/>
<g clip-path="url(#clip0_16635_43167)">
<path d="M99.4563 41.7012C63.7068 33.274 5.48703 43.3736 1.64595 42.9609C-1.37204 42.6568 -0.055099 47.0224 3.97803 47.9998C5.65165 48.3907 68.5904 32.6007 95.4231 44.503C96.9047 45.1546 100.746 42.0052 99.4563 41.7012Z" fill="white"/>
</g>
<defs>
<clipPath id="clip0_16635_43167">
<rect width="99.7034" height="9.66513" fill="white" transform="translate(0 38.335)"/>
</clipPath>
</defs>
</svg>
