<svg width="78" height="48" viewBox="0 0 78 48" fill="none" xmlns="http://www.w3.org/2000/svg">
<path d="M9.07443 13.4078C10.3903 11.4729 11.685 9.69572 12.9585 8.07626C14.2532 6.43577 15.4842 5.02663 16.6516 3.84884C17.8189 2.67105 18.8908 1.75617 19.8671 1.10418C20.8434 0.452187 21.6924 0.126192 22.414 0.126192C22.6899 0.126192 22.9871 0.231352 23.3054 0.441671C23.645 0.65199 23.9528 0.925405 24.2287 1.26192C24.5259 1.59843 24.7699 1.96648 24.961 2.36609C25.152 2.74467 25.2475 3.11272 25.2475 3.47027C23.9316 3.89091 22.6369 4.44825 21.3634 5.1423C20.1112 5.81533 18.9014 6.60402 17.734 7.5084C16.5879 8.39174 15.4842 9.38024 14.423 10.4739C13.383 11.5676 12.4385 12.7348 11.5895 13.9757C11.9291 14.838 12.343 15.7634 12.8312 16.7519C13.3405 17.7194 13.8924 18.6658 14.4867 19.5912C15.081 20.4956 15.7177 21.3369 16.3969 22.1151C17.0761 22.8932 17.7659 23.5137 18.4663 23.9764C18.3601 24.2077 18.1797 24.4286 17.925 24.6389C17.6703 24.8492 17.3944 25.0385 17.0973 25.2068C16.8001 25.396 16.4818 25.5433 16.1422 25.6484C15.8238 25.7536 15.5267 25.8062 15.2508 25.8062C14.6989 25.8062 14.1895 25.5433 13.7226 25.0175C13.2557 24.5127 12.7781 23.745 12.2899 22.7145C11.823 21.6629 11.3242 20.3694 10.7936 18.8341C10.2842 17.2777 9.71116 15.469 9.07443 13.4078ZM4.26708 25.9639C3.46055 25.7746 2.79198 25.4381 2.26136 24.9544C1.73075 24.4917 1.24259 23.9028 0.796875 23.1877C0.987895 22.7881 1.21075 22.2623 1.46545 21.6103C1.74136 20.9583 2.07034 20.1591 2.45239 19.2127C2.83443 18.2452 3.29075 17.0989 3.82137 15.7739C4.35198 14.4279 4.96749 12.861 5.6679 11.0733C6.11361 9.93758 6.47443 8.98063 6.75034 8.20245C7.04749 7.42427 7.29157 6.66712 7.48259 5.931C7.69483 5.17385 7.89647 4.34309 8.08749 3.43872C8.27851 2.53435 8.50136 1.38811 8.75606 0C9.64749 0.168256 10.454 0.557347 11.1757 1.16727C11.9185 1.7772 12.5552 2.51331 13.0859 3.37562C12.8524 3.67007 12.5765 4.12226 12.2581 4.73218C11.961 5.32108 11.6214 6.03616 11.2393 6.87744C10.8573 7.71871 10.4328 8.65463 9.96585 9.6852C9.49892 10.7158 9.01075 11.8094 8.50136 12.9662C7.35524 15.49 6.4532 17.8035 5.79524 19.9067C5.13728 21.9889 4.6279 24.0079 4.26708 25.9639Z" fill="white"/>
<path d="M19.9728 22.7776C20.0789 22.1676 20.2593 21.3684 20.514 20.3799C20.7899 19.3704 21.1083 18.3083 21.4691 17.1936C21.8299 16.0579 22.212 14.9221 22.6152 13.7864C23.0185 12.6507 23.4112 11.6307 23.7932 10.7263C24.0691 10.0743 24.3132 9.56952 24.5254 9.21198C24.7377 8.83341 24.9712 8.51793 25.2258 8.26554C25.523 8.30761 25.8307 8.38122 26.1491 8.48638C26.4675 8.59154 26.7752 8.71773 27.0724 8.86495C27.3695 9.01218 27.6348 9.16992 27.8683 9.33817C28.1018 9.4854 28.2822 9.63262 28.4095 9.77984C27.8365 10.4529 27.3271 11.2205 26.8814 12.0828C26.4569 12.9451 26.0218 14.0493 25.5761 15.3954C26.7222 14.3858 27.7303 13.4184 28.6005 12.493C29.492 11.5676 30.3197 10.537 31.0838 9.40127C31.2112 9.29611 31.434 9.24353 31.7524 9.24353C32.0495 9.24353 32.3361 9.29611 32.612 9.40127C32.8879 9.48539 33.0789 9.61159 33.185 9.77984C32.803 10.7894 32.612 11.7884 32.612 12.7769C32.612 13.7023 32.7499 14.3963 33.0258 14.8591C33.0046 14.9852 32.8561 15.2271 32.5801 15.5847C32.3254 15.9422 32.0389 16.2787 31.7205 16.5942C31.1475 16.2997 30.6381 15.9001 30.1924 15.3954C29.7467 14.8696 29.4177 14.3017 29.2054 13.6918C28.2079 14.3858 27.3589 15.0694 26.6585 15.7424C25.9581 16.3944 25.3532 17.1305 24.8438 17.9507C24.3556 18.75 23.9312 19.6754 23.5703 20.727C23.2307 21.7786 22.9018 23.03 22.5834 24.4812C22.3924 24.4601 22.1589 24.3865 21.883 24.2603C21.6283 24.1552 21.363 24.0185 21.0871 23.8502C20.8324 23.6819 20.5989 23.5032 20.3867 23.3139C20.1744 23.1246 20.0365 22.9458 19.9728 22.7776Z" fill="white"/>
<path d="M43.383 10.3477C43.2981 11.6517 43.0646 12.7769 42.6826 13.7233C42.3005 14.6487 41.7487 15.469 41.0271 16.1841C40.3267 16.8781 39.4671 17.5091 38.4483 18.0769C37.4295 18.6448 36.2409 19.1916 34.8826 19.7174C34.8826 19.8436 34.872 19.9803 34.8507 20.1275C34.8507 20.2537 34.8507 20.3904 34.8507 20.5377C34.8507 20.8111 34.872 21.095 34.9144 21.3895C34.9569 21.6839 35.0311 21.9573 35.1373 22.2097C35.2434 22.4621 35.392 22.6724 35.583 22.8407C35.774 22.9879 36.0181 23.0615 36.3152 23.0615C36.8883 23.0615 37.4507 22.9353 38.0026 22.6829C38.5544 22.4305 39.0744 22.1256 39.5626 21.768C40.072 21.3895 40.5389 20.9899 40.9634 20.5692C41.4091 20.1275 41.8018 19.7279 42.1413 19.3704C42.3536 19.5597 42.534 19.7385 42.6826 19.9067C41.7275 21.1686 40.6769 22.2202 39.5307 23.0615C38.4058 23.8817 37.334 24.4075 36.3152 24.6389C34.8507 24.4706 33.7046 23.9448 32.8769 23.0615C32.0703 22.1571 31.6671 21.074 31.6671 19.8121C31.6671 18.9498 31.7838 18.0769 32.0173 17.1936C32.272 16.2892 32.6116 15.4269 33.036 14.6067C33.4818 13.7654 33.9911 12.9767 34.5642 12.2406C35.1585 11.5045 35.7846 10.863 36.4426 10.3162C37.1218 9.76933 37.8116 9.33817 38.512 9.02269C39.2336 8.70721 39.9446 8.54948 40.645 8.54948C41.6214 8.67567 42.534 9.27508 43.383 10.3477ZM41.1862 11.3888C40.6132 11.4729 40.0189 11.7043 39.4034 12.0828C38.7879 12.4614 38.2042 12.9662 37.6524 13.5971C37.1218 14.2281 36.6336 14.9642 36.1879 15.8055C35.7422 16.6468 35.392 17.5511 35.1373 18.5186C36.8352 17.6773 38.2467 16.6468 39.3716 15.4269C40.4965 14.186 41.1014 12.84 41.1862 11.3888Z" fill="white"/>
<path d="M54.2488 10.6632C54.461 10.6632 54.7051 10.7052 54.981 10.7894C55.2781 10.8525 55.5435 10.9471 55.7769 11.0733C56.0104 11.1785 56.2014 11.2941 56.35 11.4203C56.5198 11.5465 56.6047 11.6622 56.6047 11.7674C56.1802 12.6507 55.7875 13.5446 55.4267 14.4489C55.0659 15.3323 54.7581 16.1841 54.5035 17.0043C54.2488 17.8246 54.0471 18.5922 53.8986 19.3073C53.7712 20.0224 53.7075 20.6428 53.7075 21.1686C53.7075 21.7575 53.7712 22.2518 53.8986 22.6514C54.0259 23.03 54.2382 23.3034 54.5353 23.4716C54.2806 23.6399 53.9516 23.7766 53.5484 23.8817C53.1451 23.9869 52.7843 24.0395 52.4659 24.0395C51.3198 24.0395 50.7467 23.2613 50.7467 21.7049C50.7467 20.5061 51.15 18.8656 51.9565 16.7835C51.532 17.7509 51.0439 18.6658 50.492 19.5281C49.9402 20.3694 49.3777 21.116 48.8047 21.768C48.2316 22.42 47.6479 22.9563 47.0537 23.377C46.4806 23.7766 45.95 24.0185 45.4618 24.1026C44.6765 24.0605 44.0398 23.6925 43.5516 22.9984C43.0635 22.2833 42.8194 21.3789 42.8194 20.2853C42.8194 19.1075 43.0741 17.8666 43.5835 16.5626C44.0928 15.2587 44.7402 14.0493 45.5255 12.9346C46.332 11.8199 47.2022 10.8945 48.1361 10.1584C49.07 9.40127 49.972 9.00166 50.8422 8.9596C51.0545 9.02269 51.2879 9.14889 51.5426 9.33817C51.8186 9.52746 52.0732 9.7483 52.3067 10.0007C52.5614 10.2531 52.7737 10.516 52.9435 10.7894C53.1133 11.0418 53.2088 11.2626 53.23 11.4519C52.381 11.5781 51.5002 11.9882 50.5875 12.6822C49.6961 13.3763 48.879 14.2176 48.1361 15.2061C47.4145 16.1735 46.8202 17.2146 46.3533 18.3293C45.8863 19.444 45.6528 20.4851 45.6528 21.4526C45.6528 21.8522 45.8014 22.1045 46.0986 22.2097C46.7141 22.0835 47.4251 21.5682 48.2316 20.6639C49.0382 19.7385 50.0145 18.3188 51.1606 16.4049C51.3728 16.0263 51.6063 15.6057 51.861 15.143C52.1369 14.6803 52.4128 14.1965 52.6888 13.6918C52.9647 13.187 53.23 12.6822 53.4847 12.1775C53.7606 11.6517 54.0153 11.1469 54.2488 10.6632Z" fill="white"/>
<path d="M57.9776 11.3257C57.8715 11.1995 57.776 10.9366 57.6911 10.537C57.6062 10.1164 57.5638 9.75881 57.5638 9.46436C58.1156 9.50643 58.6462 9.54849 59.1556 9.59056C59.665 9.61159 60.1319 9.63262 60.5564 9.65365C60.8748 9.02269 61.2144 8.40225 61.5752 7.79233C61.9572 7.16137 62.3181 6.59351 62.6576 6.08874C63.0185 5.56294 63.3474 5.12127 63.6446 4.76373C63.9629 4.40619 64.207 4.17484 64.3768 4.06968C64.5891 4.06968 64.8544 4.11174 65.1727 4.19587C65.5123 4.25897 65.8519 4.35361 66.1915 4.4798C66.5311 4.58496 66.8389 4.70063 67.1148 4.82683C67.3907 4.95302 67.5817 5.07921 67.6878 5.2054C67.0511 6.00461 66.4993 6.75125 66.0323 7.4453C65.5866 8.11832 65.0984 8.8965 64.5678 9.77984C64.9923 9.77984 65.4168 9.76933 65.8413 9.74829C66.287 9.72726 66.7327 9.69571 67.1785 9.65365C67.2846 9.75881 67.3695 9.89552 67.4332 10.0638C67.4968 10.211 67.5287 10.3687 67.5287 10.537C66.4887 10.9156 65.2258 11.1259 63.7401 11.1679C63.2095 12.1775 62.7319 13.187 62.3074 14.1965C61.9042 15.185 61.554 16.142 61.2568 17.0674C60.9809 17.9928 60.758 18.8656 60.5882 19.6859C60.4397 20.5061 60.3654 21.2422 60.3654 21.8942C60.3654 22.8196 60.7156 23.3349 61.416 23.4401C62.0527 23.3559 62.6576 23.1982 63.2307 22.9669C63.8038 22.7355 64.3132 22.4411 64.7589 22.0835C64.8862 22.2728 64.9605 22.4305 64.9817 22.5567C64.8544 22.746 64.6315 22.9669 64.3131 23.2192C64.016 23.4716 63.687 23.7135 63.3262 23.9448C62.9654 24.1972 62.6152 24.4075 62.2756 24.5758C61.936 24.7441 61.6813 24.8387 61.5115 24.8597C60.9809 24.8387 60.4503 24.723 59.9197 24.5127C59.3891 24.3024 58.9009 24.0395 58.4552 23.724C58.0307 23.4085 57.6805 23.0615 57.4046 22.6829C57.1287 22.2833 56.9907 21.8942 56.9907 21.5157C56.9907 21.0109 57.0544 20.3799 57.1817 19.6228C57.3303 18.8446 57.5319 18.0033 57.7866 17.0989C58.0413 16.1946 58.3385 15.2481 58.6781 14.2596C59.0176 13.2711 59.3891 12.2932 59.7923 11.3257H57.9776Z" fill="white"/>
<path d="M77.0976 10.3477C77.0127 11.6517 76.7792 12.7769 76.3972 13.7233C76.0151 14.6487 75.4633 15.469 74.7417 16.1841C74.0413 16.8781 73.1817 17.5091 72.1629 18.0769C71.1441 18.6448 69.9555 19.1916 68.5972 19.7174C68.5972 19.8436 68.5866 19.9803 68.5653 20.1275C68.5653 20.2537 68.5653 20.3904 68.5653 20.5377C68.5653 20.8111 68.5866 21.095 68.629 21.3895C68.6715 21.6839 68.7458 21.9573 68.8519 22.2097C68.958 22.4621 69.1066 22.6724 69.2976 22.8407C69.4886 22.9879 69.7327 23.0615 70.0298 23.0615C70.6029 23.0615 71.1653 22.9353 71.7172 22.6829C72.269 22.4305 72.789 22.1256 73.2772 21.768C73.7866 21.3895 74.2535 20.9899 74.678 20.5692C75.1237 20.1275 75.5164 19.7279 75.856 19.3704C76.0682 19.5597 76.2486 19.7385 76.3972 19.9067C75.4421 21.1686 74.3915 22.2202 73.2453 23.0615C72.1204 23.8817 71.0486 24.4075 70.0298 24.6389C68.5653 24.4706 67.4192 23.9448 66.5915 23.0615C65.7849 22.1571 65.3817 21.074 65.3817 19.8121C65.3817 18.9498 65.4984 18.0769 65.7319 17.1936C65.9866 16.2892 66.3262 15.4269 66.7506 14.6067C67.1964 13.7654 67.7058 12.9767 68.2788 12.2406C68.8731 11.5045 69.4992 10.863 70.1572 10.3162C70.8364 9.76933 71.5262 9.33817 72.2266 9.02269C72.9482 8.70721 73.6592 8.54948 74.3596 8.54948C75.336 8.67567 76.2486 9.27508 77.0976 10.3477ZM74.9009 11.3888C74.3278 11.4729 73.7335 11.7043 73.118 12.0828C72.5025 12.4614 71.9188 12.9662 71.367 13.5971C70.8364 14.2281 70.3482 14.9642 69.9025 15.8055C69.4568 16.6468 69.1066 17.5511 68.8519 18.5186C70.5498 17.6773 71.9613 16.6468 73.0862 15.4269C74.2111 14.186 74.816 12.84 74.9009 11.3888Z" fill="white"/>
<path d="M0.796875 47.8895L1.40177 42.2898C1.65116 42.2793 1.88463 42.2556 2.10218 42.2188C2.32504 42.1767 2.54524 42.1478 2.76279 42.132C2.76279 42.1373 2.75483 42.1925 2.73892 42.2977C2.723 42.3976 2.70177 42.5316 2.67524 42.6999C2.64871 42.8629 2.61953 43.0496 2.58769 43.2599C2.55585 43.4649 2.5081 43.7489 2.44443 44.1117C2.38606 44.4745 2.30647 44.9766 2.20565 45.6181H2.32504C2.463 45.1343 2.57708 44.74 2.66728 44.435C2.75749 44.1248 2.82912 43.8751 2.88218 43.6858C2.94055 43.4912 2.99361 43.3046 3.04136 43.1258C3.09443 42.947 3.14218 42.7814 3.18463 42.6289C3.23239 42.4764 3.26953 42.3476 3.29606 42.2425H3.36769C3.4632 42.2425 3.55871 42.2372 3.65422 42.2267C3.75504 42.2162 3.8479 42.2057 3.93279 42.1951C4.023 42.1794 4.11585 42.161 4.21137 42.1399C4.20075 42.1873 4.18749 42.2845 4.17157 42.4317C4.16096 42.579 4.14504 42.7577 4.12381 42.9681C4.10259 43.1731 4.08137 43.4018 4.06014 43.6542C4.03892 43.9014 4.01769 44.1458 3.99647 44.3877C3.97524 44.6243 3.95402 44.8504 3.93279 45.066C3.91688 45.2816 3.90096 45.4656 3.88504 45.6181H4.0283L4.78443 42.2267C4.96483 42.2004 5.14259 42.1767 5.31769 42.1557C5.47157 42.1347 5.63075 42.1136 5.79524 42.0926C5.95973 42.0716 6.10565 42.0479 6.233 42.0216C6.15341 42.2425 6.07381 42.4896 5.99422 42.763C5.91463 43.0312 5.83239 43.3151 5.74749 43.6148C5.66259 43.9145 5.58034 44.2168 5.50075 44.5218C5.42647 44.8268 5.35218 45.1212 5.2779 45.4051C5.1081 46.0782 4.94361 46.7696 4.78443 47.4794L2.98565 47.7791L3.33585 44.7347H3.24034L2.45239 47.5977L0.796875 47.8895Z" fill="white"/>
<path d="M7.30419 47.7002C7.25644 47.7002 7.16358 47.7081 7.02562 47.7239C6.88766 47.7344 6.7444 47.7502 6.59582 47.7712C6.44725 47.787 6.31195 47.8028 6.18991 47.8185C6.07317 47.8343 6.0095 47.8448 5.99889 47.8501C6.06256 47.624 6.12623 47.3742 6.18991 47.1008C6.25358 46.8222 6.31725 46.533 6.38093 46.2333C6.44991 45.9283 6.51358 45.6207 6.57195 45.3105C6.63562 45.0003 6.69664 44.7006 6.75501 44.4114C6.88766 43.7384 7.01766 43.0469 7.14501 42.3371L8.38664 42.1399C8.24868 42.8445 8.11072 43.5359 7.97276 44.2142C7.9144 44.5034 7.85338 44.8031 7.7897 45.1133C7.73134 45.4235 7.67297 45.7311 7.6146 46.0361C7.56154 46.3411 7.50583 46.6381 7.44746 46.9273C7.3944 47.2113 7.34664 47.4689 7.30419 47.7002Z" fill="white"/>
<path d="M9.15228 47.8659C9.27432 47.2875 9.39105 46.717 9.50248 46.1544C9.55024 45.9178 9.59799 45.6707 9.64575 45.413C9.6935 45.1554 9.7386 44.903 9.78105 44.6559C9.82881 44.4035 9.8686 44.1616 9.90044 43.9303C9.93758 43.6937 9.96942 43.4781 9.99595 43.2835C9.87391 43.2678 9.74922 43.2625 9.62187 43.2678C9.49983 43.273 9.37779 43.2573 9.25575 43.2204C9.26105 43.1363 9.26371 43.039 9.26371 42.9286C9.26371 42.8182 9.26636 42.7078 9.27167 42.5974C9.27697 42.4764 9.28228 42.3476 9.28758 42.2109C9.42554 42.2214 9.5635 42.2293 9.70146 42.2346C9.83942 42.2398 9.97738 42.2425 10.1153 42.2425C10.386 42.2425 10.646 42.2372 10.8953 42.2267C11.15 42.2109 11.3835 42.1951 11.5957 42.1794C11.8133 42.1583 12.0255 42.1347 12.2325 42.1084L12.1449 42.5343C12.1184 42.6552 12.0919 42.7788 12.0653 42.905C12.0441 43.0312 12.0229 43.1389 12.0017 43.2283C11.8849 43.2599 11.7655 43.2835 11.6435 43.2993C11.5268 43.3098 11.41 43.3256 11.2933 43.3466C11.2562 43.5254 11.2164 43.7252 11.1739 43.946C11.1315 44.1616 11.089 44.3877 11.0466 44.6243C11.0094 44.8557 10.9723 45.0923 10.9351 45.3342C10.898 45.576 10.8608 45.8074 10.8237 46.0282C10.7388 46.5487 10.6592 47.0877 10.5849 47.645L9.15228 47.8659Z" fill="white"/>
<path d="M12.1872 47.8738C12.3251 47.1482 12.4604 46.4357 12.5931 45.7364C12.6408 45.4419 12.6939 45.137 12.7523 44.8215C12.8106 44.5008 12.8663 44.1853 12.9194 43.8751C12.9725 43.5648 13.0229 43.2651 13.0706 42.9759C13.1184 42.6815 13.1608 42.4133 13.198 42.1715L14.4874 42.0847C14.3972 42.4528 14.3069 42.8366 14.2167 43.2362C14.1318 43.6358 14.0523 44.0249 13.978 44.4035L14.7659 44.3167C14.8402 43.9434 14.9065 43.5832 14.9649 43.2362C15.0233 42.8839 15.1002 42.5211 15.1957 42.1478C15.3178 42.1268 15.4531 42.111 15.6016 42.1005C15.7502 42.0847 15.8882 42.0716 16.0155 42.0611C16.1429 42.0505 16.249 42.0427 16.3339 42.0374C16.4241 42.0269 16.4692 42.0216 16.4692 42.0216C16.3949 42.2582 16.3233 42.5185 16.2543 42.8024C16.1906 43.0811 16.1269 43.3729 16.0633 43.6779C15.9996 43.9776 15.9386 44.2826 15.8802 44.5928C15.8218 44.903 15.7688 45.1974 15.721 45.4761C15.6043 46.1439 15.4955 46.8274 15.3947 47.5267L14.1531 47.6687C14.222 47.3532 14.2831 47.0456 14.3361 46.7459C14.3892 46.4935 14.4423 46.2306 14.4953 45.9572C14.5537 45.6838 14.5988 45.4498 14.6306 45.2553L13.8586 45.3263C13.8214 45.5261 13.7763 45.7574 13.7233 46.0203C13.6755 46.2832 13.6304 46.533 13.588 46.7696C13.5296 47.0535 13.4712 47.3374 13.4129 47.6214L12.1872 47.8738Z" fill="white"/>
<path d="M19.3957 47.7397L19.7619 46.1544C19.7619 45.9283 19.7566 45.6838 19.746 45.4209C19.7406 45.1528 19.73 44.8846 19.7141 44.6164C19.6982 44.3483 19.6823 44.0906 19.6664 43.8435C19.6504 43.5911 19.6372 43.3703 19.6266 43.181C19.616 42.9865 19.6053 42.8314 19.5947 42.7157C19.5841 42.6 19.5788 42.5422 19.5788 42.5422L20.8762 42.0532V43.0154C20.8762 43.1468 20.8762 43.2809 20.8762 43.4176C20.8762 43.5543 20.8735 43.6884 20.8682 43.8199C20.8682 43.9513 20.8682 44.0749 20.8682 44.1905C20.8682 44.3062 20.8682 44.4035 20.8682 44.4824C20.9372 44.3036 21.0194 44.0828 21.1149 43.8199C21.2157 43.557 21.3086 43.3019 21.3935 43.0548C21.4943 42.7656 21.5978 42.4607 21.7039 42.1399L22.9376 42.416C22.7094 42.8682 22.4866 43.3177 22.269 43.7646C22.1788 43.9592 22.0833 44.1616 21.9825 44.3719C21.8817 44.577 21.7808 44.7847 21.68 44.995C21.5792 45.2001 21.4811 45.3999 21.3855 45.5944C21.29 45.789 21.2025 45.9704 21.1229 46.1386C21.0964 46.2753 21.0619 46.4252 21.0194 46.5882C20.9823 46.7512 20.9451 46.9063 20.908 47.0535C20.8602 47.227 20.8098 47.4005 20.7568 47.5741L19.3957 47.7397Z" fill="white"/>
<path d="M27.0906 43.5911C27.0906 44.0223 27.0428 44.4298 26.9473 44.8136C26.8571 45.1922 26.7351 45.5418 26.5812 45.8626C26.4273 46.1781 26.2469 46.462 26.04 46.7144C25.8384 46.9615 25.6261 47.1744 25.4033 47.3532C25.1804 47.5267 24.9549 47.6608 24.7267 47.7555C24.4986 47.8448 24.281 47.8895 24.0741 47.8895C23.899 47.8895 23.7398 47.858 23.5965 47.7949C23.4533 47.7265 23.3286 47.6293 23.2224 47.5031C23.1163 47.3716 23.0314 47.206 22.9677 47.0062C22.9094 46.8011 22.8802 46.5566 22.8802 46.2727C22.8802 45.9783 22.9173 45.668 22.9916 45.342C23.0659 45.016 23.1667 44.6927 23.2941 44.3719C23.4214 44.0512 23.5779 43.7462 23.7637 43.4571C23.9494 43.1679 24.1537 42.9129 24.3765 42.692C24.5994 42.4659 24.8382 42.2872 25.0928 42.1557C25.3475 42.0243 25.6128 41.9585 25.8888 41.9585C26.1275 41.9585 26.3239 42.0085 26.4777 42.1084C26.6369 42.203 26.759 42.3292 26.8439 42.487C26.9341 42.6394 26.9977 42.813 27.0349 43.0075C27.072 43.202 27.0906 43.3966 27.0906 43.5911ZM24.0661 46.0676C24.0661 46.1255 24.0767 46.1859 24.0979 46.249C24.1192 46.3121 24.1484 46.3673 24.1855 46.4147C24.2226 46.462 24.2677 46.5041 24.3208 46.5409C24.3792 46.5724 24.4402 46.5882 24.5039 46.5882C24.7426 46.5882 24.9549 46.5067 25.1406 46.3437C25.3263 46.1807 25.4802 45.9809 25.6022 45.7443C25.7243 45.5077 25.8171 45.2553 25.8808 44.9871C25.9498 44.719 25.9843 44.4745 25.9843 44.2536C25.9843 44.1905 25.979 44.1222 25.9684 44.0486C25.963 43.975 25.9471 43.9066 25.9206 43.8435C25.8994 43.7804 25.8622 43.7278 25.8092 43.6858C25.7614 43.6385 25.6951 43.6148 25.6102 43.6148C25.4404 43.6148 25.2839 43.6569 25.1406 43.741C24.9973 43.8251 24.8673 43.9382 24.7506 44.0801C24.6392 44.2168 24.541 44.3746 24.4561 44.5533C24.3712 44.7269 24.2969 44.9056 24.2333 45.0897C24.1749 45.2684 24.1324 45.4446 24.1059 45.6181C24.0794 45.7916 24.0661 45.9414 24.0661 46.0676Z" fill="white"/>
<path d="M30.6656 46.32C30.5913 46.6197 30.4852 46.8747 30.3472 47.0851C30.2146 47.2954 30.0554 47.4689 29.8697 47.6056C29.6893 47.7423 29.4956 47.8422 29.2886 47.9053C29.0817 47.9684 28.8748 47.9999 28.6678 47.9999C28.5458 47.9999 28.4211 47.9789 28.2937 47.9369C28.1664 47.9 28.0523 47.8422 27.9515 47.7633C27.8507 47.6845 27.7658 47.5846 27.6968 47.4636C27.6331 47.3427 27.6013 47.2007 27.6013 47.0377C27.6013 47.0167 27.6013 46.9957 27.6013 46.9746C27.6013 46.9536 27.6039 46.9326 27.6093 46.9115C27.6305 46.696 27.665 46.4357 27.7127 46.1307C27.7605 45.8258 27.8109 45.5077 27.8639 45.1764C27.917 44.8452 27.9754 44.5139 28.039 44.1827C28.1027 43.8461 28.1584 43.5412 28.2062 43.2678C28.2593 42.9944 28.3044 42.7683 28.3415 42.5895C28.3786 42.4055 28.4025 42.2924 28.4131 42.2503C28.5246 42.2398 28.6572 42.2267 28.8111 42.2109C28.965 42.1951 29.1082 42.182 29.2409 42.1715C29.4054 42.1557 29.5672 42.1399 29.7264 42.1242C29.5884 42.7604 29.4664 43.3361 29.3603 43.8514C29.3125 44.0722 29.2648 44.2931 29.217 44.5139C29.1746 44.7347 29.1321 44.9372 29.0897 45.1212C29.0525 45.3052 29.018 45.4656 28.9862 45.6023C28.9597 45.7338 28.9358 45.8415 28.9146 45.9257C28.8986 46.0098 28.8774 46.1176 28.8509 46.249C28.8297 46.3752 28.819 46.4909 28.819 46.5961C28.819 46.6802 28.8403 46.7512 28.8827 46.809C28.9252 46.8616 28.9782 46.8879 29.0419 46.8879C29.1321 46.8879 29.2064 46.8537 29.2648 46.7854C29.3231 46.7117 29.3709 46.625 29.408 46.5251C29.4505 46.4252 29.4797 46.3253 29.4956 46.2254C29.5168 46.1202 29.5354 46.0387 29.5513 45.9809C29.5831 45.8284 29.6176 45.6601 29.6548 45.4761C29.6972 45.2868 29.737 45.0923 29.7742 44.8925C29.8166 44.6874 29.8564 44.4797 29.8935 44.2694C29.936 44.0591 29.9758 43.854 30.0129 43.6542C30.1031 43.1915 30.1907 42.713 30.2756 42.2188L31.4854 42.1399C31.4854 42.1399 31.4721 42.2083 31.4456 42.345C31.419 42.4817 31.3846 42.6631 31.3421 42.8892C31.2997 43.1153 31.2519 43.3729 31.1988 43.6621C31.1511 43.9513 31.0954 44.2536 31.0317 44.5691C30.968 44.8793 30.9044 45.1869 30.8407 45.4919C30.7823 45.7916 30.7239 46.0676 30.6656 46.32Z" fill="white"/>
<path d="M31.5168 47.8659C31.66 47.1666 31.798 46.483 31.9307 45.8153C31.9784 45.5313 32.0315 45.2369 32.0898 44.9319C32.1482 44.6217 32.2013 44.3167 32.249 44.017C32.3021 43.7121 32.3498 43.4202 32.3923 43.1416C32.44 42.8576 32.4772 42.6 32.5037 42.3687C32.8062 42.274 33.1325 42.2057 33.4827 42.1636C33.8329 42.1163 34.1805 42.0926 34.5253 42.0926C34.7323 42.0926 34.9021 42.1163 35.0347 42.1636C35.1727 42.2109 35.2788 42.2793 35.3531 42.3687C35.4327 42.4528 35.4884 42.5527 35.5202 42.6684C35.5521 42.784 35.568 42.9129 35.568 43.0548C35.568 43.2651 35.5309 43.4728 35.4566 43.6779C35.3823 43.8777 35.2815 44.0696 35.1541 44.2536C35.0321 44.4324 34.8888 44.598 34.7243 44.7505C34.5651 44.8977 34.3927 45.0187 34.207 45.1133C34.3025 45.3236 34.4033 45.555 34.5094 45.8074C34.6209 46.0545 34.7243 46.2911 34.8198 46.5172C34.926 46.7801 35.0347 47.043 35.1462 47.3059L33.9125 47.7318C33.8064 47.369 33.7109 47.0272 33.626 46.7065C33.5888 46.575 33.5517 46.441 33.5145 46.3042C33.4774 46.1623 33.4429 46.0308 33.4111 45.9099C33.3792 45.7837 33.3527 45.6733 33.3315 45.5786C33.3102 45.484 33.297 45.4104 33.2917 45.3578L33.1882 45.3894C33.1564 45.5576 33.1166 45.7627 33.0688 46.0045C33.0264 46.2464 32.9866 46.4804 32.9494 46.7065C32.9017 46.9746 32.8539 47.2507 32.8062 47.5346L31.5168 47.8659ZM33.3872 44.4429C33.488 44.4324 33.61 44.3903 33.7533 44.3167C33.9019 44.2431 34.0425 44.1564 34.1751 44.0565C34.3078 43.9513 34.4219 43.8435 34.5174 43.7331C34.6129 43.6227 34.6607 43.5254 34.6607 43.4413C34.6607 43.3834 34.6421 43.3387 34.6049 43.3072C34.5678 43.2704 34.5147 43.2441 34.4458 43.2283C34.3821 43.2073 34.3105 43.1942 34.2309 43.1889C34.1513 43.1836 34.069 43.181 33.9841 43.181C33.9258 43.181 33.8647 43.1836 33.8011 43.1889C33.7427 43.1889 33.6896 43.1889 33.6419 43.1889L33.3872 44.4429Z" fill="white"/>
<path d="M41.5664 46.1623C41.4391 46.4515 41.2958 46.7039 41.1366 46.9194C40.9828 47.1298 40.8183 47.3085 40.6432 47.4557C40.4734 47.5977 40.3009 47.7029 40.1258 47.7712C39.9507 47.8396 39.7809 47.8738 39.6164 47.8738C39.4519 47.8738 39.3007 47.837 39.1628 47.7633C39.0301 47.6897 38.9134 47.5793 38.8125 47.4321C38.7117 47.2849 38.6295 47.1035 38.5658 46.8879C38.5074 46.6723 38.4783 46.4199 38.4783 46.1307C38.4783 45.6365 38.5472 45.1501 38.6852 44.6716C38.8232 44.1879 39.0168 43.7541 39.2662 43.3703C39.5156 42.9865 39.8101 42.6789 40.1497 42.4475C40.4946 42.2109 40.874 42.0926 41.2879 42.0926C41.4152 42.0926 41.5372 42.1189 41.654 42.1715C41.7707 42.2241 41.8715 42.2977 41.9564 42.3923C42.0413 42.487 42.1077 42.6026 42.1554 42.7393C42.2085 42.876 42.235 43.0285 42.235 43.1968C42.235 43.2283 42.235 43.2625 42.235 43.2993C42.235 43.3309 42.2323 43.365 42.227 43.4018L41.1844 43.6779C41.1207 43.5464 41.0464 43.4807 40.9615 43.4807C40.8766 43.4807 40.7864 43.5307 40.6909 43.6306C40.6007 43.7252 40.5105 43.8514 40.4203 44.0091C40.3301 44.1616 40.2425 44.3351 40.1576 44.5297C40.0728 44.719 39.9985 44.9109 39.9348 45.1054C39.8711 45.3 39.8181 45.4866 39.7756 45.6654C39.7385 45.8389 39.7199 45.9809 39.7199 46.0913C39.7199 46.2596 39.7411 46.3779 39.7836 46.4462C39.8313 46.5146 39.8923 46.5487 39.9666 46.5487C40.025 46.5487 40.0913 46.5277 40.1656 46.4856C40.2399 46.4383 40.3089 46.3805 40.3726 46.3121C40.4362 46.2385 40.4946 46.157 40.5477 46.0676C40.6007 45.9783 40.6379 45.8889 40.6591 45.7995L41.5664 46.1623Z" fill="white"/>
<path d="M46.7165 43.5911C46.7165 44.0223 46.6688 44.4298 46.5733 44.8136C46.483 45.1922 46.361 45.5418 46.2071 45.8626C46.0532 46.1781 45.8728 46.462 45.6659 46.7144C45.4643 46.9615 45.252 47.1744 45.0292 47.3532C44.8063 47.5267 44.5808 47.6608 44.3526 47.7555C44.1245 47.8448 43.9069 47.8895 43.7 47.8895C43.5249 47.8895 43.3657 47.858 43.2224 47.7949C43.0792 47.7265 42.9545 47.6293 42.8484 47.5031C42.7422 47.3716 42.6573 47.206 42.5937 47.0062C42.5353 46.8011 42.5061 46.5566 42.5061 46.2727C42.5061 45.9783 42.5433 45.668 42.6175 45.342C42.6918 45.016 42.7926 44.6927 42.92 44.3719C43.0473 44.0512 43.2039 43.7462 43.3896 43.4571C43.5753 43.1679 43.7796 42.9129 44.0024 42.692C44.2253 42.4659 44.4641 42.2872 44.7188 42.1557C44.9735 42.0243 45.2388 41.9585 45.5147 41.9585C45.7535 41.9585 45.9498 42.0085 46.1037 42.1084C46.2628 42.203 46.3849 42.3292 46.4698 42.487C46.56 42.6394 46.6237 42.813 46.6608 43.0075C46.6979 43.202 46.7165 43.3966 46.7165 43.5911ZM43.692 46.0676C43.692 46.1255 43.7026 46.1859 43.7239 46.249C43.7451 46.3121 43.7743 46.3673 43.8114 46.4147C43.8486 46.462 43.8937 46.5041 43.9467 46.5409C44.0051 46.5724 44.0661 46.5882 44.1298 46.5882C44.3686 46.5882 44.5808 46.5067 44.7665 46.3437C44.9522 46.1807 45.1061 45.9809 45.2281 45.7443C45.3502 45.5077 45.4431 45.2553 45.5067 44.9871C45.5757 44.719 45.6102 44.4745 45.6102 44.2536C45.6102 44.1905 45.6049 44.1222 45.5943 44.0486C45.589 43.975 45.573 43.9066 45.5465 43.8435C45.5253 43.7804 45.4882 43.7278 45.4351 43.6858C45.3873 43.6385 45.321 43.6148 45.2361 43.6148C45.0663 43.6148 44.9098 43.6569 44.7665 43.741C44.6233 43.8251 44.4933 43.9382 44.3765 44.0801C44.2651 44.2168 44.1669 44.3746 44.082 44.5533C43.9971 44.7269 43.9228 44.9056 43.8592 45.0897C43.8008 45.2684 43.7584 45.4446 43.7318 45.6181C43.7053 45.7916 43.692 45.9414 43.692 46.0676Z" fill="white"/>
<path d="M46.7417 47.8107C46.9752 47.1113 47.198 46.4252 47.4103 45.7522C47.5005 45.4682 47.5933 45.1712 47.6888 44.8609C47.7844 44.5507 47.8799 44.2431 47.9754 43.9382C48.0709 43.6332 48.1584 43.3387 48.238 43.0548C48.3229 42.7709 48.3972 42.508 48.4609 42.2661C48.7527 42.2661 49.0286 42.2503 49.2886 42.2188C49.5486 42.1873 49.8299 42.1583 50.1323 42.132C50.1164 42.2477 50.0978 42.3792 50.0766 42.5264C50.0607 42.6684 50.0395 42.8182 50.0129 42.9759C49.9917 43.1337 49.9678 43.2967 49.9413 43.4649C49.9148 43.6332 49.8829 43.8488 49.8458 44.1117C49.8086 44.3746 49.7582 44.7032 49.6946 45.0975H49.798C49.9519 44.6979 50.0793 44.3667 50.1801 44.1038C50.2809 43.8356 50.3631 43.6174 50.4268 43.4492C50.4905 43.2809 50.5541 43.1179 50.6178 42.9602C50.6868 42.7972 50.7505 42.6447 50.8088 42.5027C50.8725 42.3555 50.9309 42.2267 50.9839 42.1163C51.1166 42.1058 51.2413 42.0926 51.358 42.0768C51.4748 42.0611 51.5915 42.0453 51.7082 42.0295C51.825 42.0085 51.9417 41.9901 52.0584 41.9743C52.1805 41.9533 52.3131 41.9296 52.4564 41.9033C52.4033 42.2083 52.3529 42.5211 52.3052 42.8419C52.2574 43.1626 52.215 43.4833 52.1778 43.8041C52.1407 44.1196 52.1035 44.4324 52.0664 44.7426C52.0346 45.0529 52.0054 45.3473 51.9788 45.626C51.9152 46.278 51.8595 46.9142 51.8117 47.5346L50.4268 47.7791C50.4268 47.7528 50.4295 47.6818 50.4348 47.5662C50.4454 47.4505 50.456 47.3085 50.4666 47.1403C50.4825 46.972 50.5011 46.7854 50.5223 46.5803C50.5488 46.3752 50.5727 46.1702 50.5939 45.9651C50.6205 45.76 50.647 45.5629 50.6735 45.3736C50.7001 45.179 50.7266 45.0134 50.7531 44.8767H50.6815C50.6072 45.0975 50.525 45.3315 50.4348 45.5786C50.3446 45.8205 50.2517 46.0676 50.1562 46.32C50.066 46.5724 49.9758 46.8195 49.8856 47.0614C49.7954 47.3033 49.7158 47.5346 49.6468 47.7555C49.4611 47.7607 49.3019 47.7686 49.1693 47.7791C49.0366 47.7844 48.8827 47.7923 48.7076 47.8028L48.9623 44.8767H48.8429C48.8323 44.9451 48.8058 45.0607 48.7633 45.2237C48.7209 45.3815 48.6705 45.5655 48.6121 45.7758C48.559 45.9809 48.5007 46.1965 48.437 46.4226C48.3733 46.6434 48.3123 46.8511 48.2539 47.0456C48.2009 47.2349 48.1558 47.3927 48.1186 47.5188C48.0815 47.6398 48.0603 47.7081 48.055 47.7239L46.7417 47.8107Z" fill="white"/>
<path d="M52.4655 47.8107C52.6989 47.1113 52.9218 46.4252 53.134 45.7522C53.2242 45.4682 53.3171 45.1712 53.4126 44.8609C53.5081 44.5507 53.6036 44.2431 53.6991 43.9382C53.7947 43.6332 53.8822 43.3387 53.9618 43.0548C54.0467 42.7709 54.121 42.508 54.1847 42.2661C54.4765 42.2661 54.7524 42.2503 55.0124 42.2188C55.2724 42.1873 55.5536 42.1583 55.8561 42.132C55.8402 42.2477 55.8216 42.3792 55.8004 42.5264C55.7845 42.6684 55.7632 42.8182 55.7367 42.9759C55.7155 43.1337 55.6916 43.2967 55.6651 43.4649C55.6385 43.6332 55.6067 43.8488 55.5695 44.1117C55.5324 44.3746 55.482 44.7032 55.4183 45.0975H55.5218C55.6757 44.6979 55.803 44.3667 55.9038 44.1038C56.0047 43.8356 56.0869 43.6174 56.1506 43.4492C56.2142 43.2809 56.2779 43.1179 56.3416 42.9602C56.4106 42.7972 56.4742 42.6447 56.5326 42.5027C56.5963 42.3555 56.6547 42.2267 56.7077 42.1163C56.8404 42.1058 56.9651 42.0926 57.0818 42.0768C57.1985 42.0611 57.3153 42.0453 57.432 42.0295C57.5487 42.0085 57.6655 41.9901 57.7822 41.9743C57.9042 41.9533 58.0369 41.9296 58.1802 41.9033C58.1271 42.2083 58.0767 42.5211 58.0289 42.8419C57.9812 43.1626 57.9387 43.4833 57.9016 43.8041C57.8644 44.1196 57.8273 44.4324 57.7902 44.7426C57.7583 45.0529 57.7291 45.3473 57.7026 45.626C57.6389 46.278 57.5832 46.9142 57.5355 47.5346L56.1506 47.7791C56.1506 47.7528 56.1532 47.6818 56.1585 47.5662C56.1691 47.4505 56.1798 47.3085 56.1904 47.1403C56.2063 46.972 56.2249 46.7854 56.2461 46.5803C56.2726 46.3752 56.2965 46.1702 56.3177 45.9651C56.3442 45.76 56.3708 45.5629 56.3973 45.3736C56.4238 45.179 56.4504 45.0134 56.4769 44.8767H56.4053C56.331 45.0975 56.2487 45.3315 56.1585 45.5786C56.0683 45.8205 55.9755 46.0676 55.88 46.32C55.7898 46.5724 55.6996 46.8195 55.6093 47.0614C55.5191 47.3033 55.4396 47.5346 55.3706 47.7555C55.1849 47.7607 55.0257 47.7686 54.893 47.7791C54.7604 47.7844 54.6065 47.7923 54.4314 47.8028L54.6861 44.8767H54.5667C54.5561 44.9451 54.5295 45.0607 54.4871 45.2237C54.4447 45.3815 54.3942 45.5655 54.3359 45.7758C54.2828 45.9809 54.2244 46.1965 54.1608 46.4226C54.0971 46.6434 54.0361 46.8511 53.9777 47.0456C53.9247 47.2349 53.8796 47.3927 53.8424 47.5188C53.8053 47.6398 53.784 47.7081 53.7787 47.7239L52.4655 47.8107Z" fill="white"/>
<path d="M61.739 46.32C61.6648 46.6197 61.5586 46.8747 61.4207 47.0851C61.288 47.2954 61.1288 47.4689 60.9431 47.6056C60.7627 47.7423 60.569 47.8422 60.3621 47.9053C60.1552 47.9684 59.9482 47.9999 59.7413 47.9999C59.6192 47.9999 59.4945 47.9789 59.3672 47.9369C59.2399 47.9 59.1258 47.8422 59.025 47.7633C58.9241 47.6845 58.8392 47.5846 58.7703 47.4636C58.7066 47.3427 58.6748 47.2007 58.6748 47.0377C58.6748 47.0167 58.6748 46.9957 58.6748 46.9746C58.6748 46.9536 58.6774 46.9326 58.6827 46.9115C58.7039 46.696 58.7384 46.4357 58.7862 46.1307C58.8339 45.8258 58.8843 45.5077 58.9374 45.1764C58.9905 44.8452 59.0488 44.5139 59.1125 44.1827C59.1762 43.8461 59.2319 43.5412 59.2797 43.2678C59.3327 42.9944 59.3778 42.7683 59.415 42.5895C59.4521 42.4055 59.476 42.2924 59.4866 42.2503C59.598 42.2398 59.7307 42.2267 59.8846 42.2109C60.0384 42.1951 60.1817 42.182 60.3143 42.1715C60.4788 42.1557 60.6407 42.1399 60.7999 42.1242C60.6619 42.7604 60.5399 43.3361 60.4337 43.8514C60.386 44.0722 60.3382 44.2931 60.2905 44.5139C60.248 44.7347 60.2056 44.9372 60.1631 45.1212C60.126 45.3052 60.0915 45.4656 60.0597 45.6023C60.0331 45.7338 60.0092 45.8415 59.988 45.9257C59.9721 46.0098 59.9509 46.1176 59.9243 46.249C59.9031 46.3752 59.8925 46.4909 59.8925 46.5961C59.8925 46.6802 59.9137 46.7512 59.9562 46.809C59.9986 46.8616 60.0517 46.8879 60.1154 46.8879C60.2056 46.8879 60.2799 46.8537 60.3382 46.7854C60.3966 46.7117 60.4443 46.625 60.4815 46.5251C60.5239 46.4252 60.5531 46.3253 60.569 46.2254C60.5903 46.1202 60.6088 46.0387 60.6248 45.9809C60.6566 45.8284 60.6911 45.6601 60.7282 45.4761C60.7707 45.2868 60.8105 45.0923 60.8476 44.8925C60.8901 44.6874 60.9299 44.4797 60.967 44.2694C61.0094 44.0591 61.0492 43.854 61.0864 43.6542C61.1766 43.1915 61.2641 42.713 61.349 42.2188L62.5588 42.1399C62.5588 42.1399 62.5456 42.2083 62.519 42.345C62.4925 42.4817 62.458 42.6631 62.4156 42.8892C62.3731 43.1153 62.3254 43.3729 62.2723 43.6621C62.2246 43.9513 62.1688 44.2536 62.1052 44.5691C62.0415 44.8793 61.9778 45.1869 61.9141 45.4919C61.8558 45.7916 61.7974 46.0676 61.739 46.32Z" fill="white"/>
<path d="M62.6062 47.8974C62.7547 47.156 62.898 46.4331 63.0359 45.7285C63.089 45.4341 63.1447 45.1265 63.2031 44.8057C63.2668 44.4797 63.3251 44.1616 63.3782 43.8514C63.4313 43.5359 63.479 43.2336 63.5215 42.9444C63.5692 42.65 63.6064 42.3818 63.6329 42.1399C63.7974 42.1294 63.9566 42.1189 64.1104 42.1084C64.2484 42.0979 64.389 42.09 64.5323 42.0847C64.6755 42.0742 64.8029 42.0637 64.9143 42.0532C64.9833 42.458 65.0443 42.8445 65.0974 43.2126C65.1239 43.3703 65.1504 43.5359 65.177 43.7094C65.2088 43.8777 65.238 44.0407 65.2645 44.1984C65.2911 44.3562 65.3176 44.5086 65.3441 44.6559C65.3706 44.7978 65.3972 44.924 65.4237 45.0344C65.4449 44.924 65.4688 44.7978 65.4953 44.6559C65.5219 44.5086 65.5511 44.3562 65.5829 44.1984C65.6147 44.0354 65.6466 43.8698 65.6784 43.7015C65.7155 43.5333 65.75 43.3703 65.7819 43.2126C65.8615 42.8445 65.9437 42.4607 66.0286 42.0611L66.9996 41.9428C66.8192 42.7315 66.66 43.4781 66.5221 44.1827C66.4584 44.4876 66.3947 44.7952 66.331 45.1054C66.2727 45.4157 66.217 45.7154 66.1639 46.0045C66.1108 46.2937 66.0658 46.5619 66.0286 46.809C65.9915 47.0509 65.9623 47.2559 65.9411 47.4242C65.9251 47.4242 65.8615 47.4373 65.75 47.4636C65.6439 47.4847 65.5192 47.511 65.376 47.5425C65.238 47.5741 65.0974 47.6082 64.9541 47.645C64.8162 47.6766 64.7127 47.7029 64.6437 47.7239C64.6066 47.298 64.5668 46.8931 64.5243 46.5093C64.5084 46.3463 64.4898 46.1781 64.4686 46.0045C64.4474 45.831 64.4262 45.6654 64.4049 45.5077C64.389 45.3499 64.3704 45.2027 64.3492 45.066C64.3333 44.924 64.3174 44.8057 64.3015 44.7111C64.2855 44.8057 64.2643 44.9214 64.2378 45.0581C64.2113 45.1948 64.1847 45.342 64.1582 45.4998C64.1317 45.6523 64.1051 45.8126 64.0786 45.9809C64.0521 46.1439 64.0229 46.3042 63.9911 46.462C63.9221 46.8353 63.8478 47.2244 63.7682 47.6293L62.6062 47.8974Z" fill="white"/>
<path d="M68.2184 47.7002C68.1706 47.7002 68.0778 47.7081 67.9398 47.7239C67.8018 47.7344 67.6586 47.7502 67.51 47.7712C67.3614 47.787 67.2261 47.8028 67.1041 47.8185C66.9874 47.8343 66.9237 47.8448 66.9131 47.8501C66.9767 47.624 67.0404 47.3742 67.1041 47.1008C67.1678 46.8222 67.2314 46.533 67.2951 46.2333C67.3641 45.9283 67.4278 45.6207 67.4861 45.3105C67.5498 45.0003 67.6108 44.7006 67.6692 44.4114C67.8018 43.7384 67.9318 43.0469 68.0592 42.3371L69.3008 42.1399C69.1629 42.8445 69.0249 43.5359 68.8869 44.2142C68.8286 44.5034 68.7676 44.8031 68.7039 45.1133C68.6455 45.4235 68.5872 45.7311 68.5288 46.0361C68.4757 46.3411 68.42 46.6381 68.3616 46.9273C68.3086 47.2113 68.2608 47.4689 68.2184 47.7002Z" fill="white"/>
<path d="M70.0665 47.8659C70.1885 47.2875 70.3052 46.717 70.4167 46.1544C70.4644 45.9178 70.5122 45.6707 70.5599 45.413C70.6077 45.1554 70.6528 44.903 70.6952 44.6559C70.743 44.4035 70.7828 44.1616 70.8146 43.9303C70.8518 43.6937 70.8836 43.4781 70.9101 43.2835C70.7881 43.2678 70.6634 43.2625 70.536 43.2678C70.414 43.273 70.292 43.2573 70.1699 43.2204C70.1752 43.1363 70.1779 43.039 70.1779 42.9286C70.1779 42.8182 70.1805 42.7078 70.1859 42.5974C70.1912 42.4764 70.1965 42.3476 70.2018 42.2109C70.3397 42.2214 70.4777 42.2293 70.6156 42.2346C70.7536 42.2398 70.8916 42.2425 71.0295 42.2425C71.3001 42.2425 71.5601 42.2372 71.8095 42.2267C72.0642 42.2109 72.2977 42.1951 72.5099 42.1794C72.7275 42.1583 72.9397 42.1347 73.1467 42.1084L73.0591 42.5343C73.0326 42.6552 73.0061 42.7788 72.9795 42.905C72.9583 43.0312 72.9371 43.1389 72.9158 43.2283C72.7991 43.2599 72.6797 43.2835 72.5577 43.2993C72.4409 43.3098 72.3242 43.3256 72.2075 43.3466C72.1703 43.5254 72.1305 43.7252 72.0881 43.946C72.0456 44.1616 72.0032 44.3877 71.9607 44.6243C71.9236 44.8557 71.8865 45.0923 71.8493 45.3342C71.8122 45.576 71.775 45.8074 71.7379 46.0282C71.653 46.5487 71.5734 47.0877 71.4991 47.645L70.0665 47.8659Z" fill="white"/>
<path d="M73.6426 47.7397L74.0087 46.1544C74.0087 45.9283 74.0034 45.6838 73.9928 45.4209C73.9875 45.1528 73.9768 44.8846 73.9609 44.6164C73.945 44.3483 73.9291 44.0906 73.9132 43.8435C73.8973 43.5911 73.884 43.3703 73.8734 43.181C73.8628 42.9865 73.8521 42.8314 73.8415 42.7157C73.8309 42.6 73.8256 42.5422 73.8256 42.5422L75.123 42.0532V43.0154C75.123 43.1468 75.123 43.2809 75.123 43.4176C75.123 43.5543 75.1203 43.6884 75.115 43.8199C75.115 43.9513 75.115 44.0749 75.115 44.1905C75.115 44.3062 75.115 44.4035 75.115 44.4824C75.184 44.3036 75.2662 44.0828 75.3617 43.8199C75.4626 43.557 75.5554 43.3019 75.6403 43.0548C75.7411 42.7656 75.8446 42.4607 75.9507 42.1399L77.1844 42.416C76.9562 42.8682 76.7334 43.3177 76.5158 43.7646C76.4256 43.9592 76.3301 44.1616 76.2293 44.3719C76.1285 44.577 76.0277 44.7847 75.9268 44.995C75.826 45.2001 75.7279 45.3999 75.6324 45.5944C75.5368 45.789 75.4493 45.9704 75.3697 46.1386C75.3432 46.2753 75.3087 46.4252 75.2662 46.5882C75.2291 46.7512 75.1919 46.9063 75.1548 47.0535C75.107 47.227 75.0566 47.4005 75.0036 47.5741L73.6426 47.7397Z" fill="white"/>
<g clip-path="url(#clip0_16629_40615)">
<path d="M77.8073 32.3277C49.8398 25.7948 4.29329 33.6242 1.28834 33.3043C-1.0727 33.0686 -0.0424274 36.4529 3.11277 37.2105C4.42208 37.5136 53.6604 25.2729 74.6521 34.4997C75.8112 35.0049 78.8161 32.5634 77.8073 32.3277Z" fill="white"/>
</g>
<defs>
<clipPath id="clip0_16629_40615">
<rect width="78" height="7.49262" fill="white" transform="translate(0 29.7178)"/>
</clipPath>
</defs>
</svg>
