<svg xmlns="http://www.w3.org/2000/svg" fill="none" viewBox="0 0 982 129">
  <path fill="#222"
    d="M32.44 63.57c3.97-5.89 7.88-11.3 11.72-16.23 3.9-4.99 7.61-9.28 11.13-12.86a64.94 64.94 0 0 1 9.7-8.35c2.94-1.99 5.5-2.98 7.68-2.98.83 0 1.73.32 2.69.96 1.02.64 1.95 1.47 2.78 2.5.9 1.02 1.63 2.14 2.2 3.36a7.5 7.5 0 0 1 .87 3.36 66.9 66.9 0 0 0-11.7 5.09 78.62 78.62 0 0 0-10.95 7.2 93.5 93.5 0 0 0-9.99 9.02 85.36 85.36 0 0 0-8.54 10.66 111.9 111.9 0 0 0 3.74 8.44c1.54 2.95 3.2 5.83 5 8.64a70.66 70.66 0 0 0 5.75 7.68 31.46 31.46 0 0 0 6.24 5.67c-.32.7-.86 1.37-1.63 2.01-.77.64-1.6 1.22-2.5 1.73-.89.58-1.85 1.03-2.87 1.35-.96.32-1.86.48-2.7.48-1.66 0-3.2-.8-4.6-2.4-1.4-1.54-2.85-3.88-4.32-7.01-1.4-3.2-2.91-7.14-4.51-11.81a1060.3 1060.3 0 0 1-5.19-16.51Zm-14.5 38.2a13.25 13.25 0 0 1-6.04-3.07c-1.6-1.4-3.07-3.2-4.42-5.37a74.13 74.13 0 0 0 2.02-4.8c.83-1.99 1.82-4.42 2.98-7.3C13.63 78.3 15 74.8 16.6 70.77l5.57-14.3c1.35-3.46 2.43-6.37 3.27-8.74.9-2.37 1.63-4.67 2.2-6.91.64-2.3 1.25-4.84 1.83-7.59a416.3 416.3 0 0 0 2.01-10.46c2.7.51 5.12 1.7 7.3 3.55a26.67 26.67 0 0 1 5.76 6.72c-.7.9-1.54 2.27-2.5 4.13-.9 1.79-1.92 3.97-3.07 6.53l-3.84 8.54c-1.4 3.14-2.88 6.46-4.41 9.98a186.98 186.98 0 0 0-8.16 21.12 155.1 155.1 0 0 0-4.61 18.44Zm43.62-9.69c.32-1.86.86-4.29 1.63-7.3a327.89 327.89 0 0 1 6.34-20.06c1.21-3.46 2.4-6.56 3.55-9.31a40 40 0 0 1 2.2-4.61 12.9 12.9 0 0 1 2.12-2.88c.9.13 1.82.35 2.78.67.96.32 1.89.7 2.79 1.15a17 17 0 0 1 2.4 1.44c.7.45 1.24.9 1.63 1.35a36.9 36.9 0 0 0-4.61 7 81.36 81.36 0 0 0-3.94 10.09c3.46-3.08 6.5-6.02 9.12-8.84a69.06 69.06 0 0 0 7.5-9.4c.38-.32 1.05-.48 2-.48.9 0 1.77.16 2.6.48.83.25 1.4.64 1.73 1.15a25.84 25.84 0 0 0-1.73 9.12c0 2.81.41 4.93 1.25 6.33-.07.39-.52 1.12-1.35 2.21a23.53 23.53 0 0 1-2.59 3.07 15.7 15.7 0 0 1-7.58-8.83c-3.01 2.11-5.57 4.2-7.68 6.24a32.66 32.66 0 0 0-5.47 6.72 43.05 43.05 0 0 0-3.84 8.45c-1.03 3.2-2.02 7-2.98 11.42a7.15 7.15 0 0 1-2.11-.67c-.77-.32-1.57-.73-2.4-1.25a18.44 18.44 0 0 1-2.11-1.63 4.44 4.44 0 0 1-1.25-1.63Zm70.59-37.82a33.5 33.5 0 0 1-2.11 10.27 22.6 22.6 0 0 1-5 7.49 35.57 35.57 0 0 1-7.77 5.76 85.43 85.43 0 0 1-10.75 4.99c0 .38-.04.8-.1 1.25v1.24c0 .84.06 1.7.2 2.6.12.9.34 1.72.66 2.5.32.76.77 1.4 1.35 1.91.57.45 1.31.67 2.2.67 1.73 0 3.43-.38 5.1-1.15 1.66-.77 3.23-1.7 4.7-2.78a39.34 39.34 0 0 0 4.22-3.65 169.9 169.9 0 0 0 3.55-3.65c.64.58 1.19 1.12 1.64 1.63a46.65 46.65 0 0 1-9.5 9.6c-3.4 2.5-6.63 4.1-9.7 4.8-4.42-.5-7.88-2.1-10.37-4.8a14.43 14.43 0 0 1-3.65-9.88c0-2.63.35-5.28 1.06-7.97.76-2.75 1.79-5.38 3.07-7.87a49.2 49.2 0 0 1 4.6-7.2c1.8-2.24 3.69-4.2 5.67-5.86a28.9 28.9 0 0 1 6.24-3.94 15.85 15.85 0 0 1 6.43-1.44c2.95.39 5.7 2.21 8.26 5.48Zm-6.63 3.16c-1.72.26-3.52.96-5.37 2.12a23.32 23.32 0 0 0-5.28 4.6 38.17 38.17 0 0 0-4.42 6.72 38.72 38.72 0 0 0-3.17 8.26 43.26 43.26 0 0 0 12.77-9.4c3.4-3.78 5.22-7.88 5.47-12.3Zm39.4-2.2c.63 0 1.37.12 2.2.38.9.2 1.7.48 2.4.86.7.32 1.28.68 1.73 1.06.51.38.77.74.77 1.06a131 131 0 0 0-6.34 15.93 76.22 76.22 0 0 0-1.82 7.01 33.22 33.22 0 0 0-.58 5.66c0 1.8.2 3.3.58 4.52a4.3 4.3 0 0 0 1.92 2.5c-.77.5-1.76.92-2.98 1.24-1.22.32-2.3.48-3.26.48-3.46 0-5.19-2.37-5.19-7.1 0-3.65 1.22-8.64 3.65-14.98a60.93 60.93 0 0 1-4.42 8.35 60.91 60.91 0 0 1-5.08 6.82 30.92 30.92 0 0 1-5.28 4.9 12.2 12.2 0 0 1-4.8 2.2 7.25 7.25 0 0 1-5.76-3.36c-1.48-2.17-2.21-4.93-2.21-8.25 0-3.59.77-7.36 2.3-11.33a51.99 51.99 0 0 1 5.86-11.04c2.43-3.4 5.05-6.21 7.87-8.45 2.82-2.3 5.54-3.52 8.16-3.65.64.2 1.34.58 2.11 1.15.83.58 1.6 1.25 2.3 2.02.77.77 1.41 1.57 1.93 2.4.5.77.8 1.44.86 2.02-2.56.38-5.22 1.63-7.97 3.74a40.27 40.27 0 0 0-7.39 7.68 44.87 44.87 0 0 0-5.38 9.5 24.9 24.9 0 0 0-2.1 9.5c0 1.22.44 2 1.34 2.31 1.85-.38 4-1.95 6.43-4.7 2.43-2.82 5.37-7.14 8.83-12.96l2.11-3.84a136.15 136.15 0 0 0 4.9-9.03c.83-1.6 1.6-3.13 2.3-4.6Zm11.24 2.01a6.1 6.1 0 0 1-.87-2.4 17.08 17.08 0 0 1-.38-3.26l4.8.38 4.22.2a96.79 96.79 0 0 1 6.34-10.85 55.65 55.65 0 0 1 2.97-4.04c.96-1.08 1.7-1.79 2.21-2.1.64 0 1.44.12 2.4.38 1.03.19 2.05.48 3.07.86 1.03.32 1.96.67 2.79 1.06a5 5 0 0 1 1.73 1.15 106 106 0 0 0-5 6.81 192.92 192.92 0 0 0-4.41 7.1 76.88 76.88 0 0 0 7.87-.38c.32.32.58.74.77 1.25.19.45.29.93.29 1.44-3.14 1.15-6.95 1.8-11.43 1.92-1.6 3.07-3.04 6.15-4.32 9.22-1.21 3-2.27 5.92-3.17 8.73a97.1 97.1 0 0 0-2.01 7.97c-.45 2.5-.67 4.74-.67 6.72 0 2.82 1.05 4.39 3.16 4.7 1.92-.25 3.75-.73 5.48-1.43 1.72-.7 3.26-1.6 4.6-2.7.39.58.61 1.06.68 1.45a9.83 9.83 0 0 1-2.02 2.01c-.9.77-1.89 1.5-2.98 2.21-1.08.77-2.14 1.41-3.16 1.92-1.03.51-1.8.8-2.3.87-1.6-.07-3.2-.42-4.8-1.06a20.95 20.95 0 0 1-4.42-2.4 14.86 14.86 0 0 1-3.17-3.17 6.3 6.3 0 0 1-1.25-3.55c0-1.54.2-3.46.58-5.76a93.18 93.18 0 0 1 1.82-7.68 161.99 161.99 0 0 1 6.05-17.57h-5.47Zm57.65-2.97a33.5 33.5 0 0 1-2.11 10.27 22.6 22.6 0 0 1-5 7.49 35.57 35.57 0 0 1-7.77 5.76 85.43 85.43 0 0 1-10.75 4.99c0 .38-.03.8-.1 1.25v1.24c0 .84.07 1.7.2 2.6.12.9.35 1.72.67 2.5.32.76.76 1.4 1.34 1.91.58.45 1.31.67 2.2.67 1.74 0 3.43-.38 5.1-1.15 1.66-.77 3.23-1.7 4.7-2.78a39.34 39.34 0 0 0 4.22-3.65 169.9 169.9 0 0 0 3.56-3.65c.64.58 1.18 1.12 1.63 1.63a46.65 46.65 0 0 1-9.5 9.6c-3.4 2.5-6.63 4.1-9.7 4.8-4.42-.5-7.87-2.1-10.37-4.8a14.43 14.43 0 0 1-3.65-9.88c0-2.63.35-5.28 1.06-7.97.77-2.75 1.79-5.38 3.07-7.87a49.2 49.2 0 0 1 4.6-7.2c1.8-2.24 3.69-4.2 5.67-5.86a28.9 28.9 0 0 1 6.24-3.94 15.85 15.85 0 0 1 6.43-1.44c2.95.39 5.7 2.21 8.26 5.48Zm-6.62 3.16c-1.73.26-3.52.96-5.38 2.12a23.32 23.32 0 0 0-5.28 4.6 38.17 38.17 0 0 0-4.42 6.72 38.72 38.72 0 0 0-3.16 8.26 43.26 43.26 0 0 0 12.76-9.4c3.4-3.78 5.22-7.88 5.48-12.3ZM264.49 94 253.2 52.55h11.63l6.42 27.85h.38l6.7-27.85h11.41l6.8 27.69h.35l6.32-27.7h11.6L303.57 94H291.4l-7.13-26.07h-.51L276.63 94H264.5Zm52.66 0V52.55h11.5V94h-11.5Zm5.78-46.8c-1.7 0-3.18-.57-4.4-1.7a5.51 5.51 0 0 1-1.8-4.13c0-1.58.6-2.94 1.8-4.07a6.2 6.2 0 0 1 4.4-1.73c1.71 0 3.17.58 4.37 1.73a5.48 5.48 0 0 1 0 8.2 6.15 6.15 0 0 1-4.37 1.7Zm33.18 5.35v8.63h-24.96v-8.63h24.96Zm-19.3-9.94h11.5v38.65c0 1.06.16 1.9.49 2.48.32.58.77.98 1.35 1.22.6.23 1.28.35 2.05.35.54 0 1.08-.05 1.62-.14l1.24-.24 1.8 8.56c-.57.18-1.38.38-2.42.62-1.05.25-2.31.4-3.8.46-2.78.1-5.2-.26-7.3-1.11a10.17 10.17 0 0 1-4.82-3.94c-1.16-1.78-1.72-4.03-1.7-6.75V42.61Zm35.38 27.42V94h-11.5V38.73h11.18v21.13h.48a11.74 11.74 0 0 1 4.53-5.75c2.1-1.4 4.71-2.1 7.86-2.1 2.88 0 5.39.63 7.53 1.88a12.62 12.62 0 0 1 5.02 5.38c1.2 2.32 1.8 5.1 1.78 8.34V94h-11.5V69.66c.02-2.56-.63-4.55-1.94-5.97-1.3-1.42-3.11-2.13-5.45-2.13-1.57 0-2.95.33-4.16 1a7.07 7.07 0 0 0-2.8 2.91 9.86 9.86 0 0 0-1.03 4.56Zm53.02 39.52c-1.46 0-2.83-.12-4.1-.36-1.27-.21-2.31-.49-3.14-.83l2.6-8.58c1.34.4 2.56.63 3.64.67 1.1.04 2.04-.22 2.83-.76a5.63 5.63 0 0 0 1.97-2.75l.68-1.75-14.88-42.64h12.1l8.58 30.44h.43l8.66-30.44h12.18l-16.12 45.93a19.3 19.3 0 0 1-3.15 5.83 12.94 12.94 0 0 1-5 3.86 17.5 17.5 0 0 1-7.28 1.38Zm51.02-14.74c-4.19 0-7.81-.9-10.87-2.67a18.28 18.28 0 0 1-7.05-7.5 24.16 24.16 0 0 1-2.48-11.2c0-4.29.83-8.03 2.48-11.23 1.66-3.22 4-5.72 7.05-7.5 3.06-1.8 6.68-2.7 10.87-2.7 4.2 0 7.81.9 10.85 2.7a18.01 18.01 0 0 1 7.07 7.5c1.66 3.2 2.49 6.94 2.49 11.22 0 4.25-.83 7.98-2.49 11.2a18.23 18.23 0 0 1-7.07 7.5c-3.04 1.79-6.65 2.68-10.85 2.68Zm.06-8.9c1.9 0 3.5-.55 4.77-1.63 1.28-1.1 2.24-2.59 2.9-4.48.66-1.89.99-4.04.99-6.45 0-2.4-.33-4.56-1-6.45a10.05 10.05 0 0 0-2.89-4.48 7.07 7.07 0 0 0-4.77-1.64c-1.93 0-3.55.55-4.86 1.64-1.3 1.1-2.28 2.6-2.94 4.48a19.86 19.86 0 0 0-.97 6.45c0 2.41.32 4.56.97 6.45a10.13 10.13 0 0 0 2.94 4.48 7.4 7.4 0 0 0 4.86 1.62Zm50.6-9.56v-23.8h11.5V94h-11.03v-7.53h-.44a12.24 12.24 0 0 1-4.67 5.86 13.68 13.68 0 0 1-7.9 2.21c-2.77 0-5.21-.63-7.32-1.89a12.98 12.98 0 0 1-4.94-5.37 18.58 18.58 0 0 1-1.78-8.34v-26.4h11.5V76.9c.02 2.45.67 4.38 1.97 5.8a6.7 6.7 0 0 0 5.2 2.13c1.4 0 2.69-.31 3.9-.94a7.42 7.42 0 0 0 2.91-2.86 8.77 8.77 0 0 0 1.1-4.67ZM543.8 94V52.55h11.15v7.23h.43c.75-2.57 2.02-4.52 3.8-5.83a10 10 0 0 1 6.16-2 17.4 17.4 0 0 1 3.61.4v10.2a20.13 20.13 0 0 0-4.86-.62c-1.69 0-3.2.38-4.53 1.11a8.15 8.15 0 0 0-4.26 7.5V94h-11.5Zm90.07-35.92h-11.82a11.54 11.54 0 0 0-1.32-4.08 10.37 10.37 0 0 0-2.57-3.07 11.28 11.28 0 0 0-3.61-1.95 13.84 13.84 0 0 0-4.4-.67c-2.86 0-5.35.7-7.48 2.13a13.62 13.62 0 0 0-4.94 6.15c-1.17 2.68-1.75 5.94-1.75 9.77 0 3.94.58 7.25 1.75 9.94a13.45 13.45 0 0 0 4.97 6.07 13.3 13.3 0 0 0 7.37 2.05c1.56 0 3.01-.2 4.34-.62a10.42 10.42 0 0 0 6.18-4.75c.7-1.15 1.2-2.47 1.46-3.94l11.82.05a22.05 22.05 0 0 1-7.18 13.63 23.01 23.01 0 0 1-7.28 4.37 26.79 26.79 0 0 1-9.53 1.6c-4.93 0-9.34-1.12-13.23-3.35a23.76 23.76 0 0 1-9.17-9.69c-2.23-4.23-3.35-9.35-3.35-15.36 0-6.02 1.13-11.15 3.4-15.38a23.7 23.7 0 0 1 9.23-9.66 25.87 25.87 0 0 1 13.12-3.35c3.2 0 6.17.45 8.9 1.35 2.76.9 5.2 2.21 7.32 3.94 2.12 1.71 3.85 3.8 5.18 6.29a23.45 23.45 0 0 1 2.6 8.53Zm23.1 36.73c-4.2 0-7.82-.9-10.88-2.67a18.28 18.28 0 0 1-7.05-7.5 24.18 24.18 0 0 1-2.48-11.2c0-4.29.83-8.03 2.49-11.23 1.65-3.22 4-5.72 7.04-7.5 3.06-1.8 6.68-2.7 10.88-2.7 4.19 0 7.8.9 10.84 2.7a18.01 18.01 0 0 1 7.08 7.5c1.65 3.2 2.48 6.94 2.48 11.22 0 4.25-.83 7.98-2.48 11.2a18.23 18.23 0 0 1-7.08 7.5c-3.04 1.79-6.65 2.68-10.84 2.68Zm.05-8.9c1.9 0 3.5-.55 4.78-1.63 1.27-1.1 2.24-2.59 2.88-4.48.67-1.89 1-4.04 1-6.45 0-2.4-.33-4.56-1-6.45a10.04 10.04 0 0 0-2.88-4.48 7.07 7.07 0 0 0-4.78-1.64c-1.93 0-3.54.55-4.86 1.64-1.3 1.1-2.27 2.6-2.94 4.48a19.83 19.83 0 0 0-.97 6.45c0 2.41.32 4.56.97 6.45a10.12 10.12 0 0 0 2.94 4.48 7.4 7.4 0 0 0 4.86 1.62ZM681.03 94V52.55H692v7.3h.49a11.5 11.5 0 0 1 4.32-5.74c2.01-1.4 4.42-2.1 7.23-2.1 2.84 0 5.26.7 7.26 2.13 2 1.4 3.33 3.3 4 5.72h.43a11.03 11.03 0 0 1 4.58-5.7 14.27 14.27 0 0 1 7.91-2.15c3.87 0 7 1.23 9.42 3.7 2.43 2.44 3.64 5.91 3.64 10.41V94H729.8V68.39c0-2.3-.6-4.03-1.83-5.18a6.43 6.43 0 0 0-4.59-1.73c-2.09 0-3.72.66-4.88 2-1.17 1.3-1.76 3.05-1.76 5.2V94H705.6V68.14c0-2.03-.59-3.65-1.76-4.85a6.02 6.02 0 0 0-4.56-1.81c-1.28 0-2.43.32-3.45.97-1.01.63-1.81 1.52-2.4 2.67a8.49 8.49 0 0 0-.9 4V94h-11.5Zm65.52 0V52.55h10.96v7.3h.49a11.5 11.5 0 0 1 4.32-5.74c2.01-1.4 4.42-2.1 7.23-2.1 2.84 0 5.26.7 7.26 2.13 2 1.4 3.33 3.3 4 5.72h.43a11.03 11.03 0 0 1 4.58-5.7 14.26 14.26 0 0 1 7.91-2.15c3.87 0 7 1.23 9.42 3.7 2.43 2.44 3.64 5.91 3.64 10.41V94h-11.47V68.39c0-2.3-.6-4.03-1.83-5.18a6.43 6.43 0 0 0-4.59-1.73c-2.09 0-3.72.66-4.88 2-1.17 1.3-1.76 3.05-1.76 5.2V94h-11.14V68.14c0-2.03-.59-3.65-1.76-4.85a6.02 6.02 0 0 0-4.56-1.81c-1.28 0-2.43.32-3.45.97-1.01.63-1.81 1.52-2.4 2.67a8.49 8.49 0 0 0-.9 4V94h-11.5Zm92.1-17.65v-23.8h11.5V94h-11.03v-7.53h-.43a12.24 12.24 0 0 1-4.67 5.86 13.68 13.68 0 0 1-7.91 2.21c-2.77 0-5.2-.63-7.31-1.89a12.99 12.99 0 0 1-4.94-5.37 18.58 18.58 0 0 1-1.78-8.34v-26.4h11.5V76.9c.01 2.45.67 4.38 1.96 5.8a6.7 6.7 0 0 0 5.21 2.13c1.39 0 2.68-.31 3.89-.94a7.42 7.42 0 0 0 2.91-2.86 8.76 8.76 0 0 0 1.1-4.67Zm28.4-6.32V94h-11.5V52.55h10.96v7.3h.49a11.57 11.57 0 0 1 4.61-5.71 13.97 13.97 0 0 1 7.86-2.13c2.87 0 5.38.63 7.52 1.88a12.85 12.85 0 0 1 5 5.4 18.06 18.06 0 0 1 1.78 8.32V94h-11.5V69.66c.02-2.54-.63-4.52-1.94-5.94-1.32-1.44-3.12-2.16-5.43-2.16-1.54 0-2.91.33-4.1 1a6.96 6.96 0 0 0-2.75 2.91 10.1 10.1 0 0 0-1 4.56ZM899.03 94V52.55h11.5V94h-11.5Zm5.78-46.8a6.24 6.24 0 0 1-4.4-1.7 5.51 5.51 0 0 1-1.81-4.13c0-1.58.6-2.94 1.8-4.07a6.2 6.2 0 0 1 4.4-1.73c1.72 0 3.17.58 4.38 1.73a5.48 5.48 0 0 1 0 8.2 6.15 6.15 0 0 1-4.37 1.7Zm33.18 5.35v8.63h-24.97v-8.63H938Zm-19.3-9.94h11.5v38.65c0 1.06.16 1.9.48 2.48.33.58.78.98 1.35 1.22.6.23 1.28.35 2.05.35.54 0 1.08-.05 1.62-.14l1.24-.24 1.81 8.56c-.57.18-1.38.38-2.43.62-1.04.25-2.3.4-3.8.46-2.77.1-5.2-.26-7.29-1.11a10.17 10.17 0 0 1-4.83-3.94c-1.15-1.78-1.72-4.03-1.7-6.75V42.61Zm30.08 66.94c-1.45 0-2.82-.12-4.1-.36-1.26-.21-2.3-.49-3.13-.83l2.6-8.58c1.34.4 2.56.63 3.64.67 1.1.04 2.04-.22 2.83-.76a5.63 5.63 0 0 0 1.97-2.75l.67-1.75-14.87-42.64h12.1l8.58 30.44h.43l8.66-30.44h12.17l-16.1 45.93a19.3 19.3 0 0 1-3.17 5.83 12.95 12.95 0 0 1-4.99 3.86 17.49 17.49 0 0 1-7.29 1.38Z" />
  <path fill="#EC5929"
    d="M232.4 117.27c-83.54-15.69-219.57 3.1-228.54 2.34-7.05-.57-3.98 7.56 5.45 9.38 3.9.72 150.96-28.66 213.66-6.51 3.46 1.21 12.43-4.65 9.42-5.22Z" />
</svg>
