<svg xmlns="http://www.w3.org/2000/svg" fill="none" viewBox="0 0 96 96">
  <mask id="mask0_1_4" width="96" height="96" x="0" y="0" maskUnits="userSpaceOnUse"
    style="mask-type:alpha">
    <rect width="96" height="96" fill="#30925E" rx="48" />
  </mask>
  <g mask="url(#mask0_1_4)">
    <rect width="96" height="96" fill="#006DF0" rx="48" />
    <g filter="url(#filter0_i_1_4)">
      <rect width="81" height="81" x="7.5" y="7.5" fill="#000" fill-opacity=".1" rx="40.5" />
    </g>
    <path fill="#BDDBFF"
      d="M34.4402 48.5397a4.0542 4.0542 0 0 0 1.0187 2.9273 4.048 4.048 0 0 0 2.7879 1.3506h.2208a4.039 4.039 0 0 0 2.2195-.6676 4.042 4.042 0 0 0 1.4879-1.7783 4.0455 4.0455 0 0 0-.7753-4.3755 4.038 4.038 0 0 0-4.3217-1.0209 4.0413 4.0413 0 0 0-1.8579 1.3865 4.0458 4.0458 0 0 0-.7909 2.1801l.011-.0022ZM19.3778 47.5161a1.3043 1.3043 0 0 0-1.2485.737 1.3072 1.3072 0 0 0 .2021 1.4365 1.3048 1.3048 0 0 0 1.4033.3634 1.3054 1.3054 0 0 0 .873-1.1581 1.3038 1.3038 0 0 0-.736-1.252 1.3022 1.3022 0 0 0-.4939-.1268ZM34.1887 25.0713a1.3085 1.3085 0 0 0-.1903-2.4068 1.306 1.306 0 0 0-1.3964.3885 1.3087 1.3087 0 0 0-.1797 1.4393 1.3104 1.3104 0 0 0 .7627.6576 1.309 1.309 0 0 0 1.0037-.0786ZM38.2937 32.2291a2.0208 2.0208 0 0 0 .6814-3.0467 2.0183 2.0183 0 0 0-2.1293-.7028 2.0177 2.0177 0 0 0-.9895.6276 2.0205 2.0205 0 0 0 .8964 3.2367 2.0167 2.0167 0 0 0 1.541-.1148ZM24.4908 37.1504a1.6611 1.6611 0 0 0 1.8479-.0139 1.6644 1.6644 0 0 0-.6237-3.0109 1.6626 1.6626 0 0 0-1.7011.7223 1.6648 1.6648 0 0 0 .4769 2.3025ZM26.9526 46.7787a2.0168 2.0168 0 0 0-1.1384.2765 2.0196 2.0196 0 0 0-.9738 2.0209c.0555.3955.227.7656.4926 1.0636a2.0167 2.0167 0 0 0 2.1704.5624 2.0186 2.0186 0 0 0 1.3503-1.7911 2.0231 2.0231 0 0 0-.5096-1.4598 2.0202 2.0202 0 0 0-1.3915-.6725ZM24.7137 60.3606a1.6633 1.6633 0 0 0-.6979.6671 1.6655 1.6655 0 0 0 .1384 1.8433 1.6626 1.6626 0 0 0 1.7546.5778 1.6638 1.6638 0 0 0 1.2051-1.4009 1.6646 1.6646 0 0 0-.5655-1.4632 1.6638 1.6638 0 0 0-.5651-.3196 1.6625 1.6625 0 0 0-1.2696.0955ZM32.5629 42.6047a2.3739 2.3739 0 0 0 2.6396-.0235 2.3766 2.3766 0 0 0 .8656-1.0746 2.38 2.38 0 0 0 .1231-1.3748 2.3781 2.3781 0 0 0-.6608-1.2115 2.3752 2.3752 0 0 0-2.5934-.4928 2.3766 2.3766 0 0 0-1.0586.8848 2.3773 2.3773 0 0 0 .0225 2.6425c.1758.2581.4008.4789.662.6499ZM57.4487 32.0679a2.0189 2.0189 0 0 0 2.2443-.0245 2.0222 2.0222 0 0 0 .8366-2.0843 2.0215 2.0215 0 0 0-1.6036-1.5715 2.018 2.018 0 0 0-1.1658.127 2.0214 2.0214 0 0 0-.8989.7537 2.0199 2.0199 0 0 0-.287 1.5218 2.0186 2.0186 0 0 0 .8744 1.2778ZM61.5874 24.9366a1.306 1.306 0 0 0 1.4527-.0131 1.3073 1.3073 0 0 0 .4761-.5916 1.3088 1.3088 0 0 0-.2969-1.4232 1.3065 1.3065 0 0 0-2.0095.2182 1.3088 1.3088 0 0 0 .3776 1.8097ZM57.757 44.691a4.04 4.04 0 0 0-2.9211 1.0187 4.0469 4.0469 0 0 0-.3279 5.7108 4.041 4.041 0 0 0 2.7854 1.3468h.234a4.0385 4.0385 0 0 0 2.1965-.651 4.0453 4.0453 0 0 0 1.7942-4.0136 4.0448 4.0448 0 0 0-.979-2.0727 3.9901 3.9901 0 0 0-2.7821-1.339ZM39.6156 42.3266a4.027 4.027 0 0 0 1.4895 1.6274 4.023 4.023 0 0 0 2.1228.5977 4.0404 4.0404 0 0 0 1.9734-.5142 4.0454 4.0454 0 0 0 2.0669-3.3647 4.0489 4.0489 0 0 0-.4324-1.9943 4.0298 4.0298 0 0 0-1.4927-1.6182 4.0242 4.0242 0 0 0-2.1196-.5915 4.0402 4.0402 0 0 0-1.967.515 4.0447 4.0447 0 0 0-1.4678 1.408 4.048 4.048 0 0 0-.1731 3.9348ZM71.3065 37.1461a1.6632 1.6632 0 0 0 .6982-.6665 1.6648 1.6648 0 0 0-.9262-2.399 1.6621 1.6621 0 0 0-1.78.4932 1.6654 1.6654 0 0 0-.2265 1.8343 1.6642 1.6642 0 0 0 2.2345.738ZM61.0488 38.4283a2.3774 2.3774 0 0 0-.9987.9521 2.379 2.379 0 0 0 .1948 2.6346 2.3757 2.3757 0 0 0 1.1279.7946 2.3735 2.3735 0 0 0 1.3789.0335 2.3762 2.3762 0 0 0 1.7238-2.0008 2.379 2.379 0 0 0-.2361-1.36 2.374 2.374 0 0 0-2.2972-1.3023 2.3733 2.3733 0 0 0-.8934.2483ZM47.8576 24.3251a1.662 1.662 0 0 0 1.5921-.9384 1.665 1.665 0 0 0-.2574-1.8311 1.6618 1.6618 0 0 0-2.5685.1076 1.6645 1.6645 0 0 0 .0882 2.1089c.2936.329.7056.5279 1.1456.553ZM47.8396 34.7974a2.3749 2.3749 0 0 0 2.2733-1.3418 2.3791 2.3791 0 0 0-.3678-2.6154 2.3753 2.3753 0 0 0-3.6692.1515 2.3796 2.3796 0 0 0-.4752 1.2955 2.381 2.381 0 0 0 .6002 1.719 2.3773 2.3773 0 0 0 1.6387.7912ZM34.9683 59.0689a2.3787 2.3787 0 0 0 .8023-3.5873 2.375 2.375 0 0 0-3.6723-.087 2.379 2.379 0 0 0-.3205 2.6225 2.3764 2.3764 0 0 0 1.3776 1.187 2.3744 2.3744 0 0 0 1.8129-.1352ZM49.3765 38.2674a4.0468 4.0468 0 0 0-.6476 2.5448 4.0454 4.0454 0 0 0 1.0508 2.4062 4.0388 4.0388 0 0 0 4.8949.8242 4.0423 4.0423 0 0 0 1.7798-1.9297 4.0462 4.0462 0 0 0 .2201-2.6167 4.0438 4.0438 0 0 0-1.4324-2.2003 4.0383 4.0383 0 0 0-2.4807-.8558 4.0423 4.0423 0 0 0-1.9233.4853 4.046 4.046 0 0 0-1.4616 1.342ZM56.3985 55.1744a4.0425 4.0425 0 0 0-1.417-1.5769 4.0387 4.0387 0 0 0-5.6317 1.2777 4.0467 4.0467 0 0 0-.0867 4.0921 4.0417 4.0417 0 0 0 1.4825 1.5154 4.038 4.038 0 0 0 2.045.5562 4.084 4.084 0 0 0 1.8194-.4419 4.0452 4.0452 0 0 0 2.0133-2.3417 4.049 4.049 0 0 0-.2248-3.0809ZM63.4577 54.8932a2.3747 2.3747 0 0 0-2.6398.0215 2.3785 2.3785 0 0 0-.3303 3.6609 2.3742 2.3742 0 0 0 2.5933.4943 2.376 2.376 0 0 0 1.059-.8843 2.3831 2.3831 0 0 0-.6822-3.2924ZM71.1925 48.8209a2.0217 2.0217 0 0 0-.2763-1.1392 2.0183 2.0183 0 0 0-2.0194-.9746 2.018 2.018 0 0 0-1.6729 1.4938 2.0206 2.0206 0 0 0 .7382 2.1185 2.0172 2.0172 0 0 0 1.0996.404 2.019 2.019 0 0 0 1.4588-.51 2.0225 2.0225 0 0 0 .672-1.3925ZM76.7802 47.3804a1.3058 1.3058 0 0 0-.7377.1783 1.308 1.308 0 0 0-.632 1.3087 1.3079 1.3079 0 0 0 .9664 1.0851 1.3062 1.3062 0 0 0 1.3716-.4782 1.3094 1.3094 0 0 0 .2616-.7129 1.311 1.311 0 0 0-.3298-.9448 1.309 1.309 0 0 0-.9001-.4362ZM71.5277 60.3543a1.6621 1.6621 0 0 0-2.4526.7688 1.665 1.665 0 0 0 .3762 1.8097 1.6618 1.6618 0 0 0 2.5555-.2739 1.664 1.664 0 0 0 .2377-1.2517 1.6638 1.6638 0 0 0-.7168-1.0529ZM34.4273 72.5665a1.306 1.306 0 0 0-1.4522.012 1.3085 1.3085 0 0 0 .4903 2.3666c.2539.0485.5165.0205.7545-.0804a1.3082 1.3082 0 0 0 .5711-1.9402 1.3063 1.3063 0 0 0-.3637-.358ZM61.8209 72.4277a1.308 1.308 0 0 0-.7153 1.2652A1.308 1.308 0 0 0 62 74.8383a1.3072 1.3072 0 0 0 1.7066-1.0834 1.3088 1.3088 0 0 0-.1304-.7482 1.3052 1.3052 0 0 0-1.264-.716 1.3033 1.3033 0 0 0-.4913.137ZM46.6423 59.2287a4.0458 4.0458 0 0 0-.4036-4.9514 4.0402 4.0402 0 0 0-2.3066-1.2526 4.038 4.038 0 0 0-2.5889.4294 4.0425 4.0425 0 0 0-1.7794 1.9304 4.0473 4.0473 0 0 0-.2191 2.6171 4.0433 4.0433 0 0 0 1.4335 2.1998 4.0386 4.0386 0 0 0 2.4814.8547 4.0183 4.0183 0 0 0 1.9237-.4829 4.022 4.022 0 0 0 1.459-1.3445ZM38.5719 65.4322a2.0167 2.0167 0 0 0-2.2419.0216 2.0205 2.0205 0 0 0-.2769 3.1096 2.0165 2.0165 0 0 0 3.1017-.3338 2.0229 2.0229 0 0 0-.5829-2.7974ZM47.9873 73.1736a1.663 1.663 0 0 0-1.5918.938 1.6647 1.6647 0 0 0 .2565 1.8306 1.6617 1.6617 0 0 0 1.7881.4637 1.6633 1.6633 0 0 0 1.1126-1.4756 1.6639 1.6639 0 0 0-1.5654-1.7567ZM48.0116 62.7059a2.3754 2.3754 0 0 0-2.2809 1.3339 2.3791 2.3791 0 0 0 .3612 2.619 2.375 2.375 0 0 0 2.5567.6658 2.3781 2.3781 0 0 0 1.5909-2.1107 2.3765 2.3765 0 0 0-.5957-1.7151 2.3732 2.3732 0 0 0-1.6322-.7929ZM57.7197 65.2714a2.0207 2.0207 0 0 0-.8472.8126 2.0227 2.0227 0 0 0 1.1361 2.913 2.0193 2.0193 0 0 0 2.1616-.6097 2.0232 2.0232 0 0 0 .2631-2.2321 2.0177 2.0177 0 0 0-1.1736-1.0051 2.0149 2.0149 0 0 0-1.54.1213Z" />
    <rect width="75" height="75" x="-27" y="-19.5" fill="#fff" fill-opacity=".1" rx="36.5" />
  </g>
  <defs>
    <filter id="filter0_i_1_4" width="81" height="81" x="7.5" y="7.5"
      color-interpolation-filters="sRGB" filterUnits="userSpaceOnUse">
      <feFlood flood-opacity="0" result="BackgroundImageFix" />
      <feBlend in="SourceGraphic" in2="BackgroundImageFix" result="shape" />
      <feColorMatrix in="SourceAlpha" result="hardAlpha"
        values="0 0 0 0 0 0 0 0 0 0 0 0 0 0 0 0 0 0 127 0" />
      <feOffset />
      <feGaussianBlur stdDeviation="2" />
      <feComposite in2="hardAlpha" k2="-1" k3="1" operator="arithmetic" />
      <feColorMatrix values="0 0 0 0 0 0 0 0 0 0.2125 0 0 0 0 0.17425 0 0 0 0.16 0" />
      <feBlend in2="shape" result="effect1_innerShadow_1_4" />
    </filter>
  </defs>
</svg>
