<svg xmlns="http://www.w3.org/2000/svg" fill="none" viewBox="0 0 24 24">
  <mask id="a" width="15" height="24" x="4" y="0" maskUnits="userSpaceOnUse" style="mask-type:alpha">
    <path fill="#fff" d="M18.4.8H4.8v22.4h13.6V.8Z" />
  </mask>
  <g fill="#EE751F" mask="url(#a)">
    <path
      d="M12.64.963v5.16a.537.537 0 0 1-.143.369L8.708 10.51a.997.997 0 0 0-.216.74c.055.438.353 1.208 1.113 1.29.539.06 1.844.048 2.556.038a.199.199 0 0 1 .184.123.205.205 0 0 1-.04.22l-4.684 4.924c-.324.343-1.214 1.228-2.035.68-.54-.365-.787-.577-.787-1.318V10.28c0-.591 0-1.771 1.628-3.39 1-.996 4.864-4.962 5.938-6.039a.16.16 0 0 1 .276.112Z" />
    <path
      d="m10.86 10.482 5.091-4.968s.678-.549 1.438-.247c.76.302 1.004 1.125 1.004 2.004v5.846s.162 1.84-1.031 3.102c-1.117 1.18-6.095 6.201-6.744 6.848a.443.443 0 0 1-.253.131c-.119.015-.25-.027-.25-.284 0-.522.006-4.43 0-5.192a.318.318 0 0 1 .092-.224l3.895-3.942s.515-.631.353-1.262c-.162-.63-.624-.96-1.52-.96s-1.899.027-2.17.027c-.27 0-.403-.344-.216-.565.096-.112.2-.217.311-.314Z" />
  </g>
</svg>
