<svg xmlns="http://www.w3.org/2000/svg" fill="none" viewBox="0 0 24 24">
  <g fill="#349EA3" clip-path="url(#a)">
    <path
      d="m3.87673 2.50389-.56464-.58a1.149 1.149 0 0 1-.97035 1.04669l.58096.53871 20.75 19.34511L3.87673 2.50389ZM5.24655 8.1109v11.5492a1.14054 1.14054 0 0 1 .75127-.3526c.28581-.019.56832.0701.7914.2498v-7.7489L19.2953 24h2.1543L5.24655 8.1109ZM19.8119 5.44231a1.14447 1.14447 0 0 1-.7989-.32073v7.81662L6.73785.74756H4.3631l16.194 15.85504V5.16624a1.13894 1.13894 0 0 1-.7452.27607Z" />
    <path
      d="M2.16745 0a1.83652 1.83652 0 1 0 1.83508 1.83748A1.83796 1.83796 0 0 0 2.16745 0Zm.17429 2.96723a1.05635 1.05635 0 0 1-.17429.01345 1.14943 1.14943 0 0 1-.81489-1.96154A1.1494 1.1494 0 0 1 2.60522.76901a1.14949 1.14949 0 0 1 .71024 1.06174v.08979a1.14948 1.14948 0 0 1-.97372 1.04669ZM19.8119 2.45828a1.83587 1.83587 0 0 0-1.271.55222 1.83592 1.83592 0 0 0-.523 1.28334c0 .47967.1877.9403.523 1.28334a1.83586 1.83586 0 0 0 1.271.55221 1.80419 1.80419 0 0 0 .7452-.15844 1.83485 1.83485 0 0 0 .8904-.84288 1.83406 1.83406 0 0 0 .1609-1.21553 1.83469 1.83469 0 0 0-.6405-1.04551 1.83515 1.83515 0 0 0-1.156-.40875Zm.7452 2.70796a1.14808 1.14808 0 0 1-1.4385.04174 1.14802 1.14802 0 0 1-.4204-.63655 1.14834 1.14834 0 0 1 .0713-.75952 1.14822 1.14822 0 0 1 .5317-.5471 1.14804 1.14804 0 0 1 .7572-.09309c.2556.05618.4843.19803.6483.40202.164.204.2533.45789.2532.71962a1.14933 1.14933 0 0 1-.1056.48064 1.1494 1.1494 0 0 1-.2972.39224ZM6.79162 18.7641a1.83647 1.83647 0 0 0-1.15027-.0931 1.83604 1.83604 0 0 0-.97875.6114 1.83658 1.83658 0 0 0-.11733 2.1881c.21814.3289.53645.5788.90774.7126a1.83666 1.83666 0 0 0 1.15364.0304 1.83685 1.83685 0 0 0 .944-.6638 1.83682 1.83682 0 0 0 .36161-1.096 1.8358 1.8358 0 0 0-.30556-1.0143 1.83588 1.83588 0 0 0-.81508-.6767v.0014Zm-.7202 2.8391a1.148 1.148 0 0 1-.63699-.1946 1.14757 1.14757 0 0 1-.42177-.5154 1.14802 1.14802 0 0 1 .24974-1.2501 1.14812 1.14812 0 0 1 .58746-.3139 1.14805 1.14805 0 0 1 .66284.0652c.20965.0867.3889.2336.51512.4222.12621.1885.19372.4102.194.6371a1.14772 1.14772 0 0 1-.08739.4398 1.14684 1.14684 0 0 1-.24922.3726 1.14672 1.14672 0 0 1-.37299.2488 1.14632 1.14632 0 0 1-.43984.0868l-.00096.0015Z" />
  </g>
  <defs>
    <clipPath id="a">
      <path fill="#fff" d="M.32999 0h23.3427v24H.32999z" />
    </clipPath>
  </defs>
</svg>
