<svg xmlns="http://www.w3.org/2000/svg" fill="none" viewBox="0 0 24 24">
  <rect width="24" height="24" fill="#292929" rx="12" />
  <path fill="#C6FF00"
    d="M7.1714 10.276a5.1256 5.1256 0 0 1 9.6528 0c.0347.0971.1254.1645.2289.1645h1.9886a.2319.2319 0 0 0 .228-.1815.2316.2316 0 0 0-.0012-.1041C18.4471 6.9054 15.5031 4.5 11.9978 4.5c-3.5053 0-6.4493 2.4054-7.2714 5.6556a.231.231 0 0 0 .2268.2849h1.9893a.2452.2452 0 0 0 .229-.1645Zm-.2289 3.2835c.1028 0 .1942.0667.229.1645a5.1255 5.1255 0 0 0 9.6527 0 .245.245 0 0 1 .2289-.1645h1.9886c.151 0 .2644.1389.2268.2856-.8221 3.2495-3.7654 5.6549-7.2707 5.6549-3.5053 0-6.4493-2.4054-7.2714-5.6556a.231.231 0 0 1 .2268-.2849h1.9893Z" />
  <path fill="#C6FF00"
    d="M10.6761 10.4405a.2373.2373 0 0 0-.2375.2381v2.6435c0 .1311.1063.2374.2375.2374h2.6435a.2376.2376 0 0 0 .2374-.2381v-2.6435a.2371.2371 0 0 0-.2374-.2374h-2.6435Z" />
</svg>
