<svg xmlns="http://www.w3.org/2000/svg" fill="none" viewBox="0 0 24 24">
  <g clip-path="url(#a)">
    <path fill="#ACACAC" fill-opacity=".8"
      d="M12 24c6.6281 0 12-5.3719 12-12S18.6281 0 12 0 0 5.3719 0 12s5.3719 12 12 12ZM7.9594 7.7484C8.3297 6.7031 9.3234 6 10.4344 6h2.7328c1.6359 0 2.9578 1.3266 2.9578 2.9578 0 1.0594-.5672 2.0391-1.4859 2.5688l-1.5141.8671C13.1156 13.0031 12.6141 13.5 12 13.5a1.1223 1.1223 0 0 1-1.125-1.125v-.6328c0-.4031.2156-.7735.5672-.975l2.0765-1.1906a.7087.7087 0 0 0 .3563-.6141.7072.7072 0 0 0-.7078-.7078h-2.7328c-.1594 0-.3.0984-.3516.2484l-.0187.0563c-.2063.586-.8532.8906-1.4344.6844-.5813-.2063-.8906-.8532-.6844-1.4344l.0188-.0563-.0047-.0047ZM13.5 16.5c0 .8297-.6703 1.5-1.5 1.5s-1.5-.6703-1.5-1.5.6703-1.5 1.5-1.5 1.5.6703 1.5 1.5Z" />
  </g>
  <defs>
    <clipPath id="a">
      <path fill="#fff" d="M0 0h24v24H0z" />
    </clipPath>
  </defs>
</svg>
