<svg xmlns="http://www.w3.org/2000/svg" fill="none" viewBox="0 0 19 37">
  <path fill="#30925E"
    d="M17.9812 35.3482c-1.7719 1.0369-3.7911 1.6053-5.8579 1.6491-2.0668.0437-4.1096-.4387-5.926-1.3995-1.8165-.9608-3.3438-2.3668-4.4308-4.0787C.6795 29.8071.0706 27.8485 0 25.8371V.01L4.732 0v13.8921h7.1963v4.6118h-.0632a6.9915 6.9915 0 0 0-.703.0333h-6.43v6.9111c.001 1.2303.3377 2.4382.9757 3.5002.638 1.062 1.5544 1.9399 2.6553 2.5439 1.101.604 2.347.9125 3.6105.8938 1.2636-.0187 2.4994-.3639 3.5809-1.0003l2.4267 3.9623Z" />
  <path fill="#30925E"
    d="M18.9463.0108h-4.0751c-1.4292 0-2.7999.5529-3.8105 1.5368a5.2413 5.2413 0 0 0-1.1694 1.7026 5.1278 5.1278 0 0 0-.4108 2.0088v3.974h4.0767c1.428.0019 2.7985-.5478 3.8106-1.5285l.0341-.0333c.9947-.967 1.5613-2.2747 1.5785-3.6433.0239-1.8058.0393-4.0868-.0341-4.017Z" />
</svg>
