<svg width="72" height="50" viewBox="0 0 72 50" fill="none" xmlns="http://www.w3.org/2000/svg">
<g clip-path="url(#clip0_6087_14920)">
<path d="M69.9319 12.6289H66.1992V31.2938H69.9319V12.6289Z" fill="white"/>
<path d="M68.0832 3.92188H68.0483C66.3335 3.92188 64.9434 5.31403 64.9434 7.03134C64.9434 8.74866 66.3335 10.1408 68.0483 10.1408H68.0832C69.798 10.1408 71.1881 8.74866 71.1881 7.03134C71.1881 5.31403 69.798 3.92188 68.0832 3.92188Z" fill="white"/>
<path d="M40.4416 12.6289H36.709V31.2938H40.4416V12.6289Z" fill="white"/>
<path d="M38.591 3.92188H38.5561C36.8413 3.92188 35.4512 5.31403 35.4512 7.03134C35.4512 8.74866 36.8413 10.1408 38.5561 10.1408H38.591C40.3058 10.1408 41.6959 8.74866 41.6959 7.03134C41.6959 5.31403 40.3058 3.92188 38.591 3.92188Z" fill="white"/>
<path d="M58.3818 16.3693L57.2954 17.4264C58.6688 18.1635 59.8354 19.2341 60.6881 20.5401C61.5409 21.8461 62.0526 23.3457 62.1761 24.9012V31.2948H58.4421V26.2095C58.461 26.0202 58.4704 25.8301 58.4703 25.6399C58.4703 25.4479 58.4609 25.2571 58.4421 25.0691C58.3269 23.9513 57.8773 22.8944 57.1522 22.0369C56.427 21.1793 55.4601 20.5611 54.3782 20.2632L48.4768 25.9986V31.2948H44.7441V1.44922H48.4781V20.822L53.0651 16.3693L53.1081 16.3263L56.8984 12.646H62.1761V12.6809L58.4421 16.3075L58.3818 16.3693Z" fill="white"/>
<path d="M14.783 29.9598C13.3903 30.7981 11.8033 31.2576 10.1789 31.293C8.55442 31.3284 6.94892 30.9384 5.52122 30.1616C4.09352 29.3847 2.89312 28.248 2.03882 26.8639C1.18451 25.4798 0.705917 23.8963 0.650391 22.27V1.38892L4.36963 1.38086V12.6126H10.0256V16.3412H9.97598C9.79144 16.3407 9.607 16.3496 9.42339 16.3681H4.36963V21.9557C4.37045 22.9504 4.63512 23.927 5.13657 24.7856C5.63801 25.6443 6.35823 26.354 7.22352 26.8424C8.08882 27.3307 9.06813 27.5801 10.0613 27.565C11.0544 27.5498 12.0257 27.2708 12.8757 26.7563L14.783 29.9598Z" fill="#30925E"/>
<path d="M15.5414 1.38994H12.3385C11.2152 1.38997 10.1378 1.83689 9.34354 2.63238C8.94988 3.02635 8.63758 3.49412 8.42448 4.00898C8.21138 4.52385 8.10165 5.07571 8.10156 5.63305V8.84595H11.3058C12.4281 8.84755 13.5052 8.40312 14.3007 7.61022L14.3276 7.58335C15.1094 6.80143 15.5547 5.7442 15.5682 4.63775C15.587 3.17771 15.599 1.33352 15.5414 1.38994Z" fill="#30925E"/>
<path d="M28.3636 26.7478C27.5775 27.2233 26.6864 27.4973 25.7694 27.5456C24.8523 27.5938 23.9375 27.4149 23.106 27.0245L23.1703 26.9627L23.1449 26.9507L26.5234 23.6652L26.903 23.2959L27.1015 23.1024L30.5887 19.7176L30.6423 19.6639L33.4375 16.9466C32.4075 15.3081 30.8958 14.0295 29.1104 13.2868C27.3249 12.5441 25.3536 12.3738 23.4675 12.7993C21.5814 13.2248 19.8734 14.2251 18.5784 15.6627C17.2834 17.1004 16.4651 18.9046 16.2362 20.8271C16.2362 20.8781 16.2241 20.9292 16.2201 20.9802C16.2161 21.0312 16.2107 21.0863 16.2053 21.14L16.1932 21.3066C16.1932 21.3644 16.1932 21.4208 16.1839 21.4785C16.1745 21.5363 16.1839 21.5914 16.1839 21.6478C16.1839 21.8089 16.1839 21.9701 16.1839 22.1327C16.1978 22.7036 16.2647 23.2719 16.3837 23.8304C16.6108 24.9136 17.0282 25.9478 17.6163 26.8848C17.6214 26.8916 17.6259 26.8988 17.6297 26.9063C18.3299 28.0115 19.2538 28.9573 20.3417 29.6827L20.3631 29.6961L20.3403 29.719C22.3487 31.0607 24.7975 31.5724 27.1741 31.1467C29.5506 30.7211 31.6706 29.3912 33.0901 27.4355L30.016 25.2126C29.5755 25.8319 29.0132 26.3543 28.3636 26.7478ZM19.8991 21.8089C19.9276 20.7082 20.2825 19.6408 20.9184 18.7425C20.9345 18.7169 20.9533 18.6914 20.9707 18.6659C20.9707 18.6659 20.9707 18.6552 20.9828 18.6511C21.1736 18.3809 21.3887 18.1287 21.6252 17.8976C22.4463 17.0957 23.4939 16.5665 24.6258 16.3817C25.7577 16.1969 26.919 16.3655 27.9518 16.8647L27.8888 16.9265L27.9143 16.9386L23.9241 20.8042L20.3779 24.2388C20.0381 23.4751 19.8745 22.6446 19.8991 21.8089Z" fill="white"/>
<rect y="35.4922" width="72" height="14" rx="4" fill="#F74055"/>
<path d="M10.6236 46.0376H9.14062L11.4002 39.4922H13.1836L15.44 46.0376H13.957L12.3175 40.9879H12.2663L10.6236 46.0376ZM10.5309 43.4648H14.0337V44.5451H10.5309V43.4648Z" fill="white"/>
<path d="M21.9878 46.0376V39.4922H23.3717V44.8967H26.1778V46.0376H21.9878Z" fill="white"/>
<path d="M32.8542 46.0376V39.4922H35.4366C35.9331 39.4922 36.356 39.587 36.7055 39.7766C37.0549 39.9641 37.3212 40.2251 37.5045 40.5597C37.6898 40.892 37.7825 41.2756 37.7825 41.7102C37.7825 42.1449 37.6888 42.5284 37.5013 42.8608C37.3138 43.1932 37.0421 43.4521 36.6863 43.6374C36.3326 43.8228 35.9043 43.9155 35.4015 43.9155H33.7555V42.8065H35.1778C35.4441 42.8065 35.6636 42.7607 35.8361 42.669C36.0109 42.5753 36.1408 42.4464 36.2261 42.2823C36.3134 42.1161 36.3571 41.9254 36.3571 41.7102C36.3571 41.4929 36.3134 41.3033 36.2261 41.1413C36.1408 40.9773 36.0109 40.8505 35.8361 40.761C35.6614 40.6694 35.4398 40.6236 35.1714 40.6236H34.2381V46.0376H32.8542Z" fill="white"/>
<path d="M44.4414 46.0376V39.4922H45.8253V42.1928H48.6346V39.4922H50.0153V46.0376H48.6346V43.3338H45.8253V46.0376H44.4414Z" fill="white"/>
<path d="M58.0444 46.0376H56.5615L58.8211 39.4922H60.6045L62.8608 46.0376H61.3779L59.7383 40.9879H59.6872L58.0444 46.0376ZM57.9518 43.4648H61.4546V44.5451H57.9518V43.4648Z" fill="white"/>
</g>
<defs>
<clipPath id="clip0_6087_14920">
<rect width="72" height="49" fill="white" transform="translate(0 0.5)"/>
</clipPath>
</defs>
</svg>
