<svg xmlns="http://www.w3.org/2000/svg" fill="none" viewBox="0 0 72 51">
  <path fill="#231F20"
    d="M69.9319 12.1372h-3.7327v18.6649h3.7327V12.1372ZM68.0851 3.4292h-.0348c-1.7149 0-3.105 1.3922-3.105 3.1095s1.3901 3.1094 3.105 3.1094h.0348c1.7149 0 3.105-1.3921 3.105-3.1094S69.8 3.4292 68.0851 3.4292ZM40.4397 12.1372H36.707v18.6649h3.7327V12.1372ZM38.5929 3.4292h-.0348c-1.7148 0-3.105 1.3922-3.105 3.1095s1.3902 3.1094 3.105 3.1094h.0348c1.7149 0 3.105-1.3921 3.105-3.1094s-1.3901-3.1095-3.105-3.1095ZM58.3837 15.8766l-1.0864 1.0571a9.3111 9.3111 0 0 1 3.3928 3.1137 9.328 9.328 0 0 1 1.488 4.3611v6.3936h-3.734v-5.0853a5.7011 5.7011 0 0 0 .0282-.5695c0-.1921-.0094-.3828-.0282-.5709a5.582 5.582 0 0 0-1.29-3.0322 5.5692 5.5692 0 0 0-2.7739-1.7737l-5.9015 5.7354v5.2962h-3.7326V.9565h3.734v19.3728l4.587-4.4527.0429-.043 3.7903-3.6803h5.2778v.0349l-3.734 3.6266-.0604.0618Z" />
  <path fill="#30925E"
    d="M14.7849 29.4681a9.3203 9.3203 0 0 1-9.2617.2018 9.3373 9.3373 0 0 1-3.4824-3.2977 9.3542 9.3542 0 0 1-1.3885-4.5939V.8973L4.3716.8891v11.2317h5.656v3.7286h-.0497a5.367 5.367 0 0 0-.5526.0269H4.3716v5.5876a5.6206 5.6206 0 0 0 .767 2.8299 5.6101 5.6101 0 0 0 2.0869 2.0568 5.6007 5.6007 0 0 0 2.8377.7226 5.601 5.601 0 0 0 2.8145-.8087l1.9072 3.2035Z" />
  <path fill="#30925E"
    d="M15.5414.8987h-3.2029a4.2325 4.2325 0 0 0-2.995 1.2425 4.2435 4.2435 0 0 0-.919 1.3766 4.2486 4.2486 0 0 0-.323 1.624v3.213h3.2043a4.2338 4.2338 0 0 0 2.9949-1.2358l.0269-.0269a4.2392 4.2392 0 0 0 1.2406-2.9456c.0188-1.46.0308-3.3042-.0268-3.2478Z" />
  <path fill="#231F20"
    d="M28.3636 26.2566a5.578 5.578 0 0 1-5.2576.2767l.0643-.0618-.0254-.0121 3.3785-3.2854.3796-.3694.1985-.1934 3.4872-3.3848.0536-.0537 2.7952-2.7173a9.3562 9.3562 0 0 0-4.3271-3.6598 9.3398 9.3398 0 0 0-5.6429-.4875 9.349 9.349 0 0 0-4.8891 2.8634 9.372 9.372 0 0 0-2.3422 5.1644c0 .051-.0121.1021-.0161.1531a7.4965 7.4965 0 0 1-.0148.1598l-.0121.1666c0 .0577 0 .1142-.0093.1719-.0094.0578 0 .1128 0 .1693v.4848a9.2248 9.2248 0 0 0 .1998 1.6978 9.3578 9.3578 0 0 0 1.2326 3.0544.1404.1404 0 0 1 .0134.0215 9.3533 9.3533 0 0 0 2.712 2.7764l.0214.0134-.0228.0228a9.3371 9.3371 0 0 0 6.8338 1.4278 9.3466 9.3466 0 0 0 5.916-3.7112l-3.0741-2.2229a5.5692 5.5692 0 0 1-1.6524 1.5352Zm-8.4645-4.9389a5.5562 5.5562 0 0 1 1.0193-3.0664c.0161-.0256.0349-.0511.0523-.0766 0 0 0-.0108.0121-.0148a5.4451 5.4451 0 0 1 .6424-.7535 5.5818 5.5818 0 0 1 3.0006-1.5159 5.5774 5.5774 0 0 1 3.326.483l-.063.0618.0255.0121-3.9902 3.8656-3.5462 3.4346a5.574 5.574 0 0 1-.4788-2.4299Z" />
  <rect width="72" height="15.4929" y="35" fill="#008A45" rx="4" />
  <path fill="#fff"
    d="M4 40.044v-.9446h5.6286v.9446H7.3594v6.3282H6.2656V40.044H4ZM14.0723 46.3722v-7.2728h4.5597v.9446h-3.4624v2.2159h3.2245v.9411h-3.2245v2.2266h3.505v.9446h-4.6023ZM27.2643 41.0099c-.0378-.3361-.1941-.5965-.4687-.7812-.2746-.187-.6203-.2805-1.0369-.2805-.2983 0-.5564.0473-.7742.142-.2178.0923-.3871.2202-.5078.3835-.1184.161-.1776.3445-.1776.5504 0 .1729.0403.322.1208.4475.0828.1255.1906.2308.3231.316.135.0829.2794.1527.4333.2096.1539.0544.3018.0994.4439.1349l.7102.1847a5.412 5.412 0 0 1 .7138.2308c.2438.097.4699.2249.6782.3835.2084.1586.3765.3551.5043.5895.1302.2344.1953.5149.1953.8416 0 .4119-.1065.7777-.3196 1.0973-.2107.3196-.5173.5718-.9197.7564-.4001.1847-.8843.277-1.4524.277-.5446 0-1.0157-.0864-1.4134-.2592-.3977-.1729-.709-.4179-.9339-.7351-.2249-.3196-.3492-.6984-.3729-1.1364h1.1008c.0213.2628.1066.4818.2557.657.1515.1728.3445.3018.5789.3871.2367.0828.4959.1242.7777.1242.3101 0 .5859-.0485.8274-.1456.2438-.0994.4356-.2367.5753-.4119.1396-.1775.2095-.3847.2095-.6214 0-.2155-.0616-.3918-.1847-.5292-.1207-.1373-.2853-.2509-.4936-.3409-.206-.0899-.4392-.1692-.6996-.2379l-.8593-.2344c-.5824-.1586-1.0441-.3918-1.385-.6995-.3385-.3078-.5078-.715-.5078-1.2216 0-.4191.1136-.7848.3409-1.0973.2273-.3125.535-.5552.9233-.728.3883-.1752.8262-.2628 1.3139-.2628.4924 0 .9269.0864 1.3033.2592.3788.1729.6771.4108.8949.7138.2178.3007.3314.6463.3409 1.0369h-1.0583ZM32.5746 40.044v-.9446h5.6286v.9446H35.934v6.3282h-1.0938V40.044h-2.2656ZM48.517 39.0994v7.2728h-1.0086l-3.6967-5.3338h-.0675v5.3338h-1.0973v-7.2728h1.0157l3.7003 5.3409h.0674v-5.3409h1.0867ZM53.3176 46.3722v-7.2728h4.5597v.9446h-3.4624v2.2159h3.2245v.9411h-3.2245v2.2266h3.505v.9446h-4.6023ZM62.1844 40.044v-.9446h5.6285v.9446h-2.2691v6.3282H64.45V40.044h-2.2656Z" />
</svg>
