<svg xmlns="http://www.w3.org/2000/svg" fill="none" viewBox="0 0 72 32">
  <path fill="#231F20"
    d="M69.9318 12.137h-3.7326v18.6649h3.7326V12.137ZM68.0836 3.4291h-.0349c-1.7148 0-3.1049 1.3922-3.1049 3.1095s1.3901 3.1095 3.1049 3.1095h.0349c1.7148 0 3.105-1.3922 3.105-3.1095s-1.3902-3.1095-3.105-3.1095ZM40.4408 12.137h-3.7326v18.6649h3.7326V12.137ZM38.5913 3.4291h-.0349c-1.7148 0-3.105 1.3922-3.105 3.1095s1.3902 3.1095 3.105 3.1095h.0349c1.7148 0 3.1049-1.3922 3.1049-3.1095s-1.3901-3.1095-3.1049-3.1095ZM58.3825 15.8764l-1.0864 1.0571a9.3102 9.3102 0 0 1 3.3927 3.1138 9.3277 9.3277 0 0 1 1.488 4.361v6.3936h-3.734v-5.0853a5.6997 5.6997 0 0 0 .0282-.5695c0-.1921-.0094-.3828-.0282-.5709a5.5824 5.5824 0 0 0-1.29-3.0322 5.5699 5.5699 0 0 0-2.7739-1.7737l-5.9014 5.7354v5.2962h-3.7327V.9564h3.734V20.329l4.587-4.4527.0429-.0429 3.7904-3.6804h5.2777v.035l-3.734 3.6266-.0603.0617Z" />
  <path fill="#30925E"
    d="M14.7831 29.4681a9.3203 9.3203 0 0 1-9.2618.2018 9.3375 9.3375 0 0 1-3.4824-3.2977 9.3542 9.3542 0 0 1-1.3884-4.5939V.8973L4.3697.8891v11.2317h5.656v3.7286h-.0496a5.3669 5.3669 0 0 0-.5526.0269H4.3697v5.5876a5.6207 5.6207 0 0 0 .767 2.8299 5.6102 5.6102 0 0 0 2.087 2.0568 5.6007 5.6007 0 0 0 2.8377.7226 5.6004 5.6004 0 0 0 2.8144-.8087l1.9073 3.2035Z" />
  <path fill="#30925E"
    d="M15.5422.8986h-3.2029a4.2325 4.2325 0 0 0-2.995 1.2425 4.2434 4.2434 0 0 0-.919 1.3766 4.2482 4.2482 0 0 0-.323 1.624v3.213h3.2043a4.234 4.234 0 0 0 2.995-1.2358l.0268-.0269a4.2393 4.2393 0 0 0 1.2406-2.9456c.0188-1.46.0309-3.3042-.0268-3.2478Z" />
  <path fill="#231F20"
    d="M28.3644 26.2566a5.5804 5.5804 0 0 1-2.5942.7977 5.5794 5.5794 0 0 1-2.6635-.521l.0644-.0618-.0255-.0121 3.3786-3.2854.3796-.3694.1985-.1934 3.4872-3.3849.0536-.0537 2.7951-2.7172a9.3546 9.3546 0 0 0-4.3271-3.6598 9.3395 9.3395 0 0 0-5.6428-.4876 9.3498 9.3498 0 0 0-4.8891 2.8635 9.3723 9.3723 0 0 0-2.3423 5.1643c0 .051-.012.1021-.016.1531a8.2194 8.2194 0 0 1-.0148.1599l-.0121.1665c0 .0578 0 .1142-.0094.172-.0094.0577 0 .1128 0 .1692v.4849a9.2335 9.2335 0 0 0 .1999 1.6978 9.3595 9.3595 0 0 0 1.2326 3.0544.1358.1358 0 0 1 .0134.0215 9.3541 9.3541 0 0 0 2.712 2.7763l.0214.0134-.0228.0229a9.3374 9.3374 0 0 0 6.8337 1.4278 9.347 9.347 0 0 0 5.9161-3.7112l-3.0741-2.223a5.5696 5.5696 0 0 1-1.6524 1.5353Zm-8.4646-4.9389a5.5566 5.5566 0 0 1 1.0194-3.0665c.0161-.0255.0349-.0511.0523-.0766 0 0 0-.0107.0121-.0147a5.446 5.446 0 0 1 .6424-.7536 5.5824 5.5824 0 0 1 3.0006-1.5159 5.5774 5.5774 0 0 1 3.326.483l-.063.0618.0255.0121-3.9902 3.8657-3.5462 3.4345a5.5753 5.5753 0 0 1-.4789-2.4298Z" />
</svg>
