<svg xmlns="http://www.w3.org/2000/svg" fill="none" viewBox="0 0 72 49">
  <path fill="#fff"
    d="M69.9319 12.1372h-3.7327v18.6649h3.7327V12.1372ZM68.0851 3.4292h-.0348c-1.7149 0-3.105 1.3922-3.105 3.1095s1.3901 3.1094 3.105 3.1094h.0348c1.7149 0 3.105-1.3921 3.105-3.1094S69.8 3.4292 68.0851 3.4292ZM40.4397 12.1372H36.707v18.6649h3.7327V12.1372ZM38.5929 3.4292h-.0348c-1.7148 0-3.105 1.3922-3.105 3.1095s1.3902 3.1094 3.105 3.1094h.0348c1.7149 0 3.105-1.3921 3.105-3.1094s-1.3901-3.1095-3.105-3.1095ZM58.3837 15.8766l-1.0864 1.0571a9.3111 9.3111 0 0 1 3.3928 3.1137 9.328 9.328 0 0 1 1.488 4.3611v6.3936h-3.734v-5.0853a5.7011 5.7011 0 0 0 .0282-.5695c0-.1921-.0094-.3828-.0282-.5709a5.582 5.582 0 0 0-1.29-3.0322 5.5692 5.5692 0 0 0-2.7739-1.7737l-5.9015 5.7354v5.2962h-3.7326V.9565h3.734v19.3728l4.587-4.4527.0429-.043 3.7903-3.6803h5.2778v.0349l-3.734 3.6266-.0604.0618Z" />
  <path fill="#30925E"
    d="M14.7849 29.4681a9.3203 9.3203 0 0 1-9.2617.2018 9.3373 9.3373 0 0 1-3.4824-3.2977 9.3542 9.3542 0 0 1-1.3885-4.5939V.8973L4.3716.8891v11.2317h5.656v3.7286h-.0497a5.367 5.367 0 0 0-.5526.0269H4.3716v5.5876a5.6206 5.6206 0 0 0 .767 2.8299 5.6101 5.6101 0 0 0 2.0869 2.0568 5.6007 5.6007 0 0 0 2.8377.7226 5.601 5.601 0 0 0 2.8145-.8087l1.9072 3.2035Z" />
  <path fill="#30925E"
    d="M15.5414.8987h-3.2029a4.2325 4.2325 0 0 0-2.995 1.2425 4.2435 4.2435 0 0 0-.919 1.3766 4.2486 4.2486 0 0 0-.323 1.624v3.213h3.2043a4.2338 4.2338 0 0 0 2.9949-1.2358l.0269-.0269a4.2392 4.2392 0 0 0 1.2406-2.9456c.0188-1.46.0308-3.3042-.0268-3.2478Z" />
  <path fill="#fff"
    d="M28.3636 26.2566a5.578 5.578 0 0 1-5.2576.2767l.0643-.0618-.0254-.0121 3.3785-3.2854.3796-.3694.1985-.1934 3.4872-3.3848.0536-.0537 2.7952-2.7173a9.3562 9.3562 0 0 0-4.3271-3.6598 9.3398 9.3398 0 0 0-5.6429-.4875 9.349 9.349 0 0 0-4.8891 2.8634 9.372 9.372 0 0 0-2.3422 5.1644c0 .051-.0121.1021-.0161.1531a7.4965 7.4965 0 0 1-.0148.1598l-.0121.1666c0 .0577 0 .1142-.0093.1719-.0094.0578 0 .1128 0 .1693v.4848a9.2238 9.2238 0 0 0 .1998 1.6978 9.3578 9.3578 0 0 0 1.2326 3.0544.1404.1404 0 0 1 .0134.0215 9.3533 9.3533 0 0 0 2.712 2.7764l.0214.0134-.0228.0228a9.3371 9.3371 0 0 0 6.8338 1.4278 9.3466 9.3466 0 0 0 5.916-3.7112l-3.0741-2.2229a5.5692 5.5692 0 0 1-1.6524 1.5352Zm-8.4645-4.9389a5.5562 5.5562 0 0 1 1.0193-3.0664c.0161-.0256.0349-.0511.0523-.0766 0 0 0-.0108.0121-.0148a5.4451 5.4451 0 0 1 .6424-.7535 5.5818 5.5818 0 0 1 3.0006-1.5159 5.5774 5.5774 0 0 1 3.326.483l-.063.0618.0255.0121-3.9902 3.8656-3.5462 3.4346a5.574 5.574 0 0 1-.4788-2.4299Z" />
  <rect width="72" height="13.9858" y="35" fill="#008A45" rx="4" />
  <path fill="#fff"
    d="M7.8945 39.9631v-.8836h4.6421v.8836h-1.7983v4.9346H9.6928v-4.9346H7.8945ZM16.7915 44.8977v-5.8182h3.7841v.8836h-2.7302v1.5795h2.5341v.8835h-2.5341v1.5881h2.7529v.8835h-3.8068ZM28.1728 40.679c-.0265-.2481-.1383-.4413-.3353-.5796-.195-.1382-.4488-.2074-.7613-.2074-.2197 0-.4082.0332-.5654.0995s-.2774.1562-.3608.2699c-.0833.1136-.1259.2433-.1278.3892 0 .1212.0275.2263.0824.3153.0568.089.1335.1648.2301.2273.0966.0606.2036.1117.321.1534.1174.0417.2358.0767.3551.1051l.5455.1364c.2197.0511.4309.1202.6335.2074.2046.0871.3873.1969.5483.3295.1629.1326.2917.2926.3864.4801s.142.4072.142.6591c0 .3409-.0871.6411-.2613.9006-.1743.2575-.4262.4593-.7557.6051-.3277.1439-.7245.2159-1.1904.2159-.4526 0-.8456-.0701-1.1789-.2102-.3315-.1402-.591-.3447-.7785-.6137-.1856-.2689-.2859-.5966-.3011-.9829h1.0369c.0152.2026.0777.3712.1875.5057.1099.1344.2529.2348.429.3011.178.0663.3769.0994.5966.0994.2292 0 .4299-.0341.6023-.1022.1742-.0701.3106-.1667.4091-.2898.0985-.125.1486-.2709.1505-.4375-.0019-.1515-.0464-.2765-.1335-.375-.0871-.1004-.2093-.1837-.3665-.25-.1553-.0682-.3371-.1288-.5454-.1818l-.6619-.1705c-.4792-.1231-.858-.3096-1.1364-.5596-.2765-.2519-.4148-.5862-.4148-1.0029 0-.3428.0928-.643.2784-.9006.1875-.2575.4423-.4573.7642-.5994.322-.1439.6866-.2159 1.0938-.2159.4129 0 .7746.072 1.0852.2159.3125.1421.5578.34.7358.5938.178.2519.2699.5416.2756.8693h-1.0142ZM33.3105 39.9631v-.8836h4.642v.8836h-1.7983v4.9346h-1.0454v-4.9346h-1.7983ZM46.9887 39.0795v5.8182h-.9375l-2.7415-3.963h-.0483v3.963h-1.054v-5.8182h.9432l2.7386 3.966h.0512v-3.966h1.0483ZM51.4971 44.8977v-5.8182h3.7841v.8836h-2.7301v1.5795h2.5341v.8835h-2.5341v1.5881h2.7528v.8835h-3.8068ZM59.4608 39.9631v-.8836h4.642v.8836h-1.7983v4.9346h-1.0454v-4.9346h-1.7983Z" />
</svg>
