<svg width="72" height="49" viewBox="0 0 72 49" fill="none" xmlns="http://www.w3.org/2000/svg">
<path d="M69.9319 12.1367H66.1992V30.8016H69.9319V12.1367Z" fill="#231F20"/>
<path d="M68.0832 3.42969H68.0483C66.3335 3.42969 64.9434 4.82184 64.9434 6.53916C64.9434 8.25647 66.3335 9.64863 68.0483 9.64863H68.0832C69.798 9.64863 71.1881 8.25647 71.1881 6.53916C71.1881 4.82184 69.798 3.42969 68.0832 3.42969Z" fill="#231F20"/>
<path d="M40.4416 12.1367H36.709V30.8016H40.4416V12.1367Z" fill="#231F20"/>
<path d="M38.591 3.42969H38.5561C36.8413 3.42969 35.4512 4.82184 35.4512 6.53916C35.4512 8.25647 36.8413 9.64863 38.5561 9.64863H38.591C40.3058 9.64863 41.6959 8.25647 41.6959 6.53916C41.6959 4.82184 40.3058 3.42969 38.591 3.42969Z" fill="#231F20"/>
<path d="M58.3818 15.8771L57.2954 16.9342C58.6688 17.6713 59.8354 18.7419 60.6881 20.0479C61.5409 21.3539 62.0526 22.8535 62.1761 24.409V30.8026H58.4421V25.7173C58.461 25.528 58.4704 25.338 58.4703 25.1478C58.4703 24.9557 58.4609 24.765 58.4421 24.5769C58.3269 23.4591 57.8773 22.4022 57.1522 21.5447C56.427 20.6871 55.4601 20.0689 54.3782 19.771L48.4768 25.5064V30.8026H44.7441V0.957031H48.4781V20.3298L53.0651 15.8771L53.1081 15.8341L56.8984 12.1538H62.1761V12.1887L58.4421 15.8153L58.3818 15.8771Z" fill="#231F20"/>
<path d="M14.783 29.4676C13.3903 30.3059 11.8033 30.7654 10.1789 30.8008C8.55442 30.8362 6.94892 30.4462 5.52122 29.6694C4.09352 28.8926 2.89312 27.7558 2.03882 26.3717C1.18451 24.9876 0.705917 23.4041 0.650391 21.7779V0.896731L4.36963 0.888672V12.1204H10.0256V15.849H9.97597C9.79144 15.8485 9.607 15.8574 9.42339 15.8759H4.36963V21.4636C4.37045 22.4582 4.63512 23.4348 5.13657 24.2935C5.63801 25.1521 6.35823 25.8619 7.22352 26.3502C8.08882 26.8385 9.06813 27.0879 10.0613 27.0728C11.0544 27.0576 12.0257 26.7786 12.8757 26.2641L14.783 29.4676Z" fill="#30925E"/>
<path d="M15.5414 0.897748H12.3385C11.2152 0.897779 10.1378 1.3447 9.34354 2.14019V2.14019C8.94988 2.53416 8.63758 3.00193 8.42448 3.5168C8.21138 4.03166 8.10165 4.58352 8.10156 5.14086V8.35376H11.3058C12.4281 8.35536 13.5052 7.91094 14.3007 7.11803L14.3276 7.09117C15.1094 6.30924 15.5547 5.25201 15.5682 4.14557C15.587 2.68553 15.599 0.841334 15.5414 0.897748Z" fill="#30925E"/>
<path d="M28.3636 26.2556C27.5775 26.7311 26.6864 27.0051 25.7694 27.0534C24.8523 27.1016 23.9375 26.9227 23.106 26.5323L23.1703 26.4706L23.1449 26.4585L26.5234 23.173L26.903 22.8037L27.1015 22.6102L30.5887 19.2254L30.6423 19.1717L33.4375 16.4544C32.4075 14.8159 30.8958 13.5374 29.1104 12.7946C27.3249 12.0519 25.3536 11.8816 23.4675 12.3071C21.5814 12.7326 19.8734 13.7329 18.5784 15.1706C17.2834 16.6082 16.4651 18.4124 16.2362 20.3349C16.2362 20.3859 16.2241 20.437 16.2201 20.488C16.2161 20.5391 16.2107 20.5941 16.2053 20.6479L16.1932 20.8144C16.1932 20.8722 16.1932 20.9286 16.1839 20.9863C16.1745 21.0441 16.1839 21.0992 16.1839 21.1556C16.1839 21.3168 16.1839 21.4779 16.1839 21.6405C16.1978 22.2114 16.2647 22.7797 16.3837 23.3383C16.6108 24.4214 17.0282 25.4556 17.6163 26.3927C17.6214 26.3994 17.6259 26.4066 17.6297 26.4141C18.3299 27.5193 19.2538 28.4651 20.3417 29.1905L20.3631 29.2039L20.3403 29.2268C22.3487 30.5685 24.7975 31.0802 27.1741 30.6545C29.5506 30.2289 31.6706 28.899 33.0901 26.9434L30.016 24.7204C29.5755 25.3397 29.0132 25.8621 28.3636 26.2556V26.2556ZM19.8991 21.3168C19.9276 20.216 20.2825 19.1486 20.9184 18.2503C20.9345 18.2248 20.9533 18.1992 20.9707 18.1737C20.9707 18.1737 20.9707 18.163 20.9828 18.1589C21.1736 17.8887 21.3887 17.6365 21.6252 17.4054C22.4463 16.6036 23.4939 16.0743 24.6258 15.8895C25.7577 15.7047 26.919 15.8733 27.9518 16.3725L27.8888 16.4343L27.9143 16.4464L23.9241 20.3121L20.3779 23.7466C20.0381 22.9829 19.8745 22.1524 19.8991 21.3168V21.3168Z" fill="#231F20"/>
<rect y="35" width="72" height="14" rx="4" fill="#F74055"/>
<path d="M10.6236 45.5455H9.14062L11.4002 39H13.1836L15.44 45.5455H13.957L12.3175 40.4957H12.2663L10.6236 45.5455ZM10.5309 42.9727H14.0337V44.0529H10.5309V42.9727Z" fill="white"/>
<path d="M21.9878 45.5455V39H23.3717V44.4045H26.1778V45.5455H21.9878Z" fill="white"/>
<path d="M32.8542 45.5455V39H35.4366C35.9331 39 36.356 39.0948 36.7055 39.2844C37.0549 39.4719 37.3212 39.733 37.5045 40.0675C37.6898 40.3999 37.7825 40.7834 37.7825 41.218C37.7825 41.6527 37.6888 42.0362 37.5013 42.3686C37.3138 42.701 37.0421 42.9599 36.6863 43.1452C36.3326 43.3306 35.9043 43.4233 35.4015 43.4233H33.7555V42.3143H35.1778C35.4441 42.3143 35.6636 42.2685 35.8361 42.1768C36.0109 42.0831 36.1408 41.9542 36.2261 41.7901C36.3134 41.6239 36.3571 41.4332 36.3571 41.218C36.3571 41.0007 36.3134 40.8111 36.2261 40.6491C36.1408 40.4851 36.0109 40.3583 35.8361 40.2688C35.6614 40.1772 35.4398 40.1314 35.1714 40.1314H34.2381V45.5455H32.8542Z" fill="white"/>
<path d="M44.4414 45.5455V39H45.8253V41.7006H48.6346V39H50.0153V45.5455H48.6346V42.8416H45.8253V45.5455H44.4414Z" fill="white"/>
<path d="M58.0444 45.5455H56.5615L58.8211 39H60.6045L62.8608 45.5455H61.3779L59.7383 40.4957H59.6872L58.0444 45.5455ZM57.9518 42.9727H61.4546V44.0529H57.9518V42.9727Z" fill="white"/>
</svg>
