<svg width="97" height="96" viewBox="0 0 97 96" fill="none" xmlns="http://www.w3.org/2000/svg">
  <g clip-path="url(#clip0_16646_45099)">
    <mask id="mask0_16646_45099" style="mask-type:luminance" maskUnits="userSpaceOnUse" x="0" y="0"
      width="97" height="96">
      <path d="M0.5 -7.62939e-06H96.5V96H0.5V-7.62939e-06Z" fill="white" />
    </mask>
    <g mask="url(#mask0_16646_45099)">
      <path fill-rule="evenodd" clip-rule="evenodd"
        d="M41.3983 60.23C42.5965 61.2562 44.5397 61.2567 45.7386 60.2312C47.2621 58.928 49.7379 58.928 51.2614 60.2312C52.4603 61.2567 54.4035 61.2562 55.6017 60.23C56.7999 59.2039 56.7993 57.5406 55.6004 56.5151C51.6801 53.1616 45.3199 53.1616 41.3996 56.5151C40.2007 57.5406 40.2001 59.2039 41.3983 60.23Z"
        fill="#222222" />
      <path fill-rule="evenodd" clip-rule="evenodd"
        d="M70 51C71.3807 51 72.5 49.688 72.5 48.0695V44.9305C72.5 43.312 71.3807 42 70 42C68.6193 42 67.5 43.312 67.5 44.9305V48.0695C67.5 49.688 68.6193 51 70 51Z"
        fill="#222222" />
      <path fill-rule="evenodd" clip-rule="evenodd"
        d="M12.5 14.5C12.5 15.8807 13.6663 17 15.105 17H17.895C19.3337 17 20.5 15.8807 20.5 14.5C20.5 13.1193 19.3337 12 17.895 12H15.105C13.6663 12 12.5 13.1193 12.5 14.5Z"
        fill="#222222" />
      <path fill-rule="evenodd" clip-rule="evenodd"
        d="M25.5 14.5C25.5 15.8807 26.812 17 28.4305 17H31.5695C33.188 17 34.5 15.8807 34.5 14.5C34.5 13.1193 33.188 12 31.5695 12H28.4305C26.812 12 25.5 13.1193 25.5 14.5Z"
        fill="#222222" />
      <path fill-rule="evenodd" clip-rule="evenodd"
        d="M39.5 14.5C39.5 15.8807 40.6663 17 42.1049 17H44.8951C46.3337 17 47.5 15.8807 47.5 14.5C47.5 13.1193 46.3337 12 44.8951 12H42.1049C40.6663 12 39.5 13.1193 39.5 14.5Z"
        fill="#222222" />
      <path fill-rule="evenodd" clip-rule="evenodd"
        d="M27 51C28.3807 51 29.5 49.688 29.5 48.0695V44.9305C29.5 43.312 28.3807 42 27 42C25.6193 42 24.5 43.312 24.5 44.9305V48.0695C24.5 49.688 25.6193 51 27 51Z"
        fill="#222222" />
      <path fill-rule="evenodd" clip-rule="evenodd"
        d="M0.5 26.2561C0.5 27.7715 1.7592 29 3.3125 29H93.6875C95.2408 29 96.5 27.7715 96.5 26.2561V14.5C96.5 6.4907 89.8453 0 81.6374 0H15.3626C7.15471 0 0.5 6.4907 0.5 14.5V26.2561ZM6.125 23.5122V14.5C6.125 9.52191 10.2609 5.48778 15.3626 5.48778H81.6374C86.7391 5.48778 90.875 9.52191 90.875 14.5V23.5122H6.125Z"
        fill="#222222" />
      <path fill-rule="evenodd" clip-rule="evenodd"
        d="M15.3626 90.3672C10.2611 90.3672 6.125 86.2252 6.125 81.1168V29.6328H90.875V81.1168C90.875 86.2252 86.7389 90.3672 81.6374 90.3672H15.3626ZM0.5 81.1168C0.5 89.336 7.15448 96 15.3626 96H81.6374C89.8455 96 96.5 89.336 96.5 81.1168V26.8164C96.5 25.2609 95.2408 24 93.6875 24H3.3125C1.7592 24 0.5 25.2609 0.5 26.8164V81.1168Z"
        fill="#222222" />
    </g>
  </g>
  <defs>
    <clipPath id="clip0_16646_45099">
      <rect width="96" height="96.0003" fill="white" transform="translate(0.5)" />
    </clipPath>
  </defs>
</svg>
