<svg xmlns="http://www.w3.org/2000/svg" fill="none" viewBox="0 0 97 96">
  <path fill="#7BC29F" fill-rule="evenodd"
    d="M8.093 51.584c7.663-3.334 8.815-7.594 8.65-10.385-.022-3.262-2.703-5.926-5.998-5.926a6.007 6.007 0 0 0-5.925 5.044 1.501 1.501 0 0 0 2.962.475 3.001 3.001 0 0 1 5.963.48c0 .03.001.062.003.092.127 2.091-1.097 4.965-6.85 7.469a1.5 1.5 0 1 0 1.195 2.75Z"
    clip-rule="evenodd" />
  <path fill="#7BC29F" fill-rule="evenodd"
    d="M8.037 51.606c11.395-4.408 18.186-8.725 30.98-8.898a1.5 1.5 0 0 0-.041-3c-13.214.179-20.253 4.547-32.02 9.1a1.5 1.5 0 1 0 1.082 2.797Z"
    clip-rule="evenodd" />
  <path fill="#7BC29F" fill-rule="evenodd"
    d="M8.346 60.444c12.315-8.457 19.28-11.448 44.167-11.736 26.867-.312 30.908-13.887 30.68-19.47-.017-5.36-4.379-9.71-9.749-9.71-5.382 0-9.75 4.369-9.75 9.75a9.748 9.748 0 0 0 5.088 8.563 1.5 1.5 0 0 0 1.437-2.633 6.756 6.756 0 0 1-3.525-5.93 6.752 6.752 0 0 1 6.75-6.75 6.753 6.753 0 0 1 6.752 6.814c.213 4.93-3.89 16.09-27.717 16.366-25.836.3-33.047 3.483-45.833 12.264a1.5 1.5 0 0 0 1.7 2.472ZM35.4 60.405c4.105-3.099 12.328-3.724 18.235-1.612 3.603 1.288 6.384 3.625 6.37 7.324v.006c0 2.484-2.017 4.5-4.5 4.5a4.502 4.502 0 0 1-4.31-5.794 1.5 1.5 0 0 0-2.874-.864 7.503 7.503 0 0 0 7.185 9.659 7.503 7.503 0 0 0 7.5-7.498c.018-5.013-3.477-8.412-8.361-10.158-6.825-2.44-16.31-1.539-21.053 2.043a1.5 1.5 0 1 0 1.808 2.394ZM66.073 53.207c6.557-.342 13.9 2.125 16.63 6.762a1.5 1.5 0 1 0 2.585-1.521c-3.2-5.438-11.683-8.639-19.37-8.238a1.5 1.5 0 0 0 .155 2.997Z"
    clip-rule="evenodd" />
  <path fill="#B0DAC5" fill-rule="evenodd"
    d="M20.675 31.758c3.997.21 9.745-1.614 12.55-3.577a1.499 1.499 0 1 0-1.72-2.457c-2.385 1.67-7.273 3.217-10.671 3.039a1.5 1.5 0 0 0-.159 2.995Z"
    clip-rule="evenodd" />
  <path fill="#41C17D" fill-rule="evenodd"
    d="M30.386 28.157C24.989 23.19 27.63 13.679 38.3 9.753c5.74-2.11 8.87-4.228 10.445-6.004a1.44 1.44 0 0 1 2.544.123c5.652 13.413-9.077 35.172-20.904 24.285Z"
    clip-rule="evenodd" />
  <path fill="#006E46" fill-opacity=".1" fill-rule="evenodd"
    d="M51.387 4.112c5.38 13.428-9.244 34.867-21.003 24.045-1.162-1.07-1.951-2.35-2.368-3.738C38.039 34.62 53.313 17.586 51.387 4.112Z"
    clip-rule="evenodd" />
  <path fill="#B0DAC5" fill-rule="evenodd"
    d="M8.77 81.735c2.278-2.529 6.83-4.892 9.697-5.397a1.5 1.5 0 0 0-.522-2.955c-3.37.596-8.727 3.37-11.403 6.345a1.5 1.5 0 1 0 2.229 2.007Z"
    clip-rule="evenodd" />
  <path fill="#41C17D" fill-rule="evenodd"
    d="M15.953 75.41c-.304 7.326 8.29 12.184 18.61 7.414 5.55-2.565 9.262-3.28 11.633-3.14a1.438 1.438 0 0 0 1.71-1.885C42.42 64.32 16.62 59.348 15.953 75.41Z"
    clip-rule="evenodd" />
  <path fill="#006E46" fill-opacity=".1" fill-rule="evenodd"
    d="M18.226 69.006c-1.33 1.575-2.16 3.689-2.273 6.404-.304 7.326 8.29 12.184 18.61 7.414 5.55-2.565 9.262-3.28 11.633-3.14.473.124.972-.004 1.33-.33a1.318 1.318 0 0 1-.146-.055c-2.331-.513-6.11-.324-11.969 1.544-10.896 3.472-18.74-2.996-17.418-10.716.066-.387.144-.76.233-1.12Z"
    clip-rule="evenodd" />
  <path fill="#B0DAC5" fill-rule="evenodd"
    d="M65.71 71.303c2.665.325 6.048 1.882 8.388 3.528a1.5 1.5 0 0 0 1.726-2.453c-2.716-1.91-6.658-3.676-9.753-4.053a1.5 1.5 0 0 0-.361 2.978Z"
    clip-rule="evenodd" />
  <path fill="#41C17D" fill-rule="evenodd"
    d="M73.745 71.828c-4.646 3.71-3.051 11.55 5.355 15.331 4.206 1.892 6.586 3.66 7.842 5.126a1.432 1.432 0 0 0 2.525-.055c4.852-10.583-5.674-28.426-15.722-20.402Z"
    clip-rule="evenodd" />
  <path fill="#006E46" fill-opacity=".1" fill-rule="evenodd"
    d="M71.504 75.045c-1.27 3.974 1.177 9.227 7.596 12.114 4.206 1.892 6.586 3.66 7.842 5.126a1.428 1.428 0 0 0 2.008.508 1.434 1.434 0 0 1-.584-.718c-1.212-1.986-3.855-4.572-8.989-7.616-4.425-2.623-6.992-6.078-7.873-9.414Z"
    clip-rule="evenodd" />
</svg>
